<?xml version="1.0" encoding="UTF-8" standalone="no"?>
<svg
   xmlns:dc="http://purl.org/dc/elements/1.1/"
   xmlns:cc="http://creativecommons.org/ns#"
   xmlns:rdf="http://www.w3.org/1999/02/22-rdf-syntax-ns#"
   xmlns:svg="http://www.w3.org/2000/svg"
   xmlns="http://www.w3.org/2000/svg"
   xmlns:sodipodi="http://sodipodi.sourceforge.net/DTD/sodipodi-0.dtd"
   xmlns:inkscape="http://www.inkscape.org/namespaces/inkscape"
   version="1.1"
   id="svg2"
   xml:space="preserve"
   width="1444"
   height="669.33331"
   viewBox="0 0 1444 669.33331"
   sodipodi:docname="Engin_Sigorta7_Logo_FINAL_croped.ai"><metadata
     id="metadata8"><rdf:RDF><cc:Work
         rdf:about=""><dc:format>image/svg+xml</dc:format><dc:type
           rdf:resource="http://purl.org/dc/dcmitype/StillImage" /></cc:Work></rdf:RDF></metadata><defs
     id="defs6"><clipPath
       clipPathUnits="userSpaceOnUse"
       id="clipPath18"><path
         d="M 0,0 H 1083 V 502 H 0 Z"
         id="path16" /></clipPath></defs><sodipodi:namedview
     pagecolor="#ffffff"
     bordercolor="#666666"
     borderopacity="1"
     objecttolerance="10"
     gridtolerance="10"
     guidetolerance="10"
     inkscape:pageopacity="0"
     inkscape:pageshadow="2"
     inkscape:window-width="640"
     inkscape:window-height="480"
     id="namedview4" /><g
     id="g10"
     inkscape:groupmode="layer"
     inkscape:label="Engin_Sigorta7_Logo_FINAL_croped"
     transform="matrix(1.3333333,0,0,-1.3333333,0,669.33333)"><g
       id="g12"><g
         id="g14"
         clip-path="url(#clipPath18)"><g
           id="g20"
           transform="translate(1079.4932,350.3042)"><path
             d="m 0,0 c 0,-67.511 -54.562,-120.533 -121.868,-118.429 -67.306,2.104 -121.868,58.538 -121.868,126.048 0,67.511 54.562,120.533 121.868,118.429 C -54.562,123.944 0,67.51 0,0"
             style="fill:rgb(164, 129, 248);fill-opacity:1;fill-rule:nonzero;stroke:none"
             id="path22" /></g><g
           id="g24"
           transform="translate(780.2705,225.208)"><path
             d="m 0,0 c 6.672,5.771 14.858,14.87 23.046,23.659 4.857,5.157 9.412,10.32 13.957,14.87 C 23.358,39.438 3.33,15.473 -3.342,-2.128 c 0,-0.3 0,-0.601 -0.3,-0.901 C -2.729,-2.128 -1.515,-1.214 0,0 M 107.389,8.499 C 87.974,-10.014 67.345,-24.271 54.602,-17.287 42.472,-10.314 45.201,6.672 48.231,22.445 44.889,19.114 41.258,14.87 37.315,10.615 29.117,1.516 20.317,-8.187 12.431,-14.858 0.601,-24.873 -8.8,-26.087 -15.472,-22.444 c -7.585,3.942 -10.615,13.644 -6.07,27.001 8.498,23.046 40.645,62.181 68.258,51.566 2.729,-1.214 4.857,-3.336 5.458,-6.065 9.401,3.03 16.686,-2.735 17.288,-13.35 C 69.772,31.551 68.247,24.271 67.033,17.6 65.218,7.285 64.004,0.913 64.004,-0.301 66.733,0 78.562,7.887 94.346,22.757 c 9.401,9.401 23.358,-5.458 13.043,-14.258"
             style="fill:#58595b;fill-opacity:1;fill-rule:nonzero;stroke:none"
             id="path26" /></g><g
           id="g28"
           transform="translate(11.6362,171.6729)"><path
             d="m 0,0 c 4.433,0 8.527,-2.73 10.23,-6.824 24.554,-67.517 294.979,22.163 277.587,89.691 -5.122,19.439 -43.312,20.798 -87.299,22.507 -45.703,1.703 -100.259,2.385 -98.556,42.285 2.391,67.859 194.031,108.441 207.341,25.574 0.677,-5.454 -3.08,-12.615 -10.918,-12.615 -5.46,0 -10.23,4.088 -10.906,9.202 -9.554,56.954 -161.99,23.872 -163.693,-22.844 -0.676,-16.71 18.419,-17.393 75.705,-19.778 45.352,-1.71 100.259,-3.068 109.462,-38.872 C 332.143,-3.068 23.528,-105.029 -10.23,-14.663 -12.96,-7.839 -7.838,0 0,0"
             style="fill:#58595b;fill-opacity:1;fill-rule:nonzero;stroke:none"
             id="path30" /></g><g
           id="g32"
           transform="translate(392.2168,232.7393)"><path
             d="m 0,0 c -12.743,-11.528 -33.673,-27.612 -49.144,-22.144 -18.502,6.672 -10.315,33.06 -4.857,50.353 1.214,3.336 2.128,6.371 2.729,8.493 1.214,3.643 4.857,6.979 9.412,6.979 6.673,0 9.702,-5.764 9.702,-10.014 l -0.3,-2.122 c -0.602,-3.035 -1.816,-6.671 -3.03,-10.314 -4.556,-13.957 -8.198,-24.573 -6.984,-25.173 4.856,-1.527 17.599,7.585 29.729,18.501 C -3.642,23.358 10.315,8.801 0,0"
             style="fill:#58595b;fill-opacity:1;fill-rule:nonzero;stroke:none"
             id="path34" /></g><g
           id="g36"
           transform="translate(431.3584,260.6479)"><path
             d="M 0,0 3.943,4.244 C -15.472,7.886 -44.901,-27.006 -40.345,-34.581 -34.274,-35.193 -16.686,-16.992 0,0 m -38.83,-218.727 c 17.288,26.399 31.857,74.017 42.172,119.831 -37.616,-41.56 -62.188,-79.486 -71.601,-106.788 -13.645,-38.518 7.887,-45.201 29.429,-13.043 M 80.689,-20.635 c 0,-3.33 -1.514,-5.758 -3.33,-7.273 -17.599,-14.871 -33.973,-29.73 -48.844,-44.6 -10.013,-54.302 -27.902,-122.248 -51.572,-157.135 -31.846,-47.93 -84.332,-28.515 -63.402,30.643 11.829,34.274 45.813,84.02 97.074,135.904 3.943,21.832 6.672,40.946 7.887,54.291 l -3.03,-3.331 c -20.329,-20.629 -47.63,-49.446 -66.131,-39.13 -28.516,19.715 28.816,87.968 65.217,72.803 1.526,-0.607 3.041,-2.122 4.255,-3.643 5.458,3.944 10.616,4.25 15.472,0.914 3.943,-3.643 4.545,-7.586 4.545,-13.656 0,-8.794 -1.515,-25.174 -4.545,-45.502 9.702,9.1 19.716,18.2 30.331,27 6.071,5.458 16.073,0.914 16.073,-7.285"
             style="fill:#58595b;fill-opacity:1;fill-rule:nonzero;stroke:none"
             id="path38" /></g><g
           id="g40"
           transform="translate(539.6724,265.7993)"><path
             d="m 0,0 c -22.757,-9.702 -40.957,-42.472 -25.486,-48.231 24.272,-9.4 50.058,35.488 30.643,43.079 C 2.729,-4.244 0.902,-2.122 0,0 m 12.743,22.45 c 5.458,0 9.702,-4.244 9.702,-9.707 0,-1.821 -0.602,-3.637 -1.515,-5.157 26.7,-23.96 -13.656,-89.189 -53.388,-74.018 -42.473,15.773 3.029,88.882 45.201,88.882"
             style="fill:#58595b;fill-opacity:1;fill-rule:nonzero;stroke:none"
             id="path42" /></g><g
           id="g44"
           transform="translate(691.3604,232.4277)"><path
             d="m 0,0 c -12.743,-11.518 -33.673,-27.603 -49.144,-21.832 -15.784,5.458 -14.871,21.531 -13.044,35.186 0.602,5.76 1.204,9.403 0.602,11.524 -0.301,1.215 -2.728,2.429 -8.186,5.158 -8.499,-27.608 -26.088,-65.224 -47.33,-79.481 -6.672,-3.943 -14.859,0.612 -14.859,8.198 0,3.331 1.815,6.371 3.943,7.886 18.2,11.83 33.973,47.931 40.947,73.411 -5.158,4.55 -8.188,10.008 -8.489,16.685 -0.913,27.909 35.489,27.602 30.944,-5.764 -0.312,-0.607 -0.312,-0.913 -0.312,-1.52 l 1.527,-0.908 c 9.701,-4.857 18.2,-9.407 20.629,-18.808 1.514,-6.065 0.6,-13.35 -0.313,-19.109 -1.214,-10.013 -1.515,-13.355 0.613,-14.257 4.856,-1.827 17.588,7.273 29.729,18.201 C -3.642,23.364 10.314,8.8 0,0"
             style="fill:#58595b;fill-opacity:1;fill-rule:nonzero;stroke:none"
             id="path46" /></g><g
           id="g48"
           transform="translate(843.9619,310.3936)"><path
             d="m 0,0 c -4.856,0 -8.8,3.342 -9.713,7.892 0,-0.607 -1.214,-0.607 -4.856,0 -13.345,1.815 -37.316,0 -71.89,-6.071 -13.044,-34.58 -28.215,-80.99 -19.415,-83.118 6.06,-1.214 18.803,7.285 30.943,18.201 9.101,8.8 23.046,-5.758 12.732,-14.558 -13.044,-11.829 -33.06,-25.486 -47.618,-22.456 -17.901,3.642 -18.513,25.786 -12.743,52.18 -9.712,-11.523 -19.715,-21.537 -29.73,-29.724 -6.07,-5.469 -16.084,-0.914 -16.084,7.273 0,3.041 1.526,5.77 3.342,7.285 17.599,15.166 35.488,34.887 51.271,60.066 -13.043,-2.734 -27.301,-5.764 -42.773,-9.407 l -1.826,-0.3 c -4.244,0 -10.014,3.029 -10.014,9.707 0,4.55 3.342,8.187 6.984,9.401 22.446,5.158 42.472,9.407 60.362,12.743 l -0.302,-0.908 c 0.914,2.729 1.827,5.158 2.729,7.28 l 1.828,4.85 c 4.544,11.228 8.186,17.294 17.286,14.258 8.188,-3.943 7.587,-10.314 2.429,-21.537 29.428,4.55 51.573,5.765 65.217,4.25 C 3.03,25.486 9.401,17.599 9.702,10.014 10.003,4.55 5.458,0 0,0"
             style="fill:#58595b;fill-opacity:1;fill-rule:nonzero;stroke:none"
             id="path50" /></g><g
           id="g52"
           transform="translate(802.5625,447.7402)"><path
             d="m 0,0 c -30.631,22.136 -66.38,35.396 -102.609,42.101 -67.735,12.463 -137.734,-4.058 -197.689,-38.01 -35.604,-20.486 -68.696,-46.014 -98.369,-74.953 -4.61,-4.746 1.872,-11.68 6.344,-7.529 36.283,33.969 76.674,63.338 121.181,83.38 51.847,23.637 110.345,32.85 166.07,21.732 C -71.378,19.892 -38.123,7.01 -9.849,-13.915 -0.812,-20.961 8.773,-7.192 0,0"
             style="fill:#58595b;fill-opacity:1;fill-rule:nonzero;stroke:none"
             id="path54" /></g><g
           id="g56"
           transform="translate(364.2266,334.8018)"><path
             d="M 0,0 C 13.645,3.03 22.445,-4.857 21.231,-14.564 19.415,-21.542 11.217,-27.908 -0.301,-26.093 -13.656,-23.664 -14.87,-10.315 -4.857,-3.336 -3.342,-1.821 -1.827,-0.607 0,0"
             style="fill:#58595b;fill-opacity:1;fill-rule:nonzero;stroke:none"
             id="path58" /></g><g
           id="g60"
           transform="translate(369.1597,299.4775)"><path
             d="M 0,0 H -0.301 Z"
             style="fill:#58595b;fill-opacity:1;fill-rule:nonzero;stroke:none"
             id="path62" /></g><g
           id="g64"
           transform="translate(928.1299,189.7119)"><path
             d="m 0,0 c -3.365,0.434 -5.819,2.053 -7.318,4.812 -1.455,2.725 -1.523,5.723 -0.201,8.901 14.615,25.836 28.152,53.071 40.089,80.611 l 3.188,7.364 -19.012,-7.66 c -1.032,-0.385 -2.099,-0.58 -3.087,-0.549 -3.132,0.098 -4.819,2.434 -5.697,4.372 -1.11,2.307 -0.877,3.965 -0.499,4.961 0.544,1.425 1.743,2.513 3.563,3.224 l 31.672,12.8 0.49,1.266 c 3.997,10.513 7.373,19.769 10.094,27.76 5.142,14.732 8.095,25.171 8.75,31.015 0.634,8.897 0.023,14.909 -1.698,17.057 -3.565,3.731 -9.817,5.653 -18.802,5.934 -2.609,0.081 -5.596,0.024 -9.016,-0.208 -6.886,-0.476 -14.515,-1.68 -22.656,-3.581 -8.183,-1.905 -17.323,-4.354 -27.173,-7.276 -9.961,-2.952 -17.58,-5.02 -22.622,-6.149 -0.91,-0.25 -1.699,-0.342 -2.486,-0.317 -1.155,0.036 -2.243,0.32 -3.254,0.848 -1.777,0.902 -3.065,2.251 -3.787,3.927 -0.666,1.525 -0.999,3.162 -1.011,4.905 -0.034,1.906 0.512,3.604 1.6,5.085 1.077,1.493 2.765,2.526 5.019,3.085 14.781,3.431 33.56,7.856 56.325,13.282 l 7.473,1.989 c 3.399,0.896 6.197,1.577 8.407,2.054 l 7.839,1.598 c 3.066,0.595 6.086,0.874 8.985,0.805 2.931,-0.086 5.518,-0.356 7.996,-0.823 9.372,-1.975 16.445,-6.903 20.966,-14.64 4.397,-7.59 6.408,-16.43 5.974,-26.269 -0.655,-11.992 -4.298,-27.05 -10.839,-44.723 l -2.586,-7.003 12.937,5.209 c 7.573,3.027 13.271,5.277 17.057,6.741 1.089,0.489 2.044,0.688 2.999,0.658 1.321,-0.042 2.587,-0.521 3.763,-1.432 1.945,-1.531 2.954,-3.462 2.999,-5.747 0.044,-2.402 -1.276,-4.332 -3.698,-5.443 -4.952,-1.933 -12.237,-4.847 -21.966,-8.792 -8.528,-3.465 -15.247,-6.134 -20.188,-8.018 l -1.266,-0.479 -0.511,-1.259 C 56.536,104.252 54.825,100.156 53.671,97.586 40.767,66.533 25.363,35.107 7.851,4.093 6.452,1.458 4.287,0.039 1.555,-0.076 L 0.933,-0.079 Z"
             style="fill:#58595b;fill-opacity:1;fill-rule:nonzero;stroke:none"
             id="path66" /></g></g></g></g></svg>
