<?xml version="1.0" encoding="utf-8"?>
<!-- Generator: Adobe Illustrator 16.0.0, SVG Export Plug-In . SVG Version: 6.00 Build 0)  -->
<!DOCTYPE svg PUBLIC "-//W3C//DTD SVG 1.1//EN" "http://www.w3.org/Graphics/SVG/1.1/DTD/svg11.dtd">
<svg version="1.1"
	 id="svg2" xmlns:dc="http://purl.org/dc/elements/1.1/" xmlns:cc="http://creativecommons.org/ns#" xmlns:rdf="http://www.w3.org/1999/02/22-rdf-syntax-ns#" xmlns:svg="http://www.w3.org/2000/svg" xmlns:sodipodi="http://sodipodi.sourceforge.net/DTD/sodipodi-0.dtd" xmlns:inkscape="http://www.inkscape.org/namespaces/inkscape" sodipodi:docname="Engin_Sigorta7_Logo_FINAL_croped.ai"
	 xmlns="http://www.w3.org/2000/svg" xmlns:xlink="http://www.w3.org/1999/xlink" x="0px" y="0px" width="1444px"
	 height="669.333px" viewBox="0 0 1444 669.333" enable-background="new 0 0 1444 669.333" xml:space="preserve">
<sodipodi:namedview  guidetolerance="10" gridtolerance="10" objecttolerance="10" bordercolor="#666666" pagecolor="#ffffff" borderopacity="1" id="namedview4" inkscape:window-height="480" inkscape:window-width="640" inkscape:pageshadow="2" inkscape:pageopacity="0">
	</sodipodi:namedview>
<g id="g10" transform="matrix(1.3333333,0,0,-1.3333333,0,669.33333)" inkscape:label="Engin_Sigorta7_Logo_FINAL_croped" inkscape:groupmode="layer">
	<g id="g12">
		<g>
			<defs>
				<rect id="SVGID_1_" x="-180.5" y="-83.666" width="1444" height="669.333"/>
			</defs>
			<clipPath id="SVGID_2_">
				<use xlink:href="#SVGID_1_"  overflow="visible"/>
			</clipPath>
			<g id="g14" clip-path="url(#SVGID_2_)">
				<g id="g20" transform="translate(1079.4932,350.3042)">
					<path id="path22" fill="#A481F8" d="M0,0c0-67.511-54.563-120.533-121.868-118.429
						c-67.307,2.104-121.868,58.538-121.868,126.048c0,67.511,54.562,120.533,121.868,118.429C-54.562,123.944,0,67.51,0,0"/>
				</g>
				<g id="g24" transform="translate(780.2705,225.208)">
					<path id="path26" fill="#FFFFFF" d="M0,0c6.672,5.771,14.858,14.87,23.046,23.659c4.857,5.157,9.412,10.32,13.957,14.87
						C23.358,39.438,3.33,15.473-3.342-2.128c0-0.3,0-0.601-0.3-0.901C-2.729-2.128-1.515-1.214,0,0 M107.389,8.499
						c-19.415-18.513-40.044-32.77-52.787-25.786c-12.13,6.973-9.401,23.959-6.371,39.732c-3.342-3.331-6.973-7.575-10.916-11.83
						C29.117,1.516,20.317-8.187,12.431-14.858C0.601-24.873-8.8-26.087-15.472-22.444c-7.585,3.942-10.615,13.644-6.07,27.001
						c8.498,23.046,40.645,62.181,68.258,51.566c2.729-1.214,4.857-3.336,5.458-6.065c9.401,3.03,16.686-2.735,17.288-13.35
						c0.31-5.157-1.215-12.437-2.429-19.108C65.218,7.285,64.004,0.913,64.004-0.301C66.733,0,78.562,7.887,94.346,22.757
						C103.747,32.158,117.704,17.299,107.389,8.499"/>
				</g>
				<g id="g28" transform="translate(11.6362,171.6729)">
					<path id="path30" fill="#FFFFFF" d="M0,0c4.433,0,8.527-2.73,10.23-6.825c24.554-67.516,294.979,22.163,277.587,89.692
						c-5.122,19.439-43.312,20.798-87.299,22.507c-45.703,1.703-100.259,2.385-98.556,42.285
						c2.391,67.859,194.031,108.441,207.341,25.574c0.677-5.454-3.08-12.615-10.918-12.615c-5.459,0-10.23,4.088-10.906,9.202
						c-9.554,56.954-161.99,23.872-163.693-22.844c-0.676-16.71,18.419-17.393,75.705-19.778
						c45.352-1.71,100.259-3.068,109.462-38.872C332.143-3.067,23.528-105.029-10.23-14.663C-12.96-7.838-7.838,0,0,0"/>
				</g>
				<g id="g32" transform="translate(392.2168,232.7393)">
					<path id="path34" fill="#FFFFFF" d="M0,0c-12.743-11.528-33.673-27.612-49.144-22.144c-18.502,6.672-10.315,33.06-4.857,50.353
						c1.214,3.336,2.128,6.371,2.729,8.493c1.214,3.643,4.857,6.979,9.412,6.979c6.673,0,9.702-5.764,9.702-10.014l-0.3-2.122
						c-0.602-3.035-1.816-6.671-3.03-10.314c-4.556-13.957-8.198-24.573-6.984-25.173c4.856-1.527,17.599,7.585,29.729,18.501
						C-3.642,23.358,10.315,8.801,0,0"/>
				</g>
				<g id="g36" transform="translate(431.3584,260.6479)">
					<path id="path38" fill="#FFFFFF" d="M0,0l3.943,4.244c-19.414,3.642-48.844-31.25-44.287-38.825
						C-34.274-35.193-16.686-16.992,0,0 M-38.83-218.726c17.288,26.398,31.857,74.017,42.172,119.83
						c-37.616-41.559-62.188-79.485-71.601-106.787C-81.904-244.201-60.372-250.886-38.83-218.726 M80.689-20.635
						c0-3.33-1.514-5.758-3.33-7.273C59.76-42.779,43.386-57.637,28.515-72.508C18.502-126.81,0.613-194.756-23.057-229.642
						c-31.846-47.931-84.332-28.516-63.401,30.643c11.829,34.273,45.813,84.019,97.074,135.904
						c3.943,21.832,6.672,40.945,7.887,54.29l-3.03-3.331c-20.329-20.628-47.629-49.446-66.13-39.129
						c-28.516,19.715,28.816,87.968,65.216,72.802c1.526-0.607,3.041-2.122,4.255-3.643c5.458,3.944,10.616,4.25,15.472,0.914
						c3.943-3.643,4.545-7.586,4.545-13.656c0-8.794-1.515-25.174-4.545-45.501c9.702,9.1,19.716,18.199,30.331,27
						C70.687-7.892,80.689-12.436,80.689-20.635"/>
				</g>
				<g id="g40" transform="translate(539.6724,265.7993)">
					<path id="path42" fill="#FFFFFF" d="M0,0c-22.757-9.702-40.957-42.472-25.486-48.231c24.272-9.4,50.058,35.488,30.643,43.079
						C2.729-4.244,0.902-2.122,0,0 M12.743,22.45c5.458,0,9.702-4.244,9.702-9.707c0-1.821-0.602-3.637-1.515-5.157
						c26.7-23.96-13.656-89.189-53.388-74.018C-74.931-50.658-29.429,22.45,12.743,22.45"/>
				</g>
				<g id="g44" transform="translate(691.3604,232.4277)">
					<path id="path46" fill="#FFFFFF" d="M0,0c-12.743-11.518-33.673-27.603-49.144-21.832
						c-15.784,5.458-14.87,21.532-13.044,35.186c0.602,5.76,1.204,9.403,0.602,11.524c-0.301,1.215-2.728,2.429-8.186,5.158
						c-8.499-27.608-26.087-65.224-47.33-79.481c-6.672-3.943-14.859,0.612-14.859,8.197c0,3.331,1.815,6.371,3.943,7.887
						c18.2,11.83,33.973,47.931,40.947,73.411c-5.158,4.55-8.188,10.008-8.489,16.685c-0.913,27.909,35.489,27.602,30.944-5.764
						c-0.312-0.607-0.312-0.913-0.312-1.52l1.527-0.908c9.701-4.857,18.2-9.407,20.629-18.808
						c1.514-6.065,0.601-13.349-0.313-19.109C-44.299,0.613-44.6-2.729-42.472-3.631c4.856-1.827,17.588,7.273,29.729,18.201
						C-3.642,23.364,10.314,8.801,0,0"/>
				</g>
				<g id="g48" transform="translate(843.9619,310.3936)">
					<path id="path50" fill="#FFFFFF" d="M0,0c-4.856,0-8.8,3.342-9.713,7.892c0-0.607-1.214-0.607-4.856,0
						c-13.345,1.815-37.316,0-71.89-6.071c-13.044-34.58-28.215-80.99-19.415-83.118c6.06-1.214,18.803,7.285,30.943,18.201
						c9.1,8.8,23.046-5.758,12.732-14.558c-13.044-11.829-33.06-25.485-47.618-22.456c-17.9,3.642-18.513,25.786-12.743,52.18
						c-9.712-11.523-19.715-21.537-29.73-29.724c-6.07-5.468-16.084-0.914-16.084,7.273c0,3.041,1.526,5.77,3.342,7.285
						c17.599,15.166,35.487,34.887,51.271,60.066c-13.043-2.734-27.301-5.764-42.773-9.407l-1.826-0.3
						c-4.244,0-10.014,3.029-10.014,9.707c0,4.55,3.342,8.187,6.984,9.401c22.446,5.158,42.472,9.407,60.362,12.743l-0.302-0.908
						c0.914,2.729,1.827,5.158,2.729,7.28l1.828,4.85c4.544,11.228,8.186,17.294,17.286,14.258
						c8.188-3.943,7.587-10.314,2.429-21.537c29.428,4.55,51.573,5.765,65.217,4.25C3.03,25.486,9.401,17.599,9.702,10.014
						C10.003,4.55,5.458,0,0,0"/>
				</g>
				<g id="g52" transform="translate(802.5625,447.7402)">
					<path id="path54" fill="#FFFFFF" d="M0,0c-30.631,22.136-66.38,35.396-102.609,42.101
						c-67.735,12.463-137.734-4.058-197.689-38.01c-35.604-20.486-68.696-46.014-98.369-74.953c-4.61-4.746,1.872-11.68,6.344-7.529
						c36.283,33.969,76.674,63.338,121.181,83.38c51.847,23.637,110.345,32.85,166.07,21.732
						C-71.378,19.892-38.123,7.01-9.849-13.915C-0.812-20.961,8.773-7.192,0,0"/>
				</g>
				<g id="g56" transform="translate(364.2266,334.8018)">
					<path id="path58" fill="#FFFFFF" d="M0,0c13.645,3.03,22.445-4.857,21.231-14.564c-1.816-6.978-10.014-13.344-21.532-11.529
						C-13.656-23.664-14.87-10.315-4.857-3.336C-3.342-1.821-1.827-0.607,0,0"/>
				</g>
				<g id="g60" transform="translate(369.1597,299.4775)">
					<path id="path62" fill="#FFFFFF" d="M0,0h-0.301H0z"/>
				</g>
				<g id="g64" transform="translate(928.1299,189.7119)">
					<path id="path66" fill="#FFFFFF" d="M0,0c-3.365,0.434-5.819,2.053-7.318,4.812c-1.455,2.725-1.523,5.723-0.201,8.901
						C7.096,39.549,20.633,66.784,32.571,94.324l3.188,7.364l-19.012-7.66c-1.031-0.385-2.098-0.58-3.086-0.549
						c-3.132,0.098-4.819,2.434-5.698,4.372c-1.11,2.307-0.877,3.965-0.499,4.961c0.544,1.425,1.743,2.513,3.563,3.224l31.672,12.8
						l0.49,1.266c3.997,10.513,7.373,19.769,10.094,27.76c5.142,14.732,8.095,25.171,8.75,31.015
						c0.634,8.897,0.023,14.909-1.698,17.057c-3.565,3.731-9.817,5.653-18.802,5.934c-2.609,0.081-5.596,0.024-9.016-0.208
						c-6.886-0.476-14.515-1.68-22.656-3.581c-8.183-1.905-17.323-4.354-27.173-7.276c-9.962-2.952-17.58-5.02-22.622-6.149
						c-0.91-0.25-1.699-0.342-2.486-0.317c-1.155,0.036-2.243,0.32-3.254,0.848c-1.777,0.902-3.065,2.251-3.787,3.927
						c-0.666,1.525-0.999,3.162-1.011,4.905c-0.034,1.906,0.512,3.604,1.6,5.085c1.077,1.493,2.765,2.526,5.019,3.085
						c14.781,3.431,33.56,7.856,56.325,13.282l7.473,1.989c3.399,0.896,6.197,1.577,8.407,2.054l7.839,1.598
						c3.066,0.595,6.086,0.874,8.985,0.805c2.93-0.086,5.518-0.356,7.996-0.823c9.372-1.975,16.445-6.903,20.966-14.64
						c4.397-7.59,6.408-16.43,5.974-26.269c-0.656-11.992-4.298-27.05-10.839-44.723l-2.586-7.003l12.937,5.209
						c7.573,3.027,13.271,5.277,17.057,6.741c1.089,0.489,2.044,0.688,2.999,0.658c1.321-0.042,2.587-0.521,3.762-1.432
						c1.945-1.531,2.955-3.462,2.999-5.747c0.044-2.402-1.276-4.332-3.698-5.443c-4.952-1.933-12.237-4.847-21.966-8.792
						c-8.528-3.465-15.247-6.134-20.188-8.018l-1.266-0.479l-0.51-1.259c-2.276-5.643-3.987-9.739-5.142-12.309
						C40.767,66.533,25.364,35.107,7.851,4.093C6.452,1.458,4.287,0.039,1.555-0.075L0.933-0.078L0,0z"/>
				</g>
			</g>
		</g>
	</g>
</g>
</svg>
