<?xml version="1.0" encoding="utf-8"?>
<!-- Generator: Adobe Illustrator 16.0.0, SVG Export Plug-In . SVG Version: 6.00 Build 0)  -->
<!DOCTYPE svg PUBLIC "-//W3C//DTD SVG 1.1//EN" "http://www.w3.org/Graphics/SVG/1.1/DTD/svg11.dtd">
<svg version="1.1" id="Layer_1" xmlns="http://www.w3.org/2000/svg" xmlns:xlink="http://www.w3.org/1999/xlink" x="0px" y="0px"
	 width="150px" height="150px" viewBox="0 0 150 150" enable-background="new 0 0 150 150" xml:space="preserve">
<path fill="none" stroke="#010101" stroke-width="4" stroke-linecap="round" stroke-linejoin="round" stroke-miterlimit="10" d="
	M117.139,65.765H32.998L20.015,76.864c-1.166,0.997-1.837,2.454-1.837,3.987v21.157c0,2.897,2.349,5.246,5.246,5.246h103.288
	c2.897,0,5.246-2.349,5.246-5.246V80.852c0-1.533-0.671-2.99-1.837-3.987L117.139,65.765z"/>
<path fill="none" stroke="#010101" stroke-width="4" stroke-linecap="round" stroke-linejoin="round" stroke-miterlimit="10" d="
	M42.202,124.505h-4.245c-5.942,0-10.759-4.816-10.759-10.759v-6.495H52.96v6.495C52.96,119.688,48.144,124.505,42.202,124.505z"/>
<path fill="none" stroke="#010101" stroke-width="4" stroke-linecap="round" stroke-linejoin="round" stroke-miterlimit="10" d="
	M112.18,124.505h-4.245c-5.942,0-10.759-4.816-10.759-10.759v-6.495h25.763v6.495C122.938,119.688,118.121,124.505,112.18,124.505z"
	/>
<path fill="none" stroke="#010101" stroke-width="4" stroke-linecap="round" stroke-linejoin="round" stroke-miterlimit="10" d="
	M117.288,65.765h-84.29l8.42-34.23c0.87-3.55,4.05-6.04,7.7-6.04h52.05c3.65,0,6.83,2.49,7.7,6.04L117.288,65.765z"/>
<path fill="none" stroke="#010101" stroke-width="4" stroke-linecap="round" stroke-linejoin="round" stroke-miterlimit="10" d="
	M46.108,94.793H34.05c-2.567,0-4.648-2.081-4.648-4.647v-7.27c0-2.568,2.081-4.649,4.648-4.649h12.058
	c2.567,0,4.648,2.081,4.648,4.649v7.27C50.756,92.712,48.675,94.793,46.108,94.793z"/>
<path fill="none" stroke="#010101" stroke-width="4" stroke-linecap="round" stroke-linejoin="round" stroke-miterlimit="10" d="
	M116.086,94.793h-12.059c-2.566,0-4.647-2.081-4.647-4.647v-7.27c0-2.568,2.081-4.649,4.647-4.649h12.059
	c2.566,0,4.648,2.081,4.648,4.649v7.27C120.734,92.712,118.652,94.793,116.086,94.793z"/>
<line fill="none" stroke="#010101" stroke-width="4" stroke-linecap="round" stroke-linejoin="round" stroke-miterlimit="10" x1="61.538" y1="82.368" x2="88.598" y2="82.368"/>
<line fill="none" stroke="#010101" stroke-width="4" stroke-linecap="round" stroke-linejoin="round" stroke-miterlimit="10" x1="61.538" y1="90.651" x2="88.598" y2="90.651"/>
<path fill="none" stroke="#010101" stroke-width="4" stroke-linecap="round" stroke-linejoin="round" stroke-miterlimit="10" d="
	M105.458,65.765h-28.91c0-7.98,6.47-14.46,14.45-14.46C98.988,51.305,105.458,57.785,105.458,65.765z"/>
</svg>
