<?xml version="1.0" encoding="utf-8"?>
<!-- Generator: Adobe Illustrator 16.0.0, SVG Export Plug-In . SVG Version: 6.00 Build 0)  -->
<!DOCTYPE svg PUBLIC "-//W3C//DTD SVG 1.1//EN" "http://www.w3.org/Graphics/SVG/1.1/DTD/svg11.dtd">
<svg version="1.1" id="Layer_1" xmlns="http://www.w3.org/2000/svg" xmlns:xlink="http://www.w3.org/1999/xlink" x="0px" y="0px"
	 width="150px" height="150px" viewBox="0 0 150 150" enable-background="new 0 0 150 150" xml:space="preserve">
<rect x="17.958" y="84.778" fill="none" stroke="#010101" stroke-width="4" stroke-linecap="round" stroke-linejoin="round" stroke-miterlimit="10" width="51.037" height="51.037"/>
<polygon fill="none" stroke="#010101" stroke-width="4" stroke-linecap="round" stroke-linejoin="round" stroke-miterlimit="10" points="
	131.742,135.815 68.995,135.815 68.995,33.189 100.369,14.185 131.742,33.189 "/>
<polyline fill="none" stroke="#010101" stroke-width="4" stroke-linecap="round" stroke-linejoin="round" stroke-miterlimit="10" points="
	17.958,84.778 29.328,66.443 68.995,66.443 "/>
<rect x="91.832" y="99.624" fill="none" stroke="#010101" stroke-width="4" stroke-linecap="round" stroke-linejoin="round" stroke-miterlimit="10" width="17.074" height="36.191"/>
<rect x="81.527" y="54.424" fill="none" stroke="#010101" stroke-width="4" stroke-linecap="round" stroke-linejoin="round" stroke-miterlimit="10" width="14.726" height="21.906"/>
<rect x="104.486" y="54.424" fill="none" stroke="#010101" stroke-width="4" stroke-linecap="round" stroke-linejoin="round" stroke-miterlimit="10" width="14.725" height="21.906"/>
<rect x="28.948" y="96.457" fill="none" stroke="#010101" stroke-width="4" stroke-linecap="round" stroke-linejoin="round" stroke-miterlimit="10" width="29.057" height="15.393"/>
<path fill="none" stroke="#010101" stroke-width="4" stroke-linecap="round" stroke-linejoin="round" stroke-miterlimit="10" d="
	M47.165,135.815H17.958c0-8.068,6.539-14.607,14.607-14.607c4.726,0,8.928,2.243,11.593,5.731
	C46.043,129.394,47.165,132.474,47.165,135.815z"/>
<path fill="none" stroke="#010101" stroke-width="4" stroke-linecap="round" stroke-linejoin="round" stroke-miterlimit="10" d="
	M44.157,126.939c1.034-0.394,2.163-0.604,3.335-0.604c5.235,0,9.473,4.245,9.473,9.48h-9.801h-9.153"/>
<polyline fill="none" stroke="#010101" stroke-width="4" stroke-linecap="round" stroke-linejoin="round" stroke-miterlimit="10" points="
	56.966,135.815 47.165,135.815 38.012,135.815 17.958,135.815 "/>
</svg>
