<?xml version="1.0" encoding="utf-8"?>
<!-- Generator: Adobe Illustrator 16.0.0, SVG Export Plug-In . SVG Version: 6.00 Build 0)  -->
<!DOCTYPE svg PUBLIC "-//W3C//DTD SVG 1.1//EN" "http://www.w3.org/Graphics/SVG/1.1/DTD/svg11.dtd">
<svg version="1.1" id="Layer_1" xmlns="http://www.w3.org/2000/svg" xmlns:xlink="http://www.w3.org/1999/xlink" x="0px" y="0px"
	 width="150px" height="150px" viewBox="0 0 150 150" enable-background="new 0 0 150 150" xml:space="preserve">
<path fill="none" stroke="#010101" stroke-width="4" stroke-linecap="round" stroke-linejoin="round" stroke-miterlimit="10" d="
	M67.698,76.891v2.35c0,3.529-0.898,7-2.608,10.088l-3.338,6.021v20.188h2.973c3.284,0,5.946,2.661,5.946,5.945v1.486h-8.919"/>
<path fill="none" stroke="#010101" stroke-width="4" stroke-linecap="round" stroke-linejoin="round" stroke-miterlimit="10" d="
	M19.313,84.035c3.49-4.6,7.76-7.55,11.22-10.46c8.69-7.28,12.88-14.88,14.53-26.4c1.32-9.25,8.32-15.85,17.16-15.85
	c2.85,0,6.49,0.51,9.15,0.9c1.6,0.23,2.89,1.41,3.27,2.99c0.46,1.9,1.19,4.34,2.11,5.35c1.89,2.1,10.18,3.74,12.56,4.18
	c0.35,0.07,0.561,0.41,0.461,0.75l-2.57,9.21c-0.711,2.57-3.051,4.35-5.721,4.35h-10.81"/>
<path fill="none" stroke="#010101" stroke-width="4" stroke-linecap="round" stroke-linejoin="round" stroke-miterlimit="10" d="
	M61.752,41.216c0,13.378,8.919,13.378,8.919,20.81c0,4.459-2.973,8.919-8.919,8.919c-4.905,0-8.919-4.014-8.919-8.919V47.163"/>
<path fill="none" stroke="#010101" stroke-width="4" stroke-linecap="round" stroke-linejoin="round" stroke-miterlimit="10" d="
	M30.553,90.266h5.02c7.84,0,12.86,8.35,9.19,15.27l-5,9.44"/>
<path fill="none" stroke="#010101" stroke-width="4" stroke-linecap="round" stroke-linejoin="round" stroke-miterlimit="10" d="
	M66.906,104.94h2.609c8.628,0,14.15,9.173,10.115,16.799l-2.549,4.815h13.042"/>
<path fill="none" stroke="#010101" stroke-width="4" stroke-linecap="round" stroke-linejoin="round" stroke-miterlimit="10" d="
	M96.152,123.206v-13.921l3.229-3.874c2.845-3.43,4.404-7.74,4.404-12.199v-7.78c0-3.275,2.649-5.924,5.924-5.924h0.008
	c3.161,0,5.844-2.327,6.295-5.461l0.161-1.17c0.188-1.291-0.632-2.509-1.896-2.825l-0.728-0.181
	c-1.318-0.337-2.367-1.345-2.743-2.657l-0.094-0.322c-1.09-3.827-4.58-6.456-8.555-6.456h-0.914v-2.549v-3.813
	c-15.267,6.362-16.537,24.163-16.537,24.163s-9.502,0.759-18.117,7.679"/>
<line fill="none" stroke="#010101" stroke-width="4" stroke-linecap="round" stroke-linejoin="round" stroke-miterlimit="10" x1="101.24" y1="57.888" x2="101.24" y2="62.976"/>
<path fill="none" stroke="#010101" stroke-width="4" stroke-linecap="round" stroke-linejoin="round" stroke-miterlimit="10" d="
	M131.527,27.922v43.073c0,19.493-10.335,37.53-27.146,47.389l-3.545,2.075l-10.713,6.284l-11.177,6.547l-4.308,2.524l-4.308-2.524
	l-17.995-10.548l-4.693-2.746l-2.746-1.612C31.331,110.431,21.979,97.15,18.87,82.079v-0.007c-0.742-3.603-1.127-7.312-1.127-11.077
	V27.922c29.429-1.961,56.896-13.737,56.896-13.737S102.099,25.961,131.527,27.922z"/>
</svg>
