<?xml version="1.0" encoding="utf-8"?>
<!-- Generator: Adobe Illustrator 16.0.0, SVG Export Plug-In . SVG Version: 6.00 Build 0)  -->
<!DOCTYPE svg PUBLIC "-//W3C//DTD SVG 1.1//EN" "http://www.w3.org/Graphics/SVG/1.1/DTD/svg11.dtd">
<svg version="1.1" id="Layer_1" xmlns="http://www.w3.org/2000/svg" xmlns:xlink="http://www.w3.org/1999/xlink" x="0px" y="0px"
	 width="150px" height="150px" viewBox="0 0 150 150" enable-background="new 0 0 150 150" xml:space="preserve">
<g id="g118" transform="translate(393.7209,532.416)">
	
		<path id="path120" fill="none" stroke="#010101" stroke-width="4" stroke-linecap="round" stroke-linejoin="round" stroke-miterlimit="10" d="
		M-310.623-433.585h-64.701l-9.985,8.533c-0.896,0.769-1.412,1.887-1.412,3.067v16.269c0,2.229,1.806,4.035,4.033,4.035h79.426
		c2.229,0,4.035-1.807,4.035-4.035v-16.269c0-1.181-0.516-2.299-1.413-3.067L-310.623-433.585z"/>
</g>
<g id="g122" transform="translate(340.241,490.495)">
	
		<path id="path124" fill="none" stroke="#010101" stroke-width="4" stroke-linecap="round" stroke-linejoin="round" stroke-miterlimit="10" d="
		M-314.768-346.495h-3.265c-4.569,0-8.273-3.705-8.273-8.272v-4.996h19.811v4.996C-306.495-350.2-310.198-346.495-314.768-346.495z"
		/>
</g>
<g id="g126" transform="translate(390.1821,490.495)">
	
		<path id="path128" fill="none" stroke="#010101" stroke-width="4" stroke-linecap="round" stroke-linejoin="round" stroke-miterlimit="10" d="
		M-310.897-346.495h-3.265c-4.568,0-8.273-3.705-8.273-8.272v-4.996h19.812v4.996C-302.624-350.2-306.327-346.495-310.897-346.495z"
		/>
</g>
<g id="g130" transform="translate(393.8279,532.416)">
	
		<path id="path132" fill="none" stroke="#010101" stroke-width="4" stroke-linecap="round" stroke-linejoin="round" stroke-miterlimit="10" d="
		M-310.615-433.585h-64.816l6.475-26.324c0.669-2.73,3.114-4.645,5.92-4.645h40.027c2.806,0,5.252,1.914,5.92,4.645
		L-310.615-433.585z"/>
</g>
<g id="g134" transform="translate(343.0289,511.6996)">
	
		<path id="path136" fill="none" stroke="#010101" stroke-width="4" stroke-linecap="round" stroke-linejoin="round" stroke-miterlimit="10" d="
		M-314.551-390.547h-9.272c-1.975,0-3.575-1.601-3.575-3.574v-5.591c0-1.974,1.6-3.575,3.575-3.575h9.272
		c1.974,0,3.574,1.602,3.574,3.575v5.591C-310.977-392.148-312.577-390.547-314.551-390.547z"/>
</g>
<g id="g138" transform="translate(392.9699,511.6996)">
	
		<path id="path140" fill="none" stroke="#010101" stroke-width="4" stroke-linecap="round" stroke-linejoin="round" stroke-miterlimit="10" d="
		M-310.681-390.547h-9.272c-1.974,0-3.575-1.601-3.575-3.574v-5.591c0-1.974,1.601-3.575,3.575-3.575h9.272
		c1.974,0,3.574,1.602,3.574,3.575v5.591C-307.107-392.148-308.707-390.547-310.681-390.547z"/>
</g>
<g id="g142" transform="translate(354.0406,520.5666)">
	
		<path id="path144" fill="none" stroke="#010101" stroke-width="4" stroke-linecap="round" stroke-linejoin="round" stroke-miterlimit="10" d="
		M-313.698-408.969h20.809"/>
</g>
<g id="g146" transform="translate(354.0406,514.6553)">
	
		<path id="path148" fill="none" stroke="#010101" stroke-width="4" stroke-linecap="round" stroke-linejoin="round" stroke-miterlimit="10" d="
		M-313.698-396.688h20.809"/>
</g>
<g id="g150" transform="translate(385.3852,532.416)">
	
		<path id="path152" fill="none" stroke="#010101" stroke-width="4" stroke-linecap="round" stroke-linejoin="round" stroke-miterlimit="10" d="
		M-311.269-433.585h-22.23c0-6.138,4.974-11.121,11.111-11.121C-316.244-444.706-311.269-439.723-311.269-433.585z"/>
</g>
<g id="g154" transform="translate(365.55,561.16)">
	
		<path id="path156" fill="none" stroke="#010101" stroke-width="4" stroke-linecap="round" stroke-linejoin="round" stroke-miterlimit="10" d="
		M-312.806-493.302v-13.577c0-1.174,0.517-2.295,1.411-3.06l9.978-8.534h33.489h22.239h8.976l9.988,8.534
		c0.895,0.765,1.412,1.886,1.412,3.06v16.271c0,2.23-1.811,4.041-4.041,4.041h-2.898h-19.815h-36.236"/>
</g>
<g id="g158" transform="translate(432.6329,542.6019)">
	
		<path id="path160" fill="none" stroke="#010101" stroke-width="4" stroke-linecap="round" stroke-linejoin="round" stroke-miterlimit="10" d="
		M-307.608-454.746h-3.265c-4.568,0-8.272-3.705-8.272-8.273v-4.995h19.811v4.995C-299.334-458.452-303.037-454.746-307.608-454.746
		z"/>
</g>
<g id="g162" transform="translate(436.2787,584.5229)">
	
		<path id="path164" fill="none" stroke="#010101" stroke-width="4" stroke-linecap="round" stroke-linejoin="round" stroke-miterlimit="10" d="
		M-307.325-541.839h-64.817l6.475-26.321c0.669-2.73,3.114-4.645,5.922-4.645h40.025c2.808,0,5.253,1.915,5.922,4.645
		L-307.325-541.839z"/>
</g>
<g id="g166" transform="translate(385.4797,563.8065)">
	
		<path id="path168" fill="none" stroke="#010101" stroke-width="4" stroke-linecap="round" stroke-linejoin="round" stroke-miterlimit="10" d="
		M-311.261-498.8h-9.271c-1.976,0-3.576-1.6-3.576-3.575v-5.589c0-1.974,1.601-3.575,3.576-3.575h9.271
		c1.974,0,3.575,1.601,3.575,3.575v5.589C-307.687-500.399-309.287-498.8-311.261-498.8z"/>
</g>
<g id="g170" transform="translate(435.4207,563.8065)">
	
		<path id="path172" fill="none" stroke="#010101" stroke-width="4" stroke-linecap="round" stroke-linejoin="round" stroke-miterlimit="10" d="
		M-307.391-498.8h-9.271c-1.976,0-3.575-1.6-3.575-3.575v-5.589c0-1.974,1.6-3.575,3.575-3.575h9.271
		c1.975,0,3.574,1.601,3.574,3.575v5.589C-303.817-500.399-305.417-498.8-307.391-498.8z"/>
</g>
<g id="g174" transform="translate(396.4915,572.6735)">
	
		<path id="path176" fill="none" stroke="#010101" stroke-width="4" stroke-linecap="round" stroke-linejoin="round" stroke-miterlimit="10" d="
		M-310.408-517.221h20.809"/>
</g>
<g id="g178" transform="translate(396.4915,566.7621)">
	
		<path id="path180" fill="none" stroke="#010101" stroke-width="4" stroke-linecap="round" stroke-linejoin="round" stroke-miterlimit="10" d="
		M-310.408-504.94h20.809"/>
</g>
<g id="g182" transform="translate(427.836,584.5229)">
	
		<path id="path184" fill="none" stroke="#010101" stroke-width="4" stroke-linecap="round" stroke-linejoin="round" stroke-miterlimit="10" d="
		M-307.979-541.839h-22.231c0-6.136,4.976-11.119,11.11-11.119C-312.954-552.958-307.979-547.975-307.979-541.839z"/>
</g>
</svg>
