<?xml version="1.0" encoding="utf-8"?>
<!-- Generator: Adobe Illustrator 16.0.0, SVG Export Plug-In . SVG Version: 6.00 Build 0)  -->
<!DOCTYPE svg PUBLIC "-//W3C//DTD SVG 1.1//EN" "http://www.w3.org/Graphics/SVG/1.1/DTD/svg11.dtd">
<svg version="1.1" id="Layer_1" xmlns="http://www.w3.org/2000/svg" xmlns:xlink="http://www.w3.org/1999/xlink" x="0px" y="0px"
	 width="150px" height="150px" viewBox="0 0 150 150" enable-background="new 0 0 150 150" xml:space="preserve">
<polyline fill="none" stroke="#010101" stroke-width="4" stroke-linecap="round" stroke-linejoin="round" stroke-miterlimit="10" points="
	65.373,120.142 46.805,128.104 46.805,121.401 62.461,107.584 62.471,107.573 "/>
<polyline fill="none" stroke="#010101" stroke-width="4" stroke-linecap="round" stroke-linejoin="round" stroke-miterlimit="10" points="
	86.431,107.47 102.251,121.401 102.251,128.104 83.528,120.1 "/>
<path fill="none" stroke="#010101" stroke-width="4" stroke-linecap="round" stroke-linejoin="round" stroke-miterlimit="10" d="
	M62.43,101.966V84.564V60.017V43.793c0-6.258,1.65-12.32,4.672-17.174l7.338-11.794l7.34,11.794
	c3.021,4.854,4.672,10.916,4.672,17.174v16.224v24.548v17.401"/>
<path fill="none" stroke="#010101" stroke-width="4" stroke-linecap="round" stroke-linejoin="round" stroke-miterlimit="10" d="
	M86.451,58.403v7.033v24.547v16.225c0,6.259-1.65,12.32-4.672,17.175l-7.338,11.793l-7.34-11.793
	c-3.021-4.854-4.672-10.916-4.672-17.175V89.982V65.436v-7.033"/>
<polygon fill="none" stroke="#010101" stroke-width="4" stroke-linecap="round" stroke-linejoin="round" stroke-miterlimit="10" points="
	19.313,75.319 62.431,58.403 62.431,80.622 19.313,84.566 "/>
<polygon fill="none" stroke="#010101" stroke-width="4" stroke-linecap="round" stroke-linejoin="round" stroke-miterlimit="10" points="
	129.568,75.319 86.451,58.403 86.451,80.622 129.568,84.566 "/>
<line fill="none" stroke="#010101" stroke-width="4" stroke-linecap="round" stroke-linejoin="round" stroke-miterlimit="10" x1="27.225" y1="92.845" x2="27.225" y2="102.134"/>
<line fill="none" stroke="#010101" stroke-width="4" stroke-linecap="round" stroke-linejoin="round" stroke-miterlimit="10" x1="43.016" y1="92.845" x2="43.016" y2="104.892"/>
<line fill="none" stroke="#010101" stroke-width="4" stroke-linecap="round" stroke-linejoin="round" stroke-miterlimit="10" x1="119.531" y1="92.845" x2="119.531" y2="102.134"/>
<line fill="none" stroke="#010101" stroke-width="4" stroke-linecap="round" stroke-linejoin="round" stroke-miterlimit="10" x1="103.741" y1="92.845" x2="103.741" y2="104.892"/>
<line fill="none" stroke="#010101" stroke-width="4" stroke-linecap="round" stroke-linejoin="round" stroke-miterlimit="10" x1="74.44" y1="73.984" x2="74.44" y2="107.471"/>
<line fill="none" stroke="#010101" stroke-width="4" stroke-linecap="round" stroke-linejoin="round" stroke-miterlimit="10" x1="74.44" y1="64.247" x2="74.44" y2="66.729"/>
</svg>
