<?xml version="1.0" encoding="utf-8"?>
<!-- Generator: Adobe Illustrator 16.0.0, SVG Export Plug-In . SVG Version: 6.00 Build 0)  -->
<!DOCTYPE svg PUBLIC "-//W3C//DTD SVG 1.1//EN" "http://www.w3.org/Graphics/SVG/1.1/DTD/svg11.dtd">
<svg version="1.1" id="Layer_1" xmlns="http://www.w3.org/2000/svg" xmlns:xlink="http://www.w3.org/1999/xlink" x="0px" y="0px"
	 width="150px" height="150px" viewBox="0 0 150 150" enable-background="new 0 0 150 150" xml:space="preserve">
<path fill="none" stroke="#010101" stroke-width="4" stroke-linecap="round" stroke-linejoin="round" stroke-miterlimit="10" d="
	M77.269,115.573h6.673c6.371,0,12.596-1.912,17.866-5.489l2.016-1.367c1.77-1.201,2.37-3.569,1.308-5.426
	c0,0-0.07-0.068-0.199-0.188c-3.07-2.839-7.432-3.68-11.432-2.459c-7.676,2.342-13.938-0.554-13.938-0.554
	c-15.943-10.003-30.854-8.23-42.104-0.22"/>
<path fill="none" stroke="#010101" stroke-width="4" stroke-linecap="round" stroke-linejoin="round" stroke-miterlimit="10" d="
	M106.033,102.908l9.927-3.976c1.784-0.714,3.63-1.274,5.522-1.612c1.73-0.311,3.669-0.475,4.994-0.05
	c2.597,0.833,4.513,3.04,4.81,5.751c0.194,1.771-0.688,3.484-2.24,4.356l-30.035,16.868c-6.169,3.255-13.108,4.814-20.072,4.419
	c-26.392-1.503-41.479-3.088-41.479-3.088"/>
<path fill="none" stroke="#010101" stroke-width="4" stroke-linecap="round" stroke-linejoin="round" stroke-miterlimit="10" d="
	M17.527,136.372h16.319c1.771,0,3.206-1.436,3.206-3.206V91.12c0-1.771-1.435-3.205-3.206-3.205H17.527V136.372z"/>
<path fill="none" stroke="#010101" stroke-width="4" stroke-linecap="round" stroke-linejoin="round" stroke-miterlimit="10" d="
	M94.428,13.628c-11.048,0-20.007,8.959-20.007,20.006c-0.001-11.047-8.96-20.006-20.008-20.006c-0.308,0-0.612,0.007-0.916,0.021
	c-14.271,0.643-20.85,18.17-10.893,28.414L74.42,74.796l31.815-32.733c9.957-10.244,3.379-27.771-10.892-28.414
	C95.04,13.635,94.734,13.628,94.428,13.628z"/>
</svg>
