<?xml version="1.0" encoding="UTF-8" standalone="no"?>
<svg
   xmlns:dc="http://purl.org/dc/elements/1.1/"
   xmlns:cc="http://creativecommons.org/ns#"
   xmlns:rdf="http://www.w3.org/1999/02/22-rdf-syntax-ns#"
   xmlns:svg="http://www.w3.org/2000/svg"
   xmlns="http://www.w3.org/2000/svg"
   xmlns:sodipodi="http://sodipodi.sourceforge.net/DTD/sodipodi-0.dtd"
   xmlns:inkscape="http://www.inkscape.org/namespaces/inkscape"
   version="1.1"
   id="svg2"
   xml:space="preserve"
   width="1066.6667"
   height="1066.6667"
   viewBox="0 0 1066.6667 1066.6667"
   sodipodi:docname="01.ai"><metadata
     id="metadata8"><rdf:RDF><cc:Work
         rdf:about=""><dc:format>image/svg+xml</dc:format><dc:type
           rdf:resource="http://purl.org/dc/dcmitype/StillImage" /></cc:Work></rdf:RDF></metadata><defs
     id="defs6"><clipPath
       clipPathUnits="userSpaceOnUse"
       id="clipPath18"><path
         d="M 0,800 H 800 V 0 H 0 Z"
         id="path16" /></clipPath></defs><sodipodi:namedview
     pagecolor="#ffffff"
     bordercolor="#666666"
     borderopacity="1"
     objecttolerance="10"
     gridtolerance="10"
     guidetolerance="10"
     inkscape:pageopacity="0"
     inkscape:pageshadow="2"
     inkscape:window-width="640"
     inkscape:window-height="480"
     id="namedview4" /><g
     id="g10"
     inkscape:groupmode="layer"
     inkscape:label="01"
     transform="matrix(1.3333333,0,0,-1.3333333,0,1066.6667)"><g
       id="g12"><g
         id="g14"
         clip-path="url(#clipPath18)"><g
           id="g20"
           transform="translate(617.828,237.125)"><path
             d="m 0,0 c -0.001,-0.001 -0.001,-0.001 -0.002,-0.002 -35.642,-60.631 -98.844,-99.171 -169.064,-103.094 -0.109,-0.006 -0.214,-0.025 -0.322,-0.034 -0.109,-0.01 -0.216,-0.01 -0.325,-0.023 l -4.776,-0.58 c -0.037,-0.005 -0.073,-0.014 -0.109,-0.019 -0.039,-0.005 -0.076,-0.005 -0.115,-0.011 -42.392,-6.122 -86.145,2.342 -123.202,23.831 -0.183,0.106 -0.371,0.193 -0.558,0.287 l -17.186,9.517 c -0.104,0.058 -0.21,0.114 -0.317,0.168 l -17.883,9.078 c -0.098,0.05 -0.197,0.099 -0.297,0.145 l -18.288,8.535 c -0.102,0.047 -0.203,0.092 -0.306,0.136 l -12.486,5.325 V 58.624 l 1.52,0.036 11.04,-0.26 10.971,-0.784 11.049,-1.17 10.904,-1.817 10.882,-2.229 10.635,-2.594 10.51,-3.243 10.484,-3.67 10.308,-4.044 10.083,-4.525 9.742,-5.066 9.682,-5.495 9.394,-5.872 9.309,-6.382 c 0.162,-0.111 0.328,-0.211 0.494,-0.312 0.035,-0.021 0.066,-0.045 0.102,-0.066 0.015,-0.009 0.031,-0.018 0.047,-0.027 0.011,-0.007 0.022,-0.013 0.034,-0.02 11.273,-6.602 23.286,-11.746 35.761,-15.36 0.005,-0.001 0.011,-0.003 0.017,-0.005 14.334,-4.151 29.277,-6.283 44.404,-6.283 0.987,0 1.979,0.011 2.968,0.029 h 0.002 c 0.023,0 0.047,0 0.071,0 0.14,-0.009 0.282,-0.026 0.424,-0.04 0.362,-0.035 0.804,-0.078 1.306,-0.106 l 9.253,-0.66 8.915,-0.905 5.671,-0.904 c 0.027,-0.005 0.053,-0.008 0.079,-0.013 l 3.094,-0.493 8.361,-1.721 c 3.33,-1.167 5.927,-3.708 7.214,-6.958 0.025,-0.06 0.045,-0.122 0.071,-0.182 0.292,-0.771 0.512,-1.58 0.649,-2.419 0.754,-4.601 -1.12,-9.165 -4.891,-11.913 0,0 0,0 0,-0.001 -10e-4,0 -10e-4,0 -10e-4,0 -1.429,-1.042 -2.847,-1.599 -4.332,-1.703 l -45.399,-2.837 -45.056,-2.288 c -11.452,-0.061 -22.862,2.19 -33.882,6.697 -5.108,2.09 -10.946,-0.358 -13.037,-5.468 -2.089,-5.11 0.359,-10.946 5.469,-13.036 13.288,-5.434 27.075,-8.188 40.993,-8.188 0.228,0 0.455,0.001 0.683,0.003 0.001,0 0.003,-10e-4 0.005,-10e-4 0.004,0 0.009,10e-4 0.013,10e-4 0.023,0 0.046,0 0.068,0 0.015,0 0.03,0.002 0.044,0.002 0.131,0.002 0.26,0.004 0.39,0.01 l 45.382,2.305 c 0.039,0.002 0.078,0.004 0.117,0.006 l 45.52,2.845 c 0.01,0 0.018,0.002 0.027,0.003 0.013,0.001 0.027,0 0.041,0.001 5.275,0.366 10.23,2.213 14.728,5.491 l 0.002,10e-4 c 0,0 0,0 0.001,10e-4 9.902,7.217 14.824,19.21 12.844,31.298 -0.023,0.139 -0.05,0.276 -0.075,0.415 16.775,16.516 37.558,28.286 60.438,34.164 3.314,0.852 6.971,-0.476 9.101,-3.303 C 1.528,6.752 1.761,2.996 0,0 m -88.382,2.991 2.756,2.603 2.821,2.517 2.877,2.443 2.977,2.392 2.958,2.257 3.102,2.187 3.147,2.148 3.158,2.006 3.248,1.928 3.299,1.852 3.362,1.758 3.375,1.674 3.455,1.575 3.461,1.492 3.512,1.363 3.577,1.304 3.563,1.187 3.614,1.087 3.783,1.024 c 0.012,0.004 0.024,0.009 0.037,0.013 0.019,0.005 0.037,0.008 0.056,0.013 l 4.172,1.173 c 3.471,0.877 7.17,-0.338 9.434,-3.1 0.665,-0.812 1.318,-1.809 1.76,-2.95 -1.266,-0.148 -2.532,-0.378 -3.792,-0.702 -24.46,-6.285 -46.836,-18.427 -65.361,-35.367 -2.554,2.346 -5.501,4.286 -8.758,5.715 z m -296.846,-67.803 h -53.841 V 72.711 c 0,0.014 0.003,0.027 0.003,0.041 h 53.707 c 0.017,-0.418 0.066,-0.828 0.131,-1.232 z M 9.548,27.41 c 0.735,7.379 -1.559,14.848 -6.724,21.15 -7.184,8.764 -18.925,12.603 -29.911,9.782 -0.038,-0.01 -0.072,-0.024 -0.11,-0.034 -0.036,-0.01 -0.073,-0.015 -0.109,-0.025 l -4.295,-1.208 -3.878,-1.05 c -0.089,-0.024 -0.178,-0.05 -0.266,-0.076 l -3.888,-1.17 c -0.094,-0.028 -0.188,-0.058 -0.281,-0.089 l -3.834,-1.277 c -0.089,-0.029 -0.176,-0.06 -0.263,-0.092 l -3.807,-1.387 c -0.065,-0.024 -0.131,-0.048 -0.197,-0.074 l -3.779,-1.468 c -0.112,-0.044 -0.224,-0.089 -0.335,-0.137 l -3.725,-1.605 c -0.064,-0.027 -0.128,-0.056 -0.192,-0.085 l -3.697,-1.686 c -0.1,-0.045 -0.198,-0.092 -0.296,-0.14 l -3.617,-1.795 c -0.064,-0.031 -0.126,-0.063 -0.189,-0.096 l -3.589,-1.876 c -0.088,-0.046 -0.176,-0.094 -0.262,-0.142 l -3.536,-1.985 c -0.071,-0.04 -0.14,-0.08 -0.21,-0.122 l -3.48,-2.066 c -0.086,-0.051 -0.17,-0.103 -0.254,-0.157 l -3.426,-2.175 c -0.093,-0.059 -0.186,-0.12 -0.277,-0.182 l -3.346,-2.284 c -0.042,-0.029 -0.083,-0.058 -0.125,-0.087 l -3.316,-2.338 c -0.102,-0.072 -0.203,-0.146 -0.302,-0.222 l -3.208,-2.447 c -0.067,-0.051 -0.133,-0.102 -0.199,-0.155 l -3.181,-2.556 c -0.071,-0.057 -0.142,-0.116 -0.212,-0.175 l -3.072,-2.61 c -0.061,-0.052 -0.122,-0.105 -0.182,-0.158 l -3.018,-2.692 c -0.072,-0.064 -0.143,-0.129 -0.212,-0.195 l -2.964,-2.8 c -0.068,-0.065 -0.136,-0.131 -0.203,-0.198 l -2.855,-2.855 c -0.066,-0.066 -0.132,-0.134 -0.196,-0.202 l -2.801,-2.964 c -0.066,-0.069 -0.131,-0.14 -0.195,-0.212 l -2.692,-3.018 c -0.054,-0.061 -0.107,-0.122 -0.16,-0.183 l -0.275,-0.325 -0.466,0.074 c -0.188,0.031 -0.376,0.055 -0.564,0.074 l -9.347,0.948 c -0.1,0.01 -0.199,0.019 -0.298,0.026 l -9.484,0.677 c -0.039,0.003 -0.077,10e-4 -0.117,0.003 -0.035,0.002 -0.069,0.008 -0.104,0.01 -0.155,0.008 -0.311,0.027 -0.467,0.042 -0.609,0.06 -1.431,0.138 -2.394,0.134 -0.018,0 -0.035,0.002 -0.053,0.002 -0.059,0 -0.118,0 -0.177,-0.002 h -0.016 c -10e-4,0 -0.002,0 -0.003,0 h -0.004 c -11.524,-0.223 -22.935,0.966 -33.995,3.498 l -19.973,6.189 c -6.432,2.542 -12.677,5.572 -18.683,9.075 l -9.163,6.283 c -0.117,0.08 -0.235,0.157 -0.355,0.232 l -9.753,6.096 c -0.121,0.075 -0.242,0.147 -0.364,0.217 l -10.026,5.69 c -0.106,0.06 -0.213,0.119 -0.322,0.175 l -10.161,5.284 c -0.17,0.088 -0.343,0.172 -0.519,0.251 l -10.565,4.742 c -0.146,0.065 -0.294,0.127 -0.442,0.185 l -10.704,4.2 c -0.115,0.045 -0.231,0.088 -0.348,0.129 l -10.837,3.793 c -0.118,0.041 -0.236,0.08 -0.355,0.117 l -10.974,3.387 c -0.191,0.059 -0.384,0.112 -0.579,0.159 l -11.108,2.71 c -0.121,0.03 -0.242,0.057 -0.363,0.082 l -11.245,2.302 c -0.12,0.025 -0.241,0.047 -0.362,0.068 l -11.38,1.896 c -0.197,0.033 -0.394,0.06 -0.591,0.081 l -11.515,1.219 c -0.114,0.012 -0.227,0.022 -0.341,0.03 l -11.379,0.813 c -0.159,0.012 -0.319,0.019 -0.478,0.023 l -11.514,0.271 c -0.156,0.003 -0.314,0.003 -0.47,0 l -2.252,-0.053 c -2.435,8.131 -9.956,14.081 -18.851,14.141 -0.023,0.001 -0.045,0.004 -0.068,0.004 h -54.19 c -0.011,0 -0.022,-0.002 -0.033,-0.002 -0.012,0 -0.023,0.002 -0.034,0.002 -10.852,0 -19.682,-8.92 -19.682,-19.885 V -64.918 c 0,-0.022 0.004,-0.044 0.004,-0.066 0.072,-10.941 8.9,-19.82 19.745,-19.82 h 54.19 c 9.796,0 17.954,7.121 19.585,16.458 l 4.79,-2.043 17.986,-8.394 17.575,-8.922 17.454,-9.665 c 0.137,-0.076 0.275,-0.144 0.414,-0.213 32.096,-18.464 68.688,-28.111 105.525,-28.111 9.929,0 19.882,0.703 29.762,2.121 l 4.448,0.54 c 37.522,2.158 74.304,13.632 106.393,33.2 32.194,19.631 59.313,47.191 78.423,79.699 0.001,0.002 0.002,0.004 0.003,0.006 5.866,9.982 5.137,22.433 -1.859,31.722 -1.692,2.248 -3.662,4.193 -5.829,5.816
			 m 0,0 c -1.987,0 -3.604,1.617 -3.604,3.604 0,1.988 1.617,3.604 3.604,3.604 1.988,0 3.605,-1.616 3.605,-3.604 C 3.605,1.617 1.988,0 0,0 m 0,22.354 c -10.339,0 -18.75,-8.411 -18.75,-18.75 0,-10.338 8.411,-18.749 18.75,-18.749 10.339,0 18.75,8.411 18.75,18.749 0,10.339 -8.411,18.75 -18.75,18.75"
             style="fill:#6e6e6e;fill-opacity:1;fill-rule:nonzero;stroke:none"
             id="path22" /></g><g
           id="g24"
           transform="translate(208.5001,282.3416)"><path
             d="m 0,0 c -1.987,0 -3.604,1.617 -3.604,3.604 0,1.988 1.617,3.604 3.604,3.604 1.988,0 3.605,-1.616 3.605,-3.604 C 3.605,1.617 1.988,0 0,0 m 0,22.354 c -10.339,0 -18.75,-8.411 -18.75,-18.75 0,-10.338 8.411,-18.749 18.75,-18.749 10.339,0 18.75,8.411 18.75,18.749 0,10.339 -8.411,18.75 -18.75,18.75"
             style="fill:#6e6e6e;fill-opacity:1;fill-rule:nonzero;stroke:none"
             id="path26" /></g><g
           id="g28"
           transform="translate(421.2033,619.3513)"><path
             d="m 0,0 -116.32,-111.387 v -0.206 l -21.512,-20.596 -18.207,17.442 L 0,34.388 86.928,-48.54 V 1.406 h 31.619 v -80.247 l 37.493,-35.906 -18.215,-17.442 -21.505,20.596 v 0.206 z m 149.757,-211.851 c 0.23,-13.064 -3.042,-27.782 -9.4,-41.685 -8.248,-18.065 -21.642,-32.733 -37.697,-41.312 -29.822,-15.918 -68.658,-12.553 -103.885,8.995 -2.01,1.232 -4.013,2.476 -6.016,3.727 -7.794,4.852 -15.856,9.866 -24.441,13.909 -14.818,6.986 -29.505,10.513 -43.737,10.513 -1.568,0 -3.129,-0.043 -4.678,-0.131 -25.25,-1.387 -49.013,-12.746 -68.142,-24.024 3.136,12.597 10.339,26.096 20.541,38.208 5.368,6.37 11.521,12.086 18.289,16.995 l 1.798,1.3 v 110.05 L 0,-12.261 107.611,-115.313 v -129.943 l 6.607,4.006 c 13.244,8.012 24.827,18.625 35.539,29.399 m -11.932,67.606 30.805,29.498 -41.374,39.626 V 10.115 H 78.219 v -38.307 l -78.225,74.623 -168.63,-161.171 30.804,-29.505 21.512,20.597 v -97.292 c -6.632,-5.014 -12.697,-10.755 -18.04,-17.1 -8.118,-9.642 -22.059,-29.238 -24.112,-52.105 l -0.784,-8.715 7.422,4.628 c 19.433,12.118 45.199,26.214 72.216,27.707 14.22,0.784 29.1,-2.438 44.229,-9.573 8.118,-3.82 15.962,-8.703 23.545,-13.425 2.021,-1.256 4.043,-2.519 6.077,-3.763 17.331,-10.6 36.348,-17.325 54.997,-19.44 4.175,-0.473 8.317,-0.709 12.411,-0.709 16.217,0 31.619,3.701 45.118,10.911 17.735,9.462 32.478,25.579 41.523,45.368 8.579,18.786 11.969,39.128 9.288,55.811 l -1.381,8.597 -6.047,-6.258 c -10.357,-10.718 -21.424,-21.772 -33.822,-30.475 v 105.826 z m -189.32,35.01 h 34.774 v -34.767 h -34.774 z m -8.709,-43.476 h 52.192 v 52.185 h -52.192 z m 76.919,43.476 h 34.774 v -34.767 H 16.715 Z m -8.709,-43.476 h 52.191 v 52.185 H 8.006 Z m -59.501,-24.728 h 34.774 v -34.774 h -34.774 z m -8.709,-43.482 h 52.192 v 52.191 h -52.192 z m 76.919,43.482 h 34.774 v -34.774 H 16.715 Z m -8.709,-43.482 h 52.191 v 52.191 H 8.006 Z M 154.509,40.814 c -5.555,-2.974 -12.933,-2.258 -19.726,1.897 -0.448,0.274 -0.895,0.548 -1.337,0.828 -1.81,1.125 -3.683,2.289 -5.76,3.272 -3.758,1.766 -7.503,2.656 -11.16,2.656 -0.411,0 -0.821,-0.013 -1.232,-0.031 -2.333,-0.131 -4.597,-0.585 -6.749,-1.244 2.307,2.332 5.113,4.012 8.211,4.902 3.801,1.094 7.993,1.013 12.111,-0.224 3.478,-1.052 6.713,-2.986 9.475,-4.722 3.017,-1.897 5.66,-3.104 8.304,-3.788 3.702,-0.965 7.409,-0.622 11.011,1.014 1.051,0.472 2.059,1.02 3.023,1.617 -1.524,-2.681 -3.676,-4.846 -6.171,-6.177 m 15.782,26.935 -6.059,-6.264 c -3.11,-3.216 -6.463,-6.5 -10.171,-8.18 -1.766,-0.803 -3.477,-0.97 -5.231,-0.516 -1.755,0.454 -3.615,1.318 -5.854,2.731 -3.241,2.04 -7.079,4.323 -11.595,5.685 -5.723,1.723 -11.614,1.817 -17.026,0.255 -5.251,-1.499 -9.935,-4.553 -13.536,-8.827 -2.06,-2.451 -5.605,-7.465 -6.14,-13.461 l -0.778,-8.709 7.421,4.628 c 3.975,2.476 9.213,5.362 14.451,5.648 2.594,0.137 5.35,-0.466 8.199,-1.81 1.617,-0.759 3.197,-1.742 4.865,-2.781 0.466,-0.292 0.933,-0.578 1.399,-0.864 5.412,-3.31 11.197,-4.996 16.715,-4.996 4.131,0 8.106,0.94 11.664,2.843 4.597,2.451 8.404,6.594 10.718,11.664 1.275,2.799 3.285,8.386 2.327,14.351 z"
             style="fill:#6e6e6e;fill-opacity:1;fill-rule:nonzero;stroke:none"
             id="path30" /></g><g
           id="g32"
           transform="translate(537.7277,670.2548)"><path
             d="m 0,0 c 3.871,0 7.832,-0.941 11.773,-2.795 2.157,-1.02 4.064,-2.208 5.907,-3.356 l 1.328,-0.818 c 6.367,-3.894 13.207,-4.588 18.3,-1.854 h 0.002 c 0.507,0.268 0.997,0.577 1.471,0.918 -2.969,-0.801 -5.989,-0.818 -9.02,-0.028 -2.795,0.723 -5.563,1.983 -8.708,3.961 -2.67,1.681 -5.798,3.557 -9.123,4.566 C 8.07,1.753 4.162,1.838 0.627,0.812 -0.179,0.583 -0.969,0.286 -1.734,-0.062 c 0.143,0.012 0.283,0.017 0.426,0.028 C -0.86,-0.017 -0.429,0 0,0 m 30.428,-13.339 c -4.188,0 -8.666,1.322 -12.916,3.927 l -1.358,0.835 c -1.765,1.098 -3.597,2.235 -5.605,3.188 -3.958,1.86 -7.891,2.672 -11.72,2.487 -2.047,-0.112 -4.204,-0.51 -6.389,-1.182 -0.619,-0.174 -1.311,0.067 -1.647,0.633 -0.342,0.56 -0.255,1.283 0.207,1.748 2.473,2.498 5.529,4.319 8.838,5.272 4.058,1.176 8.532,1.092 12.918,-0.23 3.669,-1.109 6.994,-3.104 9.826,-4.88 2.888,-1.82 5.398,-2.969 7.899,-3.613 3.381,-0.88 6.768,-0.571 10.059,0.93 0.997,0.448 1.95,0.964 2.86,1.529 0.554,0.348 1.277,0.275 1.751,-0.179 0.473,-0.459 0.577,-1.176 0.252,-1.742 -1.67,-2.941 -4,-5.272 -6.743,-6.74 -2.478,-1.327 -5.282,-1.983 -8.232,-1.983 m -30.47,4.628 c 2.605,0 5.325,-0.656 8.101,-1.961 1.731,-0.818 3.4,-1.86 5.014,-2.868 l 1.123,-0.695 c 9.392,-5.748 19.442,-6.426 27.218,-2.269 4.322,2.303 7.905,6.202 10.089,10.991 1.213,2.661 3.112,7.95 2.216,13.524 L 52.8,13.787 48.739,9.585 C 45.529,6.263 42.064,2.874 38.128,1.098 36.055,0.157 34.033,-0.028 31.941,0.499 30.033,0.992 28.044,1.916 25.686,3.401 22.532,5.389 18.801,7.613 14.442,8.93 8.977,10.566 3.367,10.655 -1.773,9.176 -6.753,7.759 -11.19,4.863 -14.608,0.807 c -1.955,-2.331 -5.311,-7.076 -5.809,-12.667 l -0.524,-5.843 4.98,3.104 c 4.132,2.577 9.583,5.568 15.132,5.871 0.26,0.011 0.524,0.017 0.787,0.017 M 30.425,-22.05 c -5.854,0 -11.893,1.798 -17.462,5.21 l -1.411,0.868 c -1.541,0.964 -3.138,1.961 -4.715,2.701 -2.624,1.238 -5.159,1.787 -7.515,1.675 -4.893,-0.264 -9.927,-3.042 -13.764,-5.435 l -7.423,-4.627 c -0.462,-0.291 -1.048,-0.286 -1.51,-0.006 -0.465,0.286 -0.726,0.807 -0.678,1.351 l 0.779,8.711 c 0.568,6.37 4.297,11.664 6.47,14.257 3.79,4.493 8.714,7.703 14.241,9.278 5.658,1.641 11.826,1.546 17.832,-0.258 4.703,-1.417 8.633,-3.759 11.946,-5.843 2.101,-1.328 3.832,-2.135 5.448,-2.555 1.449,-0.386 2.81,-0.235 4.278,0.432 3.481,1.574 6.719,4.75 9.736,7.871 l 6.059,6.263 c 0.375,0.392 0.941,0.532 1.462,0.37 0.518,-0.163 0.899,-0.605 0.986,-1.143 l 1.37,-8.605 C 57.568,2.151 55.461,-3.748 54.114,-6.7 c -2.445,-5.361 -6.476,-9.742 -11.347,-12.336 -3.74,-2 -7.891,-3.014 -12.342,-3.014 m -263.27,-140.446 h 0.036 z m -37.644,-3.154 16.134,-15.462 20.221,19.367 c 0.073,0.196 0.174,0.375 0.297,0.493 l 116.321,111.387 c 0.554,0.527 1.428,0.527 1.983,0 L 0.787,-161.252 c 0.163,-0.157 0.283,-0.342 0.359,-0.549 l 20.156,-19.311 16.14,15.462 -36.411,34.868 c -0.283,0.269 -0.443,0.644 -0.443,1.036 v 78.817 h -28.75 v -48.515 c 0,-0.571 -0.342,-1.092 -0.871,-1.316 -0.524,-0.224 -1.14,-0.118 -1.552,0.28 l -85.94,81.982 z m 291.791,-18.879 c -0.358,0 -0.714,0.134 -0.991,0.397 l -21.507,20.599 c -0.163,0.157 -0.283,0.342 -0.359,0.549 l -114.97,110.1 -115.032,-110.156 c -0.073,-0.196 -0.173,-0.375 -0.297,-0.493 l -21.509,-20.599 c -0.555,-0.526 -1.429,-0.526 -1.983,0 l -18.21,17.445 c -0.283,0.269 -0.443,0.645 -0.443,1.037 0,0.392 0.16,0.767 0.443,1.036 l 156.04,149.135 c 0.554,0.527 1.425,0.527 1.98,0 l 84.506,-80.615 v 46.599 c 0,0.79 0.641,1.434 1.434,1.434 H 2.022 c 0.793,0 1.434,-0.644 1.434,-1.434 v -79.64 l 37.05,-35.479 c 0.283,-0.269 0.443,-0.644 0.443,-1.036 0,-0.392 -0.16,-0.768 -0.443,-1.037 l -18.212,-17.445 c -0.278,-0.263 -0.633,-0.397 -0.992,-0.397 m -187.888,-8.941 h 31.907 v 31.899 h -31.907 z m 33.342,-2.869 h -34.776 c -0.793,0 -1.434,0.645 -1.434,1.434 v 34.767 c 0,0.79 0.641,1.435 1.434,1.435 h 34.776 c 0.792,0 1.434,-0.645 1.434,-1.435 v -34.767 c 0,-0.789 -0.642,-1.434 -1.434,-1.434 m 34.87,2.869 h 31.904 v 31.899 h -31.904 z m 33.339,-2.869 h -34.773 c -0.793,0 -1.434,0.645 -1.434,1.434 v 34.767 c 0,0.79 0.641,1.435 1.434,1.435 h 34.773 c 0.792,0 1.434,-0.645 1.434,-1.435 v -34.767 c 0,-0.789 -0.642,-1.434 -1.434,-1.434 m -110.259,-5.843 h 49.324 v 49.316 h -49.324 z m 50.758,-2.868 h -52.192 c -0.793,0 -1.435,0.644 -1.435,1.434 v 52.184 c 0,0.79 0.642,1.434 1.435,1.434 h 52.192 c 0.793,0 1.434,-0.644 1.434,-1.434 v -52.184 c 0,-0.79 -0.641,-1.434 -1.434,-1.434 m 17.451,2.868 h 49.324 v 49.316 h -49.324 z m 50.758,-2.868 h -52.192 c -0.793,0 -1.435,0.644 -1.435,1.434 v 52.184 c 0,0.79 0.642,1.434 1.435,1.434 h 52.192 c 0.793,0 1.434,-0.644 1.434,-1.434 v -52.184 c 0,-0.79 -0.641,-1.434 -1.434,-1.434 m -110.259,-56.632 h 31.907 v 31.904 h -31.907 z m 33.342,-2.869 h -34.776 c -0.793,0 -1.434,0.645 -1.434,1.435 v 34.772 c 0,0.79 0.641,1.434 1.434,1.434 h 34.776 c 0.792,0 1.434,-0.644 1.434,-1.434 v -34.772 c 0,-0.79 -0.642,-1.435 -1.434,-1.435 m 34.87,2.869 h 31.904 v 31.904 h -31.904 z m 33.339,-2.869 h -34.773 c -0.793,0 -1.434,0.645 -1.434,1.435 v 34.772 c 0,0.79 0.641,1.434 1.434,1.434 h 34.773 c 0.792,0 1.434,-0.644 1.434,-1.434 v -34.772 c 0,-0.79 -0.642,-1.435 -1.434,-1.435 m -110.259,-5.837 h 49.324 v 49.321 h -49.324 z m 50.758,-2.868 h -52.192 c -0.793,0 -1.435,0.644 -1.435,1.434 v 52.189 c 0,0.79 0.642,1.435 1.435,1.435 h 52.192 c 0.793,0 1.434,-0.645 1.434,-1.435 v -52.189 c 0,-0.79 -0.641,-1.434 -1.434,-1.434 m 17.451,2.868 h 49.324 v 49.321 h -49.324 z m 50.758,-2.868 h -52.192 c -0.793,0 -1.435,0.644 -1.435,1.434 v 52.189 c 0,0.79 0.642,1.435 1.435,1.435 h 52.192 c 0.793,0 1.434,-0.645 1.434,-1.435 v -52.189 c 0,-0.79 -0.641,-1.434 -1.434,-1.434 m -135.617,-33.916 c 14.437,0 29.358,-3.585 44.35,-10.649 8.68,-4.096 16.767,-9.126 24.587,-13.995 2,-1.243 4,-2.487 6.009,-3.719 34.789,-21.277 73.088,-24.628 102.458,-8.953 15.792,8.443 28.957,22.874 37.066,40.644 5.658,12.369 8.896,25.585 9.249,37.613 -9.31,-9.233 -20.405,-19.328 -33.338,-27.148 l -6.608,-4.006 c -0.442,-0.274 -0.997,-0.274 -1.445,-0.022 -0.451,0.252 -0.731,0.734 -0.731,1.249 v 129.331 l -106.178,101.68 -106.178,-101.674 v -109.438 c 0,-0.459 -0.221,-0.891 -0.593,-1.16 l -1.799,-1.299 c -6.663,-4.835 -12.731,-10.476 -18.033,-16.762 -9.07,-10.767 -15.84,-22.812 -19.316,-34.268 16.378,9.422 40.002,21.03 65.744,22.442 1.571,0.089 3.16,0.134 4.756,0.134 m 136.914,-49.949 c -20.731,0 -42.722,6.454 -63.467,19.143 -2.017,1.232 -4.022,2.476 -6.028,3.731 -7.75,4.823 -15.764,9.809 -24.291,13.826 -16.212,7.647 -32.38,11.148 -47.722,10.246 -26.764,-1.462 -51.341,-14.296 -67.497,-23.826 -0.496,-0.28 -1.126,-0.257 -1.586,0.09 -0.462,0.342 -0.675,0.936 -0.535,1.496 3.199,12.857 10.6,26.627 20.835,38.784 5.451,6.465 11.691,12.263 18.543,17.232 l 1.207,0.874 v 109.315 c 0,0.392 0.16,0.767 0.443,1.036 l 107.612,103.046 c 0.554,0.527 1.428,0.527 1.983,0 L -7.921,-165.18 c 0.282,-0.268 0.442,-0.644 0.442,-1.036 v -127.393 l 4.431,2.683 c 13.832,8.364 25.588,19.446 35.263,29.182 0.406,0.415 1.017,0.532 1.552,0.325 0.535,-0.218 0.888,-0.734 0.899,-1.305 0.235,-13.339 -3.151,-28.364 -9.529,-42.308 -8.37,-18.341 -21.983,-33.249 -38.327,-41.988 -12.664,-6.756 -26.927,-10.101 -41.84,-10.101 m -136.911,41.243 c 13.151,0 26.801,-3.299 40.638,-9.826 8.241,-3.882 16.095,-8.773 23.694,-13.507 l 1.476,-0.918 c 1.524,-0.947 3.054,-1.899 4.589,-2.841 17.156,-10.487 35.974,-17.142 54.413,-19.237 20.311,-2.28 40.215,1.243 56.691,10.044 17.451,9.311 31.975,25.188 40.893,44.694 8.468,18.555 11.812,38.594 9.174,54.991 l -0.925,5.77 -4.053,-4.196 c -10.277,-10.638 -21.369,-21.77 -34.03,-30.655 -0.44,-0.302 -1.014,-0.336 -1.485,-0.095 -0.476,0.247 -0.773,0.734 -0.773,1.272 v 105.824 c 0,0.577 0.342,1.093 0.871,1.317 0.521,0.23 1.135,0.118 1.555,-0.28 l 20.515,-19.647 28.731,27.518 -40.294,38.587 c -0.283,0.269 -0.442,0.645 -0.442,1.037 v 83.803 h -46.168 v -36.874 c 0,-0.571 -0.341,-1.092 -0.871,-1.316 -0.524,-0.219 -1.143,-0.118 -1.552,0.28 l -77.236,73.679 -166.555,-159.191 28.73,-27.523 20.518,19.652 c 0.418,0.393 1.028,0.505 1.555,0.281 0.529,-0.225 0.871,-0.74 0.871,-1.317 v -97.293 c 0,-0.448 -0.21,-0.874 -0.569,-1.142 -6.563,-4.964 -12.554,-10.645 -17.806,-16.88 -8.017,-9.518 -21.765,-28.845 -23.781,-51.31 l -0.527,-5.849 4.978,3.104 c 19.576,12.207 45.554,26.414 72.895,27.927 1.42,0.078 2.846,0.117 4.28,0.117 m 137.057,-49.892 c -4.135,0 -8.362,0.241 -12.569,0.717 -18.854,2.14 -38.075,8.93 -55.587,19.641 -1.541,0.941 -3.079,1.893 -4.611,2.851 l -1.473,0.919 c -7.529,4.689 -15.311,9.535 -23.4,13.339 -14.913,7.036 -29.588,10.241 -43.54,9.44 -26.689,-1.468 -52.249,-15.462 -71.534,-27.49 l -7.423,-4.628 c -0.462,-0.291 -1.048,-0.285 -1.51,-0.005 -0.465,0.285 -0.725,0.806 -0.678,1.35 l 0.785,8.717 c 2.086,23.249 16.209,43.12 24.442,52.901 5.238,6.218 11.193,11.893 17.703,16.885 v 93.22 l -19.084,-18.274 c -0.555,-0.527 -1.429,-0.527 -1.983,0 l -30.807,29.506 c -0.282,0.269 -0.442,0.644 -0.442,1.036 0,0.393 0.16,0.768 0.442,1.037 l 168.631,161.174 c 0.555,0.526 1.426,0.526 1.98,0 l 75.803,-72.313 v 34.958 c 0,0.79 0.642,1.434 1.434,1.434 h 49.036 c 0.793,0 1.434,-0.644 1.434,-1.434 v -84.626 l 40.932,-39.199 c 0.283,-0.269 0.443,-0.644 0.443,-1.036 0,-0.392 -0.16,-0.768 -0.443,-1.037 l -30.803,-29.5 c -0.555,-0.527 -1.429,-0.527 -1.983,0 L 1.23,-177.919 v -99.668 c 11.529,8.459 21.795,18.779 31.358,28.678 l 6.044,6.257 c 0.376,0.392 0.947,0.532 1.46,0.37 0.518,-0.162 0.902,-0.605 0.989,-1.137 l 1.38,-8.6 c 2.723,-16.94 -0.7,-37.584 -9.397,-56.637 -9.179,-20.084 -24.151,-36.431 -42.154,-46.039 -13.565,-7.243 -29.402,-11.075 -45.794,-11.075"
             style="fill:#6e6e6e;fill-opacity:1;fill-rule:nonzero;stroke:none"
             id="path34" /></g></g></g></g></svg>
