<?xml version="1.0" encoding="utf-8"?>
<!-- Generator: Adobe Illustrator 16.0.0, SVG Export Plug-In . SVG Version: 6.00 Build 0)  -->
<!DOCTYPE svg PUBLIC "-//W3C//DTD SVG 1.1//EN" "http://www.w3.org/Graphics/SVG/1.1/DTD/svg11.dtd">
<svg version="1.1" id="Layer_1" xmlns="http://www.w3.org/2000/svg" xmlns:xlink="http://www.w3.org/1999/xlink" x="0px" y="0px"
	 width="800px" height="800px" viewBox="0 0 800 800" enable-background="new 0 0 800 800" xml:space="preserve">
<g>
	<defs>
		<rect id="SVGID_1_" width="800" height="800"/>
	</defs>
	<clipPath id="SVGID_2_">
		<use xlink:href="#SVGID_1_"  overflow="visible"/>
	</clipPath>
	<path clip-path="url(#SVGID_2_)" fill="#6D6D6D" d="M639.461,372.953c-0.743,0-1.496-0.081-2.25-0.251
		c-5.51-1.237-8.975-6.707-7.736-12.217c14.554-64.803,16.357-118.067,16.513-136.016L399.666,119.088L153.34,224.471
		c0.103,12.473,0.991,42,6.402,80.446c0.787,5.592-3.108,10.764-8.7,11.551c-5.581,0.789-10.763-3.108-11.551-8.701
		c-7.464-53.027-6.613-88.828-6.573-90.325c0.106-3.994,2.527-7.559,6.199-9.13L395.644,98.564c2.568-1.099,5.474-1.099,8.044,0
		l256.527,109.747c3.673,1.571,6.093,5.136,6.2,9.13c0.068,2.624,1.498,65.227-16.986,147.524
		C648.36,369.722,644.14,372.953,639.461,372.953"/>
	<path clip-path="url(#SVGID_2_)" fill="#6D6D6D" d="M399.666,701.445c-1.476,0-2.952-0.32-4.322-0.959
		c-71.927-33.541-130.665-86.327-174.585-156.89c-2.984-4.795-1.517-11.101,3.278-14.084c4.793-2.989,11.101-1.519,14.084,3.278
		c40.904,65.716,95.236,115.191,161.545,147.114c62.842-30.257,115-76.334,155.071-137.019c3.112-4.713,9.458-6.01,14.169-2.897
		s6.009,9.456,2.898,14.169c-43.103,65.268-99.563,114.499-167.816,146.328C402.616,701.125,401.142,701.445,399.666,701.445"/>
	<path clip-path="url(#SVGID_2_)" fill="#6D6D6D" d="M156.297,356.071c-4.78,0-9.052-3.369-10.018-8.235
		c-2.616-13.166-4.9-26.647-6.789-40.068c-0.787-5.592,3.108-10.764,8.7-11.551c5.594-0.785,10.765,3.108,11.551,8.7
		c1.837,13.043,4.055,26.143,6.596,38.935c1.1,5.539-2.498,10.921-8.037,12.021C157.628,356.007,156.958,356.071,156.297,356.071"/>
	<path clip-path="url(#SVGID_2_)" fill="#6D6D6D" d="M559.898,523.437c-0.119,0-0.239-0.002-0.359-0.002
		c-28.178-0.191-50.947-23.276-50.754-51.459c0.092-13.631,5.501-26.425,15.229-36.021c9.727-9.596,22.578-14.757,36.227-14.737
		c13.633,0.095,26.426,5.503,36.022,15.231c9.598,9.728,14.829,22.593,14.737,36.228c-0.095,13.633-5.503,26.426-15.231,36.023
		C586.125,518.21,573.398,523.435,559.898,523.437 M559.884,441.667c-8.09,0-15.721,3.137-21.509,8.847
		c-5.839,5.759-9.085,13.433-9.14,21.603c-0.116,16.906,13.543,30.752,30.445,30.868c8.244,0.017,15.889-3.085,21.728-8.846
		c5.839-5.759,9.085-13.432,9.141-21.604c0.056-8.17-3.085-15.887-8.845-21.726c-5.761-5.839-13.435-9.085-21.606-9.141
		C560.027,441.669,559.955,441.667,559.884,441.667"/>
	<path clip-path="url(#SVGID_2_)" fill="#6D6D6D" d="M256.286,521.359c-0.118,0-0.236-0.002-0.355-0.002
		c-28.181-0.191-50.95-23.274-50.757-51.457c0.092-13.633,5.501-26.425,15.23-36.021c9.728-9.598,22.603-14.786,36.226-14.737
		c28.18,0.193,50.951,23.278,50.76,51.457C307.197,498.664,284.305,521.357,256.286,521.359 M256.275,439.592
		c-8.09,0-15.722,3.137-21.51,8.847c-5.839,5.759-9.085,13.433-9.141,21.603c-0.116,16.904,13.543,30.75,30.447,30.866
		c0.07,0,0.143,0.001,0.213,0.001c16.809,0,30.54-13.614,30.655-30.448c0.115-16.903-13.544-30.75-30.449-30.866
		C256.418,439.594,256.347,439.592,256.275,439.592"/>
	<path clip-path="url(#SVGID_2_)" fill="#6D6D6D" d="M637.121,488.338h-0.099l-36.306-0.203
		c-5.646-0.032-10.199-4.636-10.168-10.283c0.031-5.626,4.605-10.167,10.224-10.167h0.061l33.022,0.185l0.282-36.773
		c0.061-8.636-5.699-18.887-15.407-27.416c-9.225-8.106-20.545-13.381-28.837-13.438l-54.956-0.41
		c-2.175-0.016-4.288-0.726-6.033-2.025c-46.51-34.651-82.778-59.644-90.256-62.193c-2.019-0.689-10.035-1.876-41.061-2.088
		c-33.842-0.237-77.303,0.772-93.667,1.15l-0.854,0.019c-2.199,0.051-3.839,0.088-4.81,0.107
		c-5.668,3.032-28.279,21.065-67.274,53.653c-1.931,1.615-4.376,2.476-6.909,2.373c-2.867-0.098-10.366-0.334-18.057-0.386
		c-6.694-0.051-12.002,0.052-15.786,0.295c-6.24,0.397-14.547,3.092-14.675,21.847l-0.399,54.061
		c-0.016,2.146,0.807,4.171,2.316,5.698c1.509,1.527,3.524,2.375,5.673,2.387l32.304,0.162c5.648,0.028,10.203,4.629,10.175,10.275
		c-0.028,5.63-4.602,10.174-10.225,10.174h-0.052l-32.305-0.16c-7.62-0.038-14.765-3.045-20.119-8.467
		c-5.354-5.42-8.273-12.602-8.218-20.22l0.399-54.056c0.253-37.096,25.955-41.611,33.827-42.11
		c4.259-0.272,10.052-0.386,17.225-0.337c5.514,0.038,10.922,0.166,14.701,0.275c67.035-55.963,69.507-55.93,76.526-55.901
		c0.382-0.002,2.252-0.047,5.217-0.115l0.85-0.019c16.447-0.38,60.14-1.39,94.277-1.155c35.967,0.246,43.39,1.772,47.524,3.183
		c13.123,4.475,62.841,40.591,93.183,63.148l51.604,0.385c13.316,0.09,29.093,7.016,42.189,18.526
		c14.312,12.574,22.461,28.22,22.359,42.926l-0.307,40.065C654.209,480.719,646.52,488.338,637.121,488.338 M297.103,314.588
		l0.04,10.225c0.064,0,0.127-0.001,0.192-0.005L297.103,314.588z"/>
	<path clip-path="url(#SVGID_2_)" fill="#6D6D6D" d="M519.008,487.53h-0.07l-222.227-1.518c-5.647-0.038-10.193-4.648-10.155-10.295
		c0.039-5.625,4.61-10.156,10.224-10.156h0.071l222.224,1.518c5.647,0.038,10.195,4.648,10.157,10.295
		C529.193,482.998,524.622,487.53,519.008,487.53"/>
	<path clip-path="url(#SVGID_2_)" fill="#6D6D6D" d="M494.151,389.831h-0.067l-116.204-0.743
		c-8.256-0.056-15.113-6.006-16.182-13.931l-5.164-27.419c-1.046-5.55,2.606-10.896,8.155-11.941
		c5.548-1.053,10.897,2.604,11.942,8.155l4.654,24.707l112.93,0.721c5.646,0.037,10.196,4.644,10.16,10.291
		C504.338,385.296,499.767,389.831,494.151,389.831"/>
	<path clip-path="url(#SVGID_2_)" fill="#6D6D6D" d="M280.302,389.289c-6.813-0.045-12.762-4.013-15.245-10.109
		c-2.581-6.33-0.774-13.582,4.498-18.042c4.313-3.647,10.764-3.108,14.411,1.203c1.598,1.889,2.392,4.19,2.418,6.486l91.54-0.188
		h0.022c5.637,0,10.212,4.564,10.224,10.204c0.012,5.647-4.557,10.234-10.204,10.246L280.302,389.289z"/>
	<path clip-path="url(#SVGID_2_)" fill="#6D6D6D" d="M590.494,298.494c-0.271,0-0.546-0.011-0.821-0.033
		c-5.629-0.448-9.83-5.375-9.381-11.005c1.172-14.754,1.541-22.957,1.624-27.417l-60.724-25.979c-5.192-2.221-7.6-8.231-5.38-13.423
		c2.219-5.192,8.232-7.601,13.423-5.379l66.646,28.513c1.995,0.853,3.667,2.318,4.772,4.185c1.623,2.736,2.905,4.897,0.022,41.123
		C600.252,294.433,595.774,298.494,590.494,298.494"/>
</g>
</svg>
