<?xml version="1.0" encoding="utf-8"?>
<!-- Generator: Adobe Illustrator 16.0.0, SVG Export Plug-In . SVG Version: 6.00 Build 0)  -->
<!DOCTYPE svg PUBLIC "-//W3C//DTD SVG 1.1//EN" "http://www.w3.org/Graphics/SVG/1.1/DTD/svg11.dtd">
<svg version="1.1" id="Layer_1" xmlns="http://www.w3.org/2000/svg" xmlns:xlink="http://www.w3.org/1999/xlink" x="0px" y="0px"
	 width="800px" height="800px" viewBox="0 0 800 800" enable-background="new 0 0 800 800" xml:space="preserve">
<g>
	<defs>
		<rect id="SVGID_1_" width="800" height="800"/>
	</defs>
	<clipPath id="SVGID_2_">
		<use xlink:href="#SVGID_1_"  overflow="visible"/>
	</clipPath>
	<path clip-path="url(#SVGID_2_)" fill="#6D6D6D" d="M607.371,534.733c0.669-6.714-1.419-13.511-6.118-19.246
		c-6.538-7.975-17.222-11.469-27.219-8.902c-0.034,0.01-0.065,0.022-0.1,0.032c-0.033,0.009-0.066,0.013-0.1,0.022l-3.907,1.099
		l-3.53,0.956c-0.08,0.022-0.161,0.045-0.242,0.069l-3.538,1.063c-0.085,0.026-0.171,0.053-0.255,0.081l-3.49,1.163
		c-0.08,0.027-0.159,0.054-0.239,0.083l-3.463,1.262c-0.06,0.022-0.12,0.045-0.18,0.068l-3.439,1.336
		c-0.102,0.04-0.203,0.081-0.304,0.125l-3.39,1.46c-0.06,0.025-0.117,0.051-0.175,0.077l-3.365,1.534
		c-0.09,0.042-0.18,0.084-0.27,0.128l-3.292,1.633c-0.057,0.029-0.113,0.058-0.171,0.088l-3.266,1.707
		c-0.08,0.042-0.16,0.085-0.238,0.13l-3.218,1.806c-0.064,0.036-0.128,0.073-0.191,0.11l-3.167,1.881
		c-0.077,0.046-0.154,0.095-0.23,0.143l-3.118,1.979c-0.085,0.056-0.169,0.11-0.252,0.167l-3.045,2.078
		c-0.038,0.026-0.075,0.052-0.113,0.079l-3.018,2.128c-0.094,0.065-0.185,0.132-0.274,0.201l-2.92,2.227
		c-0.061,0.046-0.121,0.094-0.181,0.142l-2.896,2.326c-0.064,0.052-0.129,0.104-0.192,0.158l-2.796,2.376
		c-0.056,0.047-0.11,0.096-0.164,0.144l-2.747,2.45c-0.065,0.058-0.13,0.116-0.193,0.177l-2.697,2.549
		c-0.062,0.059-0.124,0.119-0.185,0.18l-2.598,2.599c-0.061,0.06-0.12,0.121-0.179,0.183l-2.549,2.697
		c-0.06,0.063-0.119,0.128-0.177,0.192l-2.45,2.747c-0.049,0.056-0.098,0.11-0.146,0.167l-0.251,0.295l-0.424-0.067
		c-0.171-0.027-0.342-0.05-0.514-0.067l-8.505-0.863c-0.091-0.009-0.181-0.016-0.271-0.022l-8.63-0.616
		c-0.036-0.003-0.07-0.001-0.106-0.003c-0.032-0.001-0.063-0.007-0.096-0.009c-0.141-0.007-0.281-0.024-0.424-0.038
		c-0.555-0.055-1.303-0.125-2.179-0.122c-0.016,0-0.032-0.002-0.048-0.002c-0.054,0-0.108,0.001-0.162,0.002h-0.014
		c-0.001,0-0.002,0-0.003,0h-0.005c-10.485,0.203-20.869-0.879-30.935-3.183l-18.175-5.632c-5.853-2.313-11.536-5.071-17.001-8.259
		l-8.338-5.718c-0.106-0.072-0.215-0.143-0.323-0.211l-8.875-5.547c-0.11-0.068-0.22-0.134-0.332-0.197l-9.123-5.178
		c-0.097-0.055-0.194-0.108-0.293-0.159l-9.246-4.809c-0.155-0.08-0.313-0.157-0.472-0.229l-9.615-4.314
		c-0.133-0.06-0.267-0.116-0.402-0.169l-9.74-3.821c-0.105-0.042-0.211-0.081-0.317-0.118l-9.861-3.452
		c-0.107-0.037-0.215-0.073-0.323-0.105l-9.987-3.082c-0.174-0.055-0.349-0.103-0.526-0.146l-10.109-2.466
		c-0.11-0.027-0.22-0.052-0.33-0.074l-10.233-2.096c-0.109-0.022-0.219-0.042-0.329-0.062l-10.356-1.726
		c-0.179-0.03-0.358-0.054-0.538-0.073l-10.479-1.109c-0.102-0.012-0.206-0.021-0.309-0.027l-10.356-0.74
		c-0.144-0.01-0.289-0.017-0.434-0.021l-10.478-0.246c-0.142-0.003-0.285-0.003-0.427,0l-2.05,0.048
		c-2.215-7.4-9.059-12.814-17.154-12.868c-0.021-0.001-0.041-0.004-0.062-0.004h-49.313c-0.01,0-0.02,0.002-0.03,0.002
		c-0.011,0-0.021-0.002-0.031-0.002c-9.875,0-17.91,8.118-17.91,18.096V618.75c0,0.021,0.003,0.041,0.003,0.062
		c0.066,9.956,8.1,18.035,17.968,18.035h49.313c8.914,0,16.338-6.48,17.822-14.977l4.359,1.859l16.367,7.639l15.993,8.118
		l15.883,8.796c0.124,0.068,0.25,0.13,0.377,0.193c29.207,16.802,62.505,25.581,96.026,25.581c9.034,0,18.093-0.641,27.083-1.931
		l4.048-0.491c34.144-1.964,67.614-12.405,96.815-30.212c29.296-17.864,53.975-42.943,71.364-72.524
		c0.001-0.002,0.002-0.004,0.003-0.006c5.337-9.083,4.674-20.413-1.692-28.866C611.137,537.981,609.344,536.211,607.371,534.733
		 M248.131,618.654h-48.994V493.511c0-0.014,0.002-0.025,0.002-0.037h48.873c0.015,0.38,0.06,0.753,0.119,1.12V618.654z
		 M518.257,556.955l2.508-2.37l2.567-2.29l2.617-2.223l2.709-2.177l2.692-2.053l2.822-1.99l2.864-1.955l2.874-1.825l2.955-1.755
		l3.002-1.687l3.061-1.599l3.07-1.524l3.145-1.433l3.149-1.356l3.195-1.241l3.255-1.187l3.242-1.081l3.289-0.988l3.442-0.933
		c0.012-0.003,0.022-0.008,0.033-0.011c0.019-0.005,0.034-0.008,0.051-0.012l3.798-1.068c3.158-0.798,6.524,0.308,8.584,2.821
		c0.604,0.738,1.199,1.646,1.603,2.685c-1.152,0.135-2.305,0.344-3.451,0.639c-22.259,5.72-42.621,16.769-59.478,32.184
		c-2.324-2.135-5.006-3.9-7.97-5.201L518.257,556.955z M598.684,559.677c-0.001,0.001-0.001,0.001-0.002,0.002
		c-32.435,55.174-89.946,90.243-153.846,93.813c-0.1,0.005-0.194,0.022-0.294,0.031c-0.099,0.009-0.195,0.009-0.296,0.021
		l-4.346,0.528c-0.034,0.004-0.066,0.013-0.1,0.017c-0.034,0.006-0.068,0.006-0.104,0.011c-38.576,5.57-78.392-2.131-112.113-21.687
		c-0.166-0.097-0.338-0.176-0.507-0.261l-15.639-8.66c-0.095-0.053-0.192-0.104-0.289-0.154l-16.273-8.26
		c-0.089-0.046-0.18-0.09-0.271-0.133l-16.642-7.766c-0.092-0.042-0.184-0.084-0.278-0.124l-11.362-4.846v-95.881l1.384-0.033
		l10.045,0.236l9.984,0.714l10.055,1.065l9.922,1.652l9.903,2.028l9.677,2.361l9.564,2.951l9.541,3.34l9.38,3.68l9.175,4.118
		l8.865,4.61l8.811,5l8.548,5.343l8.471,5.808c0.147,0.102,0.299,0.192,0.449,0.284c0.032,0.019,0.061,0.041,0.093,0.06
		c0.014,0.01,0.029,0.018,0.043,0.025c0.01,0.006,0.021,0.012,0.031,0.018c10.258,6.009,21.189,10.688,32.542,13.978
		c0.005,0.001,0.011,0.003,0.015,0.004c13.044,3.778,26.642,5.718,40.407,5.718c0.898,0,1.801-0.01,2.701-0.025h0.002
		c0.021,0,0.043,0,0.064-0.001c0.128,0.009,0.257,0.023,0.386,0.036c0.329,0.032,0.732,0.071,1.188,0.097l8.42,0.601l8.113,0.824
		l5.161,0.822c0.023,0.004,0.048,0.008,0.07,0.012l2.815,0.449l7.609,1.565c3.029,1.063,5.393,3.374,6.563,6.331
		c0.024,0.056,0.042,0.111,0.066,0.166c0.265,0.702,0.465,1.438,0.59,2.202c0.686,4.187-1.021,8.34-4.451,10.84c0,0,0,0,0,0.001
		c-0.001,0-0.001,0-0.001,0c-1.3,0.948-2.59,1.455-3.941,1.551l-41.313,2.582l-40.999,2.08c-10.422,0.057-20.805-1.992-30.833-6.094
		c-4.648-1.901-9.96,0.326-11.863,4.977c-1.901,4.649,0.326,9.96,4.976,11.861c12.093,4.946,24.639,7.452,37.304,7.452
		c0.207,0,0.414-0.001,0.621-0.003c0.001,0,0.003,0.001,0.005,0.001c0.003,0,0.008-0.001,0.012-0.001c0.021,0,0.041,0,0.062,0
		c0.014,0,0.026-0.002,0.041-0.002c0.117-0.002,0.235-0.003,0.354-0.009l41.297-2.098c0.034-0.002,0.07-0.004,0.106-0.006
		l41.422-2.589c0.009,0,0.017-0.002,0.025-0.003c0.012,0,0.023,0,0.036-0.001c4.801-0.333,9.31-2.014,13.403-4.996l0.001-0.001
		c0-0.001,0.001-0.001,0.001-0.001c9.011-6.567,13.49-17.48,11.689-28.48c-0.021-0.126-0.047-0.251-0.069-0.377
		c15.265-15.03,34.177-25.74,54.997-31.091c3.016-0.773,6.344,0.435,8.282,3.008C600.073,553.532,600.285,556.95,598.684,559.677"/>
	<path clip-path="url(#SVGID_2_)" fill="#6D6D6D" d="M226.201,498.188c-9.408,0-17.062,7.654-17.062,17.063
		s7.654,17.062,17.062,17.062c9.408,0,17.062-7.653,17.062-17.062S235.608,498.188,226.201,498.188 M226.201,518.529
		c-1.808,0-3.28-1.471-3.28-3.279s1.472-3.279,3.28-3.279c1.809,0,3.28,1.471,3.28,3.279S228.01,518.529,226.201,518.529"/>
	<path clip-path="url(#SVGID_2_)" fill="#6D6D6D" d="M596.083,372.256l-1.621-8.893l-7.816,9.814
		c-9.851,12.196-12.836,14.682-21.596,22.902c0.008,0.249-0.286,1.775-0.285,2.024c0.468,4.26-0.436,8.478-0.554,12.764
		c10.275-10.957,6.589-6.243,22.651-23.652c0.27,13.515-3.522,24.651-10.985,39.034c-9.684,18.688-25.405,33.862-44.253,42.737
		c-35.008,16.469-80.597,12.986-121.951-9.306c-2.359-1.273-4.71-2.561-7.061-3.854c-9.15-5.02-18.614-10.206-28.692-14.39
		c-17.394-7.227-34.635-10.876-51.344-10.876c-1.84,0-3.673,0.045-5.491,0.135c-29.64,1.436-59.007,14.657-81.462,26.325
		c3.783-16.188,11.025-26.402,25.584-40.997c7.406-7.425,10.048-10.444,18.658-17.715c-4.148-1.478-4.474-1.987-8.592-3.46
		c-6.496,4.624-12.518,9.751-17.887,15.37c-9.53,9.974-25.895,30.246-28.304,53.902l-0.921,9.016l8.712-4.787
		c22.813-12.537,53.06-27.12,84.774-28.664c16.694-0.81,34.161,2.523,51.921,9.904c9.53,3.952,18.738,9.004,27.64,13.888
		c2.373,1.3,4.746,2.606,7.134,3.895c20.345,10.965,42.669,17.922,64.562,20.109c4.899,0.489,9.764,0.734,14.568,0.734
		c19.037,0,37.118-3.83,52.965-11.288c20.819-9.788,38.125-26.462,48.743-46.933C595.25,410.56,599.229,389.516,596.083,372.256"/>
</g>
<g>
	<defs>
		<rect id="SVGID_3_" x="252.211" y="171.088" width="339.671" height="241.782"/>
	</defs>
	<clipPath id="SVGID_4_">
		<use xlink:href="#SVGID_3_"  overflow="visible"/>
	</clipPath>
	<path clip-path="url(#SVGID_4_)" fill="#6D6D6D" d="M587.23,296.628c-1.188,0-2.379-0.455-3.288-1.362l-73.416-73.415
		c-1.815-1.817-1.815-4.76,0-6.576c1.819-1.816,4.761-1.816,6.576,0l73.416,73.416c1.816,1.816,1.816,4.759,0,6.575
		C589.609,296.173,588.42,296.628,587.23,296.628"/>
	<path clip-path="url(#SVGID_4_)" fill="#6D6D6D" d="M440.399,296.628H256.861c-1.881,0-3.577-1.133-4.297-2.871
		c-0.718-1.737-0.322-3.738,1.009-5.066l55.06-55.063c1.816-1.818,4.76-1.818,6.576,0c1.816,1.816,1.816,4.758,0,6.576
		l-47.123,47.123h170.387l64.114-64.115H373.102c-2.569,0-4.651-2.082-4.651-4.649c0-2.568,2.082-4.65,4.651-4.65h140.715
		c1.878,0,3.575,1.133,4.294,2.869c0.721,1.739,0.322,3.738-1.006,5.069l-73.418,73.415
		C442.815,296.138,441.632,296.628,440.399,296.628"/>
	<path clip-path="url(#SVGID_4_)" fill="#6D6D6D" d="M348.63,259.919h-36.709c-2.568,0-4.65-2.082-4.65-4.649v-79.533
		c0-2.57,2.082-4.65,4.65-4.65h36.709c2.569,0,4.651,2.08,4.651,4.65v79.533C353.281,257.837,351.199,259.919,348.63,259.919
		 M316.572,250.62h27.408v-70.232h-27.408V250.62z"/>
	<path clip-path="url(#SVGID_4_)" fill="#6D6D6D" d="M348.63,259.92c-1.189,0-2.379-0.455-3.288-1.362
		c-1.816-1.816-1.816-4.761,0-6.575l23.109-23.109v-48.487H348.63c-2.568,0-4.65-2.082-4.65-4.649c0-2.57,2.082-4.652,4.65-4.652
		h24.473c2.567,0,4.649,2.082,4.649,4.652V230.8c0,1.233-0.49,2.416-1.362,3.288l-24.472,24.47
		C351.009,259.465,349.819,259.92,348.63,259.92"/>
	<path clip-path="url(#SVGID_4_)" fill="#6D6D6D" d="M573.526,273.623c0-2.568-2.082-4.65-4.65-4.65
		c-2.566,0-4.648,2.082-4.648,4.65v136.373c4.014-4.014,6.097-6.002,9.299-9.204V273.623z"/>
	<path clip-path="url(#SVGID_4_)" fill="#6D6D6D" d="M463.404,401.857V273.623c0-2.568-2.082-4.65-4.65-4.65
		c-2.569,0-4.651,2.082-4.651,4.65v128.159C457.203,401.802,460.304,401.831,463.404,401.857"/>
	<path clip-path="url(#SVGID_4_)" fill="#6D6D6D" d="M279.865,398.309v-106.33c0-2.57-2.082-4.652-4.65-4.652
		c-2.569,0-4.649,2.082-4.649,4.652v103.619C273.665,395.717,276.765,398.171,279.865,398.309"/>
	<path clip-path="url(#SVGID_4_)" fill="#6D6D6D" d="M532.17,321.101h-36.709c-2.568,0-4.65-2.082-4.65-4.65v-36.709
		c0-2.569,2.082-4.649,4.65-4.649h36.709c2.57,0,4.649,2.08,4.649,4.649v36.709C536.819,319.019,534.74,321.101,532.17,321.101
		 M500.113,311.8h27.408v-27.408h-27.408V311.8z"/>
	<path clip-path="url(#SVGID_4_)" fill="#6D6D6D" d="M532.17,382.28h-36.709c-2.568,0-4.65-2.082-4.65-4.651v-36.707
		c0-2.568,2.082-4.65,4.65-4.65h36.709c2.57,0,4.649,2.082,4.649,4.65v36.707C536.819,380.198,534.74,382.28,532.17,382.28
		 M500.113,372.979h27.408v-27.406h-27.408V372.979z"/>
	<path clip-path="url(#SVGID_4_)" fill="#6D6D6D" d="M385.538,401.048c1.647,0.04,3.294,0.05,4.94,0.084v-55.559h27.408v55.956
		c3.101,0.027,6.199,0.052,9.299,0.073v-60.681c0-2.567-2.082-4.649-4.648-4.649h-36.707c-2.568,0-4.65,2.082-4.65,4.649v59.998
		C382.632,400.96,384.087,401.013,385.538,401.048"/>
	<path clip-path="url(#SVGID_4_)" fill="#6D6D6D" d="M349.659,382.28H312.95c-2.569,0-4.651-2.082-4.651-4.651v-36.707
		c0-2.568,2.082-4.65,4.651-4.65h36.709c2.568,0,4.65,2.082,4.65,4.65v36.707C354.309,380.198,352.227,382.28,349.659,382.28
		 M317.6,372.979h27.408v-27.406H317.6V372.979z"/>
</g>
<g>
	<defs>
		<rect id="SVGID_5_" width="800" height="800"/>
	</defs>
	<clipPath id="SVGID_6_">
		<use xlink:href="#SVGID_5_"  overflow="visible"/>
	</clipPath>
	<path clip-path="url(#SVGID_6_)" fill="#6D6D6D" d="M376.765,157.914c-4.756,0-9.663-1.461-14.187-4.233l-1.147-0.705
		c-1.251-0.783-2.549-1.593-3.83-2.194c-2.132-1.006-4.192-1.452-6.106-1.361c-3.975,0.214-8.065,2.471-11.183,4.415l-6.03,3.759
		c-0.376,0.237-0.851,0.233-1.227,0.005c-0.378-0.232-0.589-0.655-0.551-1.097l0.633-7.077c0.462-5.175,3.491-9.477,5.257-11.584
		c3.079-3.65,7.08-6.258,11.57-7.537c4.597-1.334,9.608-1.256,14.487,0.209c3.821,1.152,7.014,3.054,9.706,4.747
		c1.707,1.079,3.113,1.735,4.426,2.076c1.177,0.314,2.283,0.191,3.475-0.351c2.829-1.279,5.46-3.859,7.911-6.394l4.922-5.089
		c0.305-0.318,0.765-0.432,1.188-0.3c0.421,0.132,0.731,0.491,0.801,0.928l1.113,6.991c0.824,5.13-0.888,9.922-1.982,12.321
		c-1.987,4.356-5.262,7.915-9.219,10.022C383.754,157.089,380.381,157.914,376.765,157.914"/>
	<path clip-path="url(#SVGID_6_)" fill="#6D6D6D" d="M352.012,147.076c2.116,0,4.326,0.532,6.581,1.593
		c1.407,0.665,2.763,1.511,4.074,2.33l0.913,0.565c7.63,4.669,15.795,5.22,22.113,1.843c3.511-1.871,6.422-5.038,8.197-8.93
		c0.985-2.162,2.528-6.458,1.8-10.987l-0.746-4.693l-3.3,3.414c-2.608,2.699-5.423,5.453-8.621,6.895
		c-1.684,0.765-3.327,0.915-5.027,0.487c-1.55-0.4-3.165-1.151-5.081-2.357c-2.563-1.616-5.594-3.423-9.135-4.493
		c-4.44-1.329-8.998-1.401-13.174-0.2c-4.047,1.152-7.651,3.505-10.428,6.8c-1.588,1.893-4.315,5.749-4.72,10.291l-0.425,4.747
		l4.046-2.521c3.357-2.094,7.785-4.525,12.294-4.77C351.584,147.082,351.798,147.076,352.012,147.076"/>
	<path clip-path="url(#SVGID_6_)" fill="#6D6D6D" d="M376.767,150.836c-3.402,0-7.041-1.074-10.493-3.191l-1.104-0.678
		c-1.434-0.892-2.922-1.816-4.554-2.589c-3.215-1.512-6.411-2.172-9.521-2.021c-1.664,0.091-3.416,0.414-5.191,0.96
		c-0.503,0.141-1.065-0.055-1.338-0.514c-0.278-0.455-0.208-1.043,0.168-1.42c2.009-2.03,4.492-3.51,7.18-4.283
		c3.297-0.956,6.932-0.888,10.495,0.186c2.982,0.902,5.683,2.522,7.984,3.965c2.346,1.479,4.385,2.412,6.417,2.935
		c2.747,0.715,5.498,0.465,8.172-0.755c0.811-0.364,1.584-0.783,2.324-1.243c0.45-0.282,1.038-0.223,1.422,0.146
		c0.385,0.373,0.469,0.956,0.205,1.415c-1.356,2.39-3.25,4.283-5.478,5.476C381.441,150.303,379.163,150.836,376.767,150.836"/>
	<path clip-path="url(#SVGID_6_)" fill="#FFFFFF" d="M352.046,139.999c3.145,0,6.363,0.765,9.565,2.271
		c1.752,0.829,3.302,1.793,4.799,2.726l1.079,0.665c5.173,3.163,10.73,3.728,14.867,1.507h0.003c0.412-0.219,0.81-0.469,1.194-0.747
		c-2.412,0.651-4.865,0.665-7.327,0.023c-2.272-0.587-4.52-1.611-7.076-3.218c-2.168-1.365-4.71-2.89-7.412-3.709
		c-3.136-0.943-6.31-1.011-9.182-0.178c-0.656,0.187-1.297,0.428-1.919,0.71c0.116-0.009,0.23-0.014,0.346-0.023
		C351.347,140.013,351.698,139.999,352.046,139.999"/>
	<path clip-path="url(#SVGID_6_)" fill="#6D6D6D" d="M422.826,340.431c-1.647-0.04-3.294-0.05-4.94-0.084v55.558h-27.408v-55.956
		c-3.1-0.027-6.199-0.052-9.299-0.073v60.682c0,2.566,2.082,4.648,4.649,4.648h36.707c2.567,0,4.649-2.082,4.649-4.648V340.56
		C425.732,340.519,424.277,340.466,422.826,340.431"/>
</g>
</svg>
