<?xml version="1.0" encoding="utf-8"?>
<!-- Generator: Adobe Illustrator 16.0.0, SVG Export Plug-In . SVG Version: 6.00 Build 0)  -->
<!DOCTYPE svg PUBLIC "-//W3C//DTD SVG 1.1//EN" "http://www.w3.org/Graphics/SVG/1.1/DTD/svg11.dtd">
<svg version="1.1" id="Layer_1" xmlns="http://www.w3.org/2000/svg" xmlns:xlink="http://www.w3.org/1999/xlink" x="0px" y="0px"
	 width="800px" height="800px" viewBox="0 0 800 800" enable-background="new 0 0 800 800" xml:space="preserve">
<g>
	<defs>
		<rect id="SVGID_1_" width="800" height="800"/>
	</defs>
	<clipPath id="SVGID_2_">
		<use xlink:href="#SVGID_1_"  overflow="visible"/>
	</clipPath>
	<path clip-path="url(#SVGID_2_)" fill="#6C6C6C" d="M563.453,349.55c0-18.337-14.865-33.203-33.202-33.203
		c-18.338,0-33.203,14.866-33.203,33.203c0,13.285,7.806,24.742,19.078,30.05v122.92v36.313c0,68.352-55.607,123.96-123.961,123.96
		c-63.938,0-116.721-48.659-123.272-110.892c3.078-3.485,4.961-8.053,4.961-13.068v-64.837
		c26.055-3.921,50.392-15.546,69.996-33.711c24.495-22.696,39.385-53.534,41.927-86.832l0.775-10.145
		c0.409-5.369-1.372-10.395-4.582-14.217l9.219-120.762c1.516-19.863-5.38-39.636-18.92-54.248
		c-6.889-7.434-15.245-13.245-24.411-17.171c-3.588-12.26-14.909-21.218-28.33-21.218c-16.305,0-29.522,13.217-29.522,29.522
		c0,16.304,13.217,29.522,29.522,29.522c8.638,0,16.409-3.711,21.807-9.625c3.735,2.16,7.175,4.894,10.212,8.171
		c8.331,8.991,12.406,20.674,11.473,32.897l-9.219,120.76c-3.753,3.29-6.276,7.989-6.686,13.36l-0.774,10.144
		c-3.659,47.937-44.185,85.487-92.261,85.487c-48.075,0-88.601-37.55-92.261-85.486l-0.774-10.145
		c-0.409-5.369-2.933-10.065-6.686-13.354l-9.218-120.766c-0.933-12.223,3.141-23.906,11.472-32.897
		c2.939-3.172,6.259-5.83,9.855-7.956c5.39,5.787,13.071,9.41,21.603,9.41c16.304,0,29.522-13.218,29.522-29.522
		c0-16.305-13.218-29.522-29.522-29.522c-13.519,0-24.907,9.089-28.407,21.488c-8.917,3.92-17.044,9.639-23.773,16.901
		c-13.539,14.612-20.435,34.385-18.919,54.248l9.219,120.763c-3.21,3.822-4.991,8.847-4.582,14.216l0.775,10.146
		c2.542,33.296,17.432,64.134,41.926,86.831c19.604,18.164,43.94,29.789,69.994,33.711v64.837c0,5.728,2.451,10.872,6.343,14.483
		c7.319,77.16,72.474,137.727,151.518,137.727c82.824,0,150.404-66.497,152.169-148.905h0.042v-89.69V379.6
		C555.648,374.292,563.453,362.835,563.453,349.55"/>
	<path clip-path="url(#SVGID_2_)" fill="#6C6C6C" d="M530.251,273.586c-41.887,0-75.964,34.077-75.964,75.964
		c0,31.689,19.513,58.895,47.148,70.269v-32.273c-11.473-8.722-18.897-22.506-18.897-37.996c0-26.31,21.404-47.714,47.713-47.714
		s47.713,21.404,47.713,47.714c0,15.49-7.425,29.274-18.897,37.995v32.274c27.636-11.374,47.147-38.58,47.147-70.269
		C606.214,307.664,572.137,273.586,530.251,273.586"/>
	<path clip-path="url(#SVGID_2_)" fill="#6C6C6C" d="M562.233,423.593l100.909-94.498c90.823-85.023-15.116-230.225-94.271-158.762
		l-15.788,14.255l-15.778-14.255c-78.925-71.241-185.297,73.554-94.278,158.762c5.383,5.062,13.861,4.783,18.914-0.618
		c5.055-5.394,4.775-13.861-0.618-18.915c-63.694-59.646,4.34-167.858,58.044-119.363l24.743,22.357c5.106,4.6,12.843,4.6,17.949,0
		l24.752-22.357c53.721-48.549,121.705,59.74,58.034,119.363l-100.909,94.497c-5.394,5.053-5.672,13.522-0.619,18.915
		C548.363,428.369,556.852,428.644,562.233,423.593"/>
</g>
</svg>
