<?xml version="1.0" encoding="utf-8"?>
<!-- Generator: Adobe Illustrator 16.0.0, SVG Export Plug-In . SVG Version: 6.00 Build 0)  -->
<!DOCTYPE svg PUBLIC "-//W3C//DTD SVG 1.1//EN" "http://www.w3.org/Graphics/SVG/1.1/DTD/svg11.dtd">
<svg version="1.1" id="Layer_1" xmlns="http://www.w3.org/2000/svg" xmlns:xlink="http://www.w3.org/1999/xlink" x="0px" y="0px"
	 width="800px" height="800px" viewBox="0 0 800 800" enable-background="new 0 0 800 800" xml:space="preserve">
<g>
	<defs>
		<rect id="SVGID_1_" width="800" height="800"/>
	</defs>
	<clipPath id="SVGID_2_">
		<use xlink:href="#SVGID_1_"  overflow="visible"/>
	</clipPath>
	<path clip-path="url(#SVGID_2_)" fill="#6D6D6D" d="M411.396,282.332c-8.018,0-15.649-2.798-21.109-4.803
		c-14.622-5.362-30.704-23.28-37.401-41.678c-5.846-16.06-4.882-31.614,2.793-44.982c3.794-6.611,4.925-12.101,3.359-16.315
		c-2.24-6.03-9.735-8.992-9.809-9.019l6.67-18.965c1.672,0.586,16.48,6.167,21.984,20.98c3.745,10.079,2.14,21.292-4.77,33.327
		c-4.695,8.182-5.144,17.635-1.335,28.097c5.58,15.329,18.354,27.087,25.432,29.681c7.715,2.832,14.972,5.124,18.973,2.201
		c3.098-2.258,10.136-11.596,8.6-49.443c-2.185-53.741-44.563-68.772-44.989-68.917c-78.326-25.457-100.995,36.809-101.923,39.472
		l-18.985-6.607c0.292-0.836,30.279-83.44,127.252-51.944c2.41,0.82,55.995,19.818,58.729,87.181
		c1.463,35.931-3.893,57.063-16.84,66.504C422.696,280.986,416.953,282.332,411.396,282.332"/>
	<path clip-path="url(#SVGID_2_)" fill="#6D6D6D" d="M300.102,434.014c-3.63-23.302-1.338-46.562,6.815-69.135
		c8.432-23.359,16.44-42.238,23.8-56.111c0.479-0.906,1.603-3.024-1.131-7.586c-7.669-12.806-32.912-24.927-46.884-24.978
		c-6.53,0.017-13.382,0.8-20.016,1.595c-11.114,1.337-22.605,2.722-33.675,0.346c-21.462-4.602-33.521-26.004-32.262-57.252
		c0.27-6.631,4.407-12.585,10.54-15.169l42.049-17.731c4.531-2.806,7.866-7.135,9.422-12.251c1.612-5.311,7.225-8.318,12.54-6.695
		c5.311,1.615,8.31,7.227,6.695,12.54c-3.092,10.175-9.853,18.725-19.039,24.078c-0.373,0.218-0.758,0.41-1.156,0.576
		l-41.018,17.297c-0.204,10.705,1.367,31.717,16.443,34.949c7.777,1.667,17.147,0.545,27.064-0.647
		c7.239-0.869,14.879-1.657,22.489-1.74c20.041,0.073,52.389,15.269,64.056,34.75c5.521,9.22,6.105,18.929,1.641,27.339
		c-6.915,13.039-14.538,31.047-22.649,53.517c-6.994,19.363-8.965,39.286-5.86,59.216L300.102,434.014z"/>
	<path clip-path="url(#SVGID_2_)" fill="#6D6D6D" d="M582.047,598.767c-2.758-40.088-11.387-99.971-36.832-157.599
		c-49.778-112.755-121.184-174.629-121.9-175.24l13.065-15.279c3.063,2.618,75.616,65.498,127.232,182.401
		c21.37,48.405,34.317,103.696,38.49,164.338L582.047,598.767z"/>
	<path clip-path="url(#SVGID_2_)" fill="#6D6D6D" d="M520.492,687.952h-67.091v-20.104h67.091
		c54.429,0,92.797-15.648,110.941-45.249c18.76-30.597,15.619-77.045-8.407-124.251c-30.274-59.479-26.387-141.738-22.834-177.426
		c-39.624,19.808-42.863,49.238-42.991,50.622l-20.041-1.591c0.153-2.066,4.551-50.879,71.784-74.482
		c3.353-1.171,7.048-0.496,9.763,1.764c2.719,2.263,4.045,5.792,3.494,9.287c-0.177,1.114-17.119,112.246,18.74,182.707
		c27.628,54.285,30.411,106.728,7.632,143.878C633.235,658.127,598.563,687.952,520.492,687.952"/>
	<path clip-path="url(#SVGID_2_)" fill="#6D6D6D" d="M388.311,640.283l-19.903-2.832c18.938-133.09-65.135-157.145-91.353-161.349
		c-7.794-1.244-13.863-7.066-15.458-14.826c-3.014-14.647-14.597-59.807-45.2-77.668l-2.975,23.312l-19.942-2.543l4.67-36.609
		c0.376-2.948,2.035-5.576,4.533-7.183c2.498-1.606,5.576-2.02,8.413-1.149c47.73,14.789,64.786,72.073,70.021,96.963
		C304.91,460.438,410.104,487.141,388.311,640.283"/>
	<path clip-path="url(#SVGID_2_)" fill="#6D6D6D" d="M222.078,688.014h-32.637c-5.552,0-10.053-4.501-10.053-10.052
		c0-21.133,11.029-36.532,31.057-43.365c3.152-1.074,5.269-3.943,5.269-7.141c0.219-12.128-0.265-22.893-0.711-29.82
		c-0.292-4.526-2.472-8.781-6.136-11.976c-32.495-28.342-28.6-66.49-26.73-84.825c0.331-3.232,0.616-6.022,0.616-7.763
		c0-2.328,0-5.846-0.314-6.754c-1.237-1.199-9.291-4.351-18.615-7.998l-3.548-1.389c-12.229-4.795-20.24-12.05-23.813-21.563
		c-4.857-12.939,0.805-24.493,1.465-25.77c1.124-2.162,2.994-3.845,5.267-4.73l13.129-5.131c9.017-30.497,34.083-38.71,46.948-38.71
		h0.27l-0.091,10.052l0.012,10.052c-2.336,0.03-23.007,1.07-28.853,28.211c-0.709,3.298-3.026,6.019-6.169,7.247l-13.569,5.3
		c-0.341,1.814-0.452,4.214,0.468,6.555c1.907,4.846,7.726,7.989,12.274,9.773l3.533,1.382c25.622,10.021,31.71,12.403,31.71,33.474
		c0,2.764-0.334,6.025-0.719,9.805c-1.762,17.253-4.709,46.13,19.942,67.631c7.733,6.744,12.347,15.92,12.988,25.837
		c0.468,7.308,0.979,18.664,0.748,31.293c0.003,11.62-7.585,22.136-18.882,25.989c-8.177,2.788-13.426,7.497-15.859,14.283h21.003
		V688.014z"/>
	<path clip-path="url(#SVGID_2_)" fill="#6D6D6D" d="M295.705,688.014h-42.177c-5.551,0-10.052-4.501-10.052-10.052
		c0-24.235,18.07-35.44,32.886-38.044c-2.558-6.987-4.16-16.079-2.594-27.167c4.235-30.004,32.038-35.557,33.219-35.777
		l3.705,19.761c-1.423,0.301-14.859,3.552-17.017,18.828c-2.434,17.243,6.497,26.105,6.879,26.476
		c2.945,2.847,3.927,7.255,2.391,11.051c-1.534,3.799-5.161,6.342-9.257,6.342h-11.574c-2.022,0.118-11.323,1.089-15.932,8.479
		l91.981-0.055c10.852-0.01,21.589-2.491,31.054-7.174c15.267-7.556,25.548-17.004,31.423-28.885
		c11.951-24.153,2.503-55.461-12.142-97.048c-6.339-17.996-6.226-33.875,0.336-47.193c10.411-21.115,33.466-29.347,36.062-30.215
		c3.215-1.029,4.933-4.344,3.961-7.435c-0.471-1.512-1.502-2.743-2.9-3.475c-1.408-0.729-2.999-0.866-4.501-0.397
		c-0.29,0.091-29.896,9.672-43.061,35.976c-3.948,7.892-6.1,16.48-6.39,25.525l-20.094-0.648
		c0.385-11.966,3.246-23.363,8.506-33.874c16.648-33.268,51.128-44.935,55.006-46.158c6.616-2.076,13.675-1.462,19.835,1.758
		c6.159,3.216,10.699,8.639,12.78,15.268c4.28,13.613-3.299,28.225-16.894,32.567c-0.025,0.011-17.41,6.072-24.277,19.997
		c-4.083,8.28-3.882,18.921,0.594,31.624c16.297,46.272,26.638,81.436,11.201,112.643c-7.906,15.98-21.164,28.406-40.53,37.99
		c-12.217,6.044-26.031,9.243-39.951,9.259L295.705,688.014z"/>
</g>
</svg>
