<?xml version="1.0" encoding="utf-8"?>
<!-- Generator: Adobe Illustrator 16.0.0, SVG Export Plug-In . SVG Version: 6.00 Build 0)  -->
<!DOCTYPE svg PUBLIC "-//W3C//DTD SVG 1.1//EN" "http://www.w3.org/Graphics/SVG/1.1/DTD/svg11.dtd">
<svg version="1.1" id="Layer_1" xmlns="http://www.w3.org/2000/svg" xmlns:xlink="http://www.w3.org/1999/xlink" x="0px" y="0px"
	 width="800px" height="800px" viewBox="0 0 800 800" enable-background="new 0 0 800 800" xml:space="preserve">
<g>
	<defs>
		<rect id="SVGID_1_" width="800" height="800"/>
	</defs>
	<clipPath id="SVGID_2_">
		<use xlink:href="#SVGID_1_"  overflow="visible"/>
	</clipPath>
	<path clip-path="url(#SVGID_2_)" fill="#6D6D6D" d="M557.17,671.972H242.011c-43.038,0-78.052-35.01-78.052-78.043V205.415
		c0-43.034,35.014-78.044,78.052-78.044h218.923c2.325,0,4.555,0.925,6.199,2.569l165.516,165.515
		c1.645,1.644,2.569,3.875,2.569,6.199v292.275C635.218,636.962,600.205,671.972,557.17,671.972 M242.011,144.907
		c-33.368,0-60.515,27.146-60.515,60.507v388.514c0,33.361,27.147,60.506,60.515,60.506H557.17c33.365,0,60.51-27.145,60.51-60.506
		V305.286L457.301,144.907H242.011z"/>
	<path clip-path="url(#SVGID_2_)" fill="#6D6D6D" d="M626.448,310.423h-96.235c-43.036,0-78.048-35.014-78.048-78.052v-96.232
		c0-3.545,2.136-6.743,5.414-8.101c3.273-1.357,7.047-0.607,9.554,1.901l165.516,165.516c2.509,2.509,3.259,6.276,1.9,9.556
		C633.192,308.286,629.996,310.423,626.448,310.423 M469.702,157.307v75.064c0,33.37,27.146,60.515,60.511,60.515h75.066
		L469.702,157.307z"/>
	<path clip-path="url(#SVGID_2_)" fill="#6D6D6D" d="M272.723,287.01c-30.841,0-55.932-25.09-55.932-55.929
		c0-30.838,25.091-55.929,55.932-55.929c30.84,0,55.929,25.091,55.929,55.929C328.651,261.92,303.563,287.01,272.723,287.01
		 M272.723,186.493c-24.588,0-44.591,20.002-44.591,44.588c0,24.587,20.003,44.588,44.591,44.588
		c24.587,0,44.588-20.001,44.588-44.588C317.311,206.495,297.31,186.493,272.723,186.493"/>
	<path clip-path="url(#SVGID_2_)" fill="#6D6D6D" d="M239.215,353.167c-0.942,0-1.883-0.232-2.737-0.703
		c-1.81-1-2.933-2.902-2.933-4.967v-77.321c0-3.132,2.538-5.671,5.67-5.671c3.132,0,5.67,2.539,5.67,5.671v67.032l23.949-15.126
		c1.811-1.143,4.11-1.168,5.944-0.069l25.782,15.469v-67.306c0-3.132,2.539-5.671,5.67-5.671c3.132,0,5.671,2.539,5.671,5.671
		v77.321c0,2.043-1.1,3.928-2.877,4.933c-1.775,1.011-3.958,0.981-5.711-0.072l-31.375-18.824l-29.696,18.755
		C241.32,352.874,240.268,353.167,239.215,353.167"/>
	<path clip-path="url(#SVGID_2_)" fill="#6D6D6D" d="M336.717,540.529h-52.863c-2.289,0-4.147-1.855-4.147-4.146
		s1.858-4.147,4.147-4.147h44.569v-4.423c0-6.512-4.86-12.132-11.308-13.072l-31.994-4.661c-2.269-0.331-3.837-2.436-3.508-4.701
		c0.33-2.269,2.455-3.831,4.701-3.507l31.997,4.661c10.495,1.53,18.406,10.68,18.406,21.28V540.529z"/>
	<path clip-path="url(#SVGID_2_)" fill="none" stroke="#6D6D6D" stroke-width="2" stroke-miterlimit="10" d="M336.717,540.529
		h-52.863c-2.289,0-4.147-1.855-4.147-4.146s1.858-4.147,4.147-4.147h44.569v-4.423c0-6.512-4.86-12.132-11.308-13.072
		l-31.994-4.661c-2.269-0.331-3.837-2.436-3.508-4.701c0.33-2.269,2.455-3.831,4.701-3.507l31.997,4.661
		c10.495,1.53,18.406,10.68,18.406,21.28V540.529z"/>
	<path clip-path="url(#SVGID_2_)" fill="#6D6D6D" d="M517.414,611.117h-11.401c-13.535,0-24.549-11.012-24.549-24.548v-7.255
		H317.711v7.255c0,13.536-11.013,24.548-24.548,24.548h-11.402c-13.535,0-24.548-11.012-24.548-24.548v-91.656l-18.217-6.657
		c-3.58-1.305-5.985-4.745-5.985-8.557v-16.696c0-5.024,4.088-9.112,9.112-9.112h23.663c5.224,0,10.025-2.851,12.525-7.438
		l23.584-43.232c5.343-9.798,15.595-15.884,26.757-15.884h141.873c11.161,0,21.412,6.086,26.757,15.884l23.581,43.232
		c2.503,4.587,7.304,7.438,12.527,7.438h23.663c5.024,0,9.112,4.088,9.112,9.112v16.696c0,3.812-2.406,7.252-5.986,8.559
		l-18.216,6.655v91.656C541.963,600.105,530.949,611.117,517.414,611.117 M309.417,571.021h180.342v15.549
		c0,8.963,7.292,16.254,16.254,16.254h11.401c8.962,0,16.254-7.291,16.254-16.254v-97.455l23.665-8.647
		c0.322-0.118,0.538-0.426,0.538-0.768v-16.696c0-0.451-0.367-0.818-0.818-0.818H533.39c-8.262,0-15.854-4.507-19.809-11.76
		l-23.579-43.233c-3.891-7.13-11.354-11.561-19.478-11.561H328.652c-8.125,0-15.587,4.431-19.478,11.561l-23.581,43.233
		c-3.953,7.253-11.545,11.76-19.807,11.76h-23.663c-0.451,0-0.818,0.367-0.818,0.818v16.696c0,0.342,0.216,0.649,0.537,0.767
		l23.666,8.648v97.455c0,8.963,7.292,16.254,16.253,16.254h11.402c8.961,0,16.254-7.291,16.254-16.254V571.021z"/>
	<path clip-path="url(#SVGID_2_)" fill="none" stroke="#6D6D6D" stroke-width="2" stroke-miterlimit="10" d="M517.414,611.117
		h-11.401c-13.535,0-24.549-11.012-24.549-24.548v-7.255H317.711v7.255c0,13.536-11.013,24.548-24.548,24.548h-11.402
		c-13.535,0-24.548-11.012-24.548-24.548v-91.656l-18.217-6.657c-3.58-1.305-5.985-4.745-5.985-8.557v-16.696
		c0-5.024,4.088-9.112,9.112-9.112h23.663c5.224,0,10.025-2.851,12.525-7.438l23.584-43.232
		c5.343-9.798,15.595-15.884,26.757-15.884h141.873c11.161,0,21.412,6.086,26.757,15.884l23.581,43.232
		c2.503,4.587,7.304,7.438,12.527,7.438h23.663c5.024,0,9.112,4.088,9.112,9.112v16.696c0,3.812-2.406,7.252-5.986,8.559
		l-18.216,6.655v91.656C541.963,600.105,530.949,611.117,517.414,611.117z M309.417,571.021h180.342v15.549
		c0,8.963,7.292,16.254,16.254,16.254h11.401c8.962,0,16.254-7.291,16.254-16.254v-97.455l23.665-8.647
		c0.322-0.118,0.538-0.426,0.538-0.768v-16.696c0-0.451-0.367-0.818-0.818-0.818H533.39c-8.262,0-15.854-4.507-19.809-11.76
		l-23.579-43.233c-3.891-7.13-11.354-11.561-19.478-11.561H328.652c-8.125,0-15.587,4.431-19.478,11.561l-23.581,43.233
		c-3.953,7.253-11.545,11.76-19.807,11.76h-23.663c-0.451,0-0.818,0.367-0.818,0.818v16.696c0,0.342,0.216,0.649,0.537,0.767
		l23.666,8.648v97.455c0,8.963,7.292,16.254,16.253,16.254h11.402c8.961,0,16.254-7.291,16.254-16.254V571.021z"/>
	<path clip-path="url(#SVGID_2_)" fill="#6D6D6D" d="M501.212,462.585H297.963l25.377-46.526c1.99-3.65,5.811-5.917,9.969-5.917
		h132.557c4.158,0,7.979,2.267,9.969,5.917L501.212,462.585z M311.934,454.291h175.309l-18.687-34.261
		c-0.537-0.983-1.568-1.595-2.689-1.595H333.31c-1.121,0-2.152,0.611-2.69,1.595L311.934,454.291z"/>
	<path clip-path="url(#SVGID_2_)" fill="none" stroke="#6D6D6D" stroke-width="2" stroke-miterlimit="10" d="M501.212,462.585
		H297.963l25.377-46.526c1.99-3.65,5.811-5.917,9.969-5.917h132.557c4.158,0,7.979,2.267,9.969,5.917L501.212,462.585z
		 M311.934,454.291h175.309l-18.687-34.261c-0.537-0.983-1.568-1.595-2.689-1.595H333.31c-1.121,0-2.152,0.611-2.69,1.595
		L311.934,454.291z"/>
	<path clip-path="url(#SVGID_2_)" fill="#6D6D6D" d="M515.322,540.529h-52.863v-12.717c0-10.601,7.911-19.75,18.403-21.28l32-4.661
		c2.252-0.323,4.372,1.238,4.701,3.507c0.328,2.266-1.239,4.37-3.509,4.701l-31.997,4.661c-6.444,0.94-11.305,6.561-11.305,13.072
		v4.423h44.569c2.29,0,4.146,1.856,4.146,4.147S517.612,540.529,515.322,540.529"/>
	<path clip-path="url(#SVGID_2_)" fill="none" stroke="#6D6D6D" stroke-width="2" stroke-miterlimit="10" d="M515.322,540.529
		h-52.863v-12.717c0-10.601,7.911-19.75,18.403-21.28l32-4.661c2.252-0.323,4.372,1.238,4.701,3.507
		c0.328,2.266-1.239,4.37-3.509,4.701l-31.997,4.661c-6.444,0.94-11.305,6.561-11.305,13.072v4.423h44.569
		c2.29,0,4.146,1.856,4.146,4.147S517.612,540.529,515.322,540.529z"/>
	<path clip-path="url(#SVGID_2_)" fill="#6D6D6D" d="M435.195,541.306h-71.214c-2.29,0-4.147-1.856-4.147-4.147
		s1.857-4.146,4.147-4.146h71.214c2.289,0,4.146,1.855,4.146,4.146S437.484,541.306,435.195,541.306"/>
	<path clip-path="url(#SVGID_2_)" fill="none" stroke="#6D6D6D" stroke-width="2" stroke-miterlimit="10" d="M435.195,541.306
		h-71.214c-2.29,0-4.147-1.856-4.147-4.147s1.857-4.146,4.147-4.146h71.214c2.289,0,4.146,1.855,4.146,4.146
		S437.484,541.306,435.195,541.306z"/>
	<path clip-path="url(#SVGID_2_)" fill="#6D6D6D" d="M435.2,541.306c-0.159,0-0.318-0.008-0.48-0.027
		c-2.276-0.263-3.907-2.32-3.646-4.595l2.723-23.572h-68.417l2.721,23.572c0.262,2.274-1.369,4.332-3.645,4.595
		c-2.278,0.263-4.333-1.369-4.595-3.645l-3.785-32.817h87.025l-3.785,32.817C439.072,539.748,437.276,541.306,435.2,541.306"/>
	<path clip-path="url(#SVGID_2_)" fill="none" stroke="#6D6D6D" stroke-width="2" stroke-miterlimit="10" d="M435.2,541.306
		c-0.159,0-0.318-0.008-0.48-0.027c-2.276-0.263-3.907-2.32-3.646-4.595l2.723-23.572h-68.417l2.721,23.572
		c0.262,2.274-1.369,4.332-3.645,4.595c-2.278,0.263-4.333-1.369-4.595-3.645l-3.785-32.817h87.025l-3.785,32.817
		C439.072,539.748,437.276,541.306,435.2,541.306z"/>
	<path clip-path="url(#SVGID_2_)" fill="#6D6D6D" d="M313.564,579.314h-21.34c-2.29,0-4.148-1.855-4.148-4.146
		s1.858-4.147,4.148-4.147h21.34c2.29,0,4.147,1.856,4.147,4.147S315.854,579.314,313.564,579.314"/>
	<path clip-path="url(#SVGID_2_)" fill="none" stroke="#6D6D6D" stroke-width="2" stroke-miterlimit="10" d="M313.564,579.314
		h-21.34c-2.29,0-4.148-1.855-4.148-4.146s1.858-4.147,4.148-4.147h21.34c2.29,0,4.147,1.856,4.147,4.147
		S315.854,579.314,313.564,579.314z"/>
	<path clip-path="url(#SVGID_2_)" fill="#6D6D6D" d="M506.952,579.314h-21.34c-2.29,0-4.148-1.855-4.148-4.146
		s1.858-4.147,4.148-4.147h21.34c2.29,0,4.146,1.856,4.146,4.147S509.242,579.314,506.952,579.314"/>
	<path clip-path="url(#SVGID_2_)" fill="none" stroke="#6D6D6D" stroke-width="2" stroke-miterlimit="10" d="M506.952,579.314
		h-21.34c-2.29,0-4.148-1.855-4.148-4.146s1.858-4.147,4.148-4.147h21.34c2.29,0,4.146,1.856,4.146,4.147
		S509.242,579.314,506.952,579.314z"/>
</g>
</svg>
