<svg width="560" height="442" viewBox="0 0 560 442" fill="none" xmlns="http://www.w3.org/2000/svg">
<path d="M395.323 4.75879C382.989 11.6473 372.647 21.3677 362.08 30.6111C345.151 45.2866 328.098 59.8196 310.884 74.1626C265.183 113.131 217.538 149.901 172.037 189.026C162.138 199.476 166.656 196.039 175.545 190.367C229.456 145.692 282.087 99.3421 336.42 55.1157C355.882 38.1823 378.21 24.1935 395.323 4.76077V4.75879Z" fill="#2C2C2C"/>
<path d="M396.55 21.6069C385.98 26.9836 377.032 34.7409 368.392 42.7475C357.506 52.4539 346.505 62.0278 335.451 71.5424C286.03 114.512 234.646 155.188 184.614 197.39C179.344 202.458 177.478 204.518 185.338 198.821C235.703 157.365 284.72 114.192 335.685 73.4164C346.086 65.0041 356.522 56.6393 367.06 48.3992C377.58 40.258 388.48 32.3266 396.552 21.6089L396.55 21.6069ZM204.28 183.285C204.25 183.31 204.223 183.336 204.193 183.362L204.28 183.285Z" fill="#2C2C2C"/>
<path d="M391.737 1.12744C381.051 3.62877 371.283 8.61757 361.64 13.7172C347.869 20.7264 333.979 27.5041 320.178 34.456C295.438 46.5253 270.629 58.4501 245.69 70.1078C232.992 76.2819 219.581 81.1322 207.599 88.6837C198.852 94.3789 200.722 93.6566 209.502 90.7457C221.303 86.5188 232.111 80.0458 243.33 74.5365C268.485 61.8934 293.829 49.6302 319.204 37.4342C332.332 31.27 345.47 25.1255 358.606 18.9791C370.028 13.7548 381.842 9.03313 391.735 1.12744H391.737Z" fill="#2C2C2C"/>
<path d="M-33.5692 58.8972C-35.8449 58.919 -38.1464 58.9803 -40.4062 59.107C-30.6384 62.7778 -20.3145 64.4995 -9.96886 65.5285C-10.1371 65.5067 -10.3072 65.4869 -10.4755 65.4652C53.5735 72.886 117.155 84.0331 181.008 92.5899C184.335 92.5642 195.828 93.7218 186.696 91.5035C159.324 84.7475 130.861 83.7798 103.113 78.9395C72.9726 74.5127 42.8399 70.0067 12.7449 65.2732C-2.68653 63.1677 -17.9359 59.0892 -33.5692 58.8992V58.8972Z" fill="#2C2C2C"/>
<path d="M200.667 94.1177C191.661 101.012 184.206 109.616 177.082 118.377C164.765 133.019 152.198 147.445 139.77 161.99C126.838 178.13 110.823 192.904 100.285 210.411C120.05 192.73 135.563 170.847 153.533 151.405C169.008 132.156 187.952 115.417 200.667 94.1157V94.1177Z" fill="#2C2C2C"/>
<path d="M-43.1855 55.1335C-41.8063 62.6989 -39.485 70.0604 -36.6987 77.218C-36.7225 77.1587 -36.7442 77.0993 -36.768 77.0399C-19.9573 116.659 -4.88798 157.035 12.1068 196.553C14.0817 199.919 19.9729 212.679 16.8403 201.894C5.66349 166.763 -10.6208 133.371 -23.3946 98.7721C-29.4619 84.0096 -34.2113 68.4772 -43.1836 55.1335H-43.1855Z" fill="#2C2C2C"/>
<path d="M-42.1895 72.813C-35.855 100.969 -21.7277 126.718 -11.8352 153.724C-2.03767 176.246 4.83701 200.28 17.6523 221.339C11.0567 193.512 -2.55614 167.915 -12.3952 141.156C-22.3332 118.423 -28.9586 93.9318 -42.1895 72.815V72.813Z" fill="#2C2C2C"/>
<path d="M26.4629 218.875C22.9464 219.037 19.4299 219.53 15.9668 220.094C25.3982 222.93 35.2788 223.814 45.0961 223.359C50.1324 223.181 55.2241 223.159 60.2149 222.514C49.137 220.262 37.798 218.513 26.4629 218.877V218.875Z" fill="#2C2C2C"/>
<path d="M76.7273 221.77C73.1633 222.178 61.3473 222.257 71.3546 224.096C79.3058 225.884 87.5063 226.385 95.6297 225.863C98.7603 225.692 101.928 225.487 105.014 224.968C95.7959 222.635 86.2438 221.353 76.7253 221.77H76.7273Z" fill="#2C2C2C"/>
<path d="M20.6259 208.541C0.973447 209.192 24.2591 211.795 30.7974 212.487C48.4768 213.291 66.1543 214.783 83.8496 214.943C87.5303 214.767 102.934 214.65 92.5726 213.134C81.6233 210.906 70.4327 210.661 59.3133 210.063C46.4208 209.515 33.5421 207.908 20.6259 208.543V208.541Z" fill="#2C2C2C"/>
<path d="M-1.53718 179.232C-1.88546 185.402 -2.96594 191.62 -1.22847 197.685C0.958192 191.804 0.87508 185.018 -1.53718 179.232Z" fill="#2C2C2C"/>
<path d="M32.6118 227.836C29.8612 254.155 31.0821 280.706 30.4746 307.128C30.5241 320.557 30.7615 333.989 31.0208 347.416C31.183 357.362 31.0782 367.338 33.4568 377.064C34.9726 387.524 35.2675 375.344 35.5109 371.604C36.1263 352.914 34.2187 334.265 33.6745 315.588C33.059 298.957 33.5142 282.313 33.2451 265.676V265.7C33.2431 265.797 33.2411 265.896 33.2371 265.993C33.3301 253.292 34.3889 240.445 32.6079 227.832L32.6118 227.836ZM33.441 255.782C33.441 255.807 33.441 255.835 33.441 255.861V255.782Z" fill="#2C2C2C"/>
<path d="M148.996 374.66C117.199 376.502 85.3469 376.922 53.5243 378.087C47.1998 378.617 40.8218 379.094 34.5586 380.076C42.9392 382.29 51.6661 382.332 60.2862 381.865C95.4868 378.075 131.101 380.47 166.155 375.297C160.492 374.505 154.711 374.6 148.994 374.658L148.996 374.66Z" fill="#2C2C2C"/>
<path d="M69.2269 329.464C65.7678 347.854 67.7685 342.429 86.9776 342.317C106.598 341.626 126.269 342.388 145.869 341.165C151.63 340.749 157.311 339.659 163.017 338.822C155.59 336.912 147.787 337.096 140.172 337.437C123.48 338.804 106.739 338.804 90.0073 338.99C83.7164 339.053 77.4235 339.689 71.1405 339.659C70.1273 336.366 70.0145 332.812 69.2269 329.466V329.464Z" fill="#2C2C2C"/>
<path d="M160.36 332.03C158.879 332.452 160.144 332.436 160.951 332.671C160.918 332.66 160.884 332.648 160.848 332.636C161.294 334.132 161.377 336.148 162.521 337.524C162.463 335.857 163.132 331.193 160.36 332.03ZM161.031 332.711C161.05 332.723 161.068 332.735 161.088 332.749C161.07 332.735 161.05 332.723 161.031 332.711Z" fill="#2C2C2C"/>
<path d="M138.456 329.517C119.005 331.001 88.18 330.099 74.4089 333.516C74.3911 333.516 74.3752 333.514 74.3574 333.513C74.6206 333.534 74.8838 333.554 75.149 333.57C75.1252 333.57 75.1015 333.566 75.0777 333.566C75.4537 333.596 75.8317 333.621 76.2077 333.645C76.1741 333.643 76.1424 333.641 76.1088 333.637C98.866 335.371 121.703 333.839 144.493 333.669C149.939 333.602 155.263 332.177 160.701 331.997C153.618 329.561 145.861 329.974 138.456 329.515V329.517ZM79.558 333.841C79.5936 333.843 79.6292 333.847 79.6648 333.849C79.6292 333.847 79.5936 333.845 79.558 333.841Z" fill="#2C2C2C"/>
<path d="M158.718 252.212C155.077 262.828 157.438 274.286 157.661 285.239C158.061 300.823 157.477 316.508 159.425 331.995C161.403 319.015 160.887 305.776 161.148 292.67C161.148 292.716 161.148 292.761 161.146 292.807C161.148 292.718 161.15 292.629 161.152 292.54V292.557C161.158 292.268 161.164 291.98 161.17 291.691C161.166 291.831 161.164 291.972 161.162 292.112C161.17 291.778 161.176 291.441 161.184 291.107V291.146C161.188 290.899 161.194 290.654 161.198 290.408C161.194 290.557 161.192 290.705 161.188 290.856C161.194 290.571 161.2 290.284 161.206 289.999C161.204 290.094 161.202 290.189 161.2 290.286C161.983 277.5 160.141 264.853 158.718 252.212ZM161.233 288.669C161.233 288.712 161.233 288.754 161.231 288.797C161.231 288.754 161.231 288.712 161.233 288.669ZM161.154 292.369C161.152 292.47 161.15 292.569 161.148 292.67C161.15 292.569 161.152 292.47 161.154 292.369ZM161.16 292.11V292.116C161.156 292.259 161.154 292.399 161.15 292.542V292.516C161.15 292.597 161.148 292.678 161.146 292.757L161.15 292.538C161.154 292.393 161.156 292.247 161.16 292.1V292.11ZM161.206 290.001C161.206 289.945 161.208 289.892 161.21 289.836C161.21 289.892 161.208 289.945 161.206 290.001Z" fill="#2C2C2C"/>
<path d="M85.09 247.274C68.493 248.422 67.4244 249.142 84.8664 250.884C97.939 251.238 111.021 250.88 124.094 251.721C128.349 252.026 167.264 254.054 150.582 251.844C150.625 251.848 150.669 251.853 150.712 251.857C128.962 249.344 107 247.088 85.092 247.274H85.09ZM137.121 250.217C137.171 250.223 137.218 250.227 137.268 250.233C137.218 250.227 137.171 250.223 137.121 250.217Z" fill="#2C2C2C"/>
<path d="M69.3818 249.182C66.0275 250.158 69.1245 273.522 68.3884 278.084C68.4972 293.426 67.2525 308.895 69.2967 324.148C69.6093 325.979 69.9794 327.821 70.3593 329.628C70.5968 328.387 70.8105 327.145 70.9827 325.892C72.5994 316.021 72.0335 306.051 71.424 296.123C70.8244 285.364 71.4952 274.571 70.6344 263.828C70.4504 260.66 70.4009 257.485 70.1911 254.319C69.7577 250.947 69.2512 249.837 73.2782 250.011C72.0256 249.643 70.7155 249.111 69.3798 249.184L69.3818 249.182ZM69.9299 250.417C69.8963 250.433 69.8626 250.448 69.829 250.462C69.8607 250.444 69.8963 250.431 69.9299 250.417ZM69.8488 250.417L69.829 250.433C69.829 250.433 69.8428 250.423 69.8488 250.417ZM69.7498 250.508C69.7281 250.537 69.7083 250.567 69.6865 250.597C69.7043 250.565 69.7241 250.532 69.7498 250.508Z" fill="#2C2C2C"/>
<path d="M74.959 255.876C73.2037 270.34 73.8864 284.992 73.833 299.537C73.6846 307.369 73.461 315.239 75.2123 322.937C75.6378 324.869 77.2644 333.368 77.3436 328.646C77.3436 328.668 77.3396 328.69 77.3376 328.712C78.2598 316.654 77.3555 304.528 76.6054 292.482C76.3818 280.274 76.1661 268.021 74.957 255.876H74.959ZM77.3456 328.646C77.3456 328.635 77.3456 328.623 77.3475 328.611V328.646H77.3456Z" fill="#2C2C2C"/>
<path d="M89.7556 254.27C85.3368 254.416 80.9416 255.077 76.5742 255.625C78.8381 256.282 81.1514 256.729 83.4885 257.032C92.065 258.334 100.735 257.448 109.359 257.434C123.658 256.797 137.95 258.904 152.21 258.2C152.204 258.2 152.198 258.202 152.192 258.204C134.673 256.363 109.839 253.52 89.7537 254.274L89.7556 254.27Z" fill="#2C2C2C"/>
<path d="M153.713 256.241C155.159 278.64 151.554 301.011 152.567 323.412C152.561 323.305 152.555 323.201 152.549 323.094V323.127C152.549 323.11 152.549 323.092 152.549 323.074C152.593 323.943 152.658 324.807 152.71 325.674C152.704 325.583 152.7 325.492 152.694 325.401C152.811 327.402 152.999 329.397 153.117 331.397V331.393C157.453 321.358 155.33 304.983 155.716 292.684C155.256 280.534 156.181 268.223 153.715 256.243L153.713 256.241ZM153.113 331.393V331.373C153.113 331.373 153.113 331.387 153.113 331.393Z" fill="#2C2C2C"/>
<path d="M254.395 231.255C252.409 241.209 252.703 251.434 252.951 261.528C253.339 282.174 253.562 302.826 253.596 323.476C254.288 345.556 251.261 367.848 254.451 389.776C257.482 369.948 254.803 349.827 255.28 329.865C255.205 306.127 255.48 282.386 255.927 258.651C256.155 249.514 256.21 240.235 254.393 231.253L254.395 231.255Z" fill="#2C2C2C"/>
<path d="M254.423 309.96C252.642 318.74 252.353 328.094 254.437 336.841C256.489 328.078 256.239 318.726 254.423 309.96Z" fill="#2C2C2C"/>
<path d="M288.629 243.402C285.868 256.203 286.723 269.392 286.658 282.394C287.099 301.605 285.006 320.951 287.109 340.077C289.804 320.901 288.334 301.415 289.383 282.117C289.721 269.23 291 256.16 288.629 243.404V243.402Z" fill="#2C2C2C"/>
<path d="M338.039 244.294C334.661 260.149 336.62 276.481 336.066 292.553C336.05 306.445 334.912 320.404 336.62 334.239C338.591 321.718 338.132 308.956 338.421 296.313C338.225 278.994 341.062 261.463 338.039 244.294Z" fill="#2C2C2C"/>
<path d="M309.51 241.726C304.414 241.83 299.269 241.947 294.221 242.582C303.66 244.524 313.319 245.535 322.956 245.667C336.832 245.606 343.612 244.522 324.789 242.418L325.208 242.46C319.994 241.931 314.752 241.656 309.51 241.726Z" fill="#2C2C2C"/>
<path d="M342.736 335.187C337.949 336.045 332.974 335.59 328.117 335.709C328.141 335.709 328.163 335.709 328.187 335.711C328.123 335.709 328.058 335.707 327.995 335.705C328.011 335.705 328.028 335.705 328.044 335.705C315.836 335.466 303.456 334.34 291.5 337.373C308.162 339.964 325.212 337.359 341.96 336.697C341.974 338.501 342.66 340.215 343.521 341.774C343.406 340.848 343.276 339.883 343.302 338.933C343.153 337.767 344.623 335.387 342.736 335.187ZM328.185 335.711C328.203 335.711 328.222 335.711 328.24 335.713H328.185V335.711ZM328.108 335.707C328.108 335.707 328.114 335.707 328.117 335.707C328.094 335.707 328.068 335.707 328.044 335.705H328.108V335.707Z" fill="#2C2C2C"/>
<path d="M292.086 339.366C291.943 348.566 291.623 344.013 303.894 344.687C314.639 344.497 325.474 345.273 336.162 343.92C347.968 342.38 339.233 342.137 333.639 341.697C324.969 341.234 316.321 341.899 307.685 342.59C303.344 342.924 299.002 343.17 294.652 343.31C292.64 343.862 293.239 340.591 292.086 339.366Z" fill="#2C2C2C"/>
<path d="M288.001 337.405C287.777 339.257 287.079 342.469 288.994 343.526C292.568 344.844 292.982 344.583 289.74 342.273C289.762 342.289 289.786 342.303 289.808 342.319C289.501 342.16 289.418 341.893 289.384 341.569C289.388 341.592 289.392 341.616 289.398 341.64C289.145 340.172 288.595 338.755 288.001 337.403V337.405ZM289.523 342.117L289.556 342.156C289.544 342.143 289.533 342.131 289.523 342.117Z" fill="#2C2C2C"/>
<path d="M295.467 247.666C293.437 249.022 294.674 251.798 294.385 253.811C294.31 258.202 294.009 262.583 293.821 266.97C293.579 273.459 293.16 279.995 293.882 286.466C294.951 293.745 295.291 296.642 296.199 287.193C296.87 277.417 296.342 267.603 296.72 257.816C296.569 248.323 295.57 249.548 305.097 248.695C302.006 248.187 298.546 246.526 295.465 247.666H295.467Z" fill="#2C2C2C"/>
<path d="M330.701 248.341C327.123 248.531 323.588 249.142 320.248 250.439C323.193 251.03 327.91 249.702 329.945 251.81C330.483 256.167 330.528 260.574 330.238 264.952C330.006 273.475 329.737 282.079 330.889 290.547C331.538 294.976 331.302 299.493 332.276 303.883C332.385 301.866 332.284 299.81 332.45 297.784C333.113 290.976 333.012 284.121 333.572 277.3C333.374 271.067 338.017 250.484 330.701 248.341ZM332.968 286.757C332.963 286.846 332.955 286.937 332.949 287.028C332.955 286.937 332.963 286.848 332.968 286.757Z" fill="#2C2C2C"/>
<path d="M295.225 296.406C291.56 308.084 294.503 320.23 295.314 332.088C297.299 320.408 297.93 308.044 295.225 296.406ZM294.36 321.673C294.368 321.73 294.376 321.788 294.384 321.845C294.376 321.788 294.368 321.73 294.36 321.673Z" fill="#2C2C2C"/>
<path d="M308.067 330.566C303.711 330.659 299.542 332.024 295.299 332.648C300.901 334.542 307.21 333.895 313.083 334.205C317.013 334.035 320.842 332.99 324.721 332.406C325.469 332.393 328.847 331.807 327.474 331.666L327.509 331.67C321.147 330.239 314.551 330.475 308.067 330.568V330.566Z" fill="#2C2C2C"/>
<path d="M332.277 305.834C329.607 316.049 330.438 326.953 332.427 337.205C333.84 326.836 335.021 316.086 332.277 305.834Z" fill="#2C2C2C"/>
<path d="M170.081 240.867C169.398 242.652 168.981 244.516 168.767 246.412C168.771 246.384 168.775 246.354 168.779 246.326C166.068 263.909 168.828 281.707 167.312 299.398C167.211 322.759 164.926 346.304 168.61 369.487C169.151 379.366 170.269 361.223 169.954 358.185C169.572 342.736 169.64 327.297 170.045 311.844C171.001 288.196 173.781 264.396 170.081 240.869V240.867Z" fill="#2C2C2C"/>
<path d="M194.163 227.869C189.372 228.643 184.627 229.917 179.984 231.293C187.318 232.383 194.951 231.944 202.035 229.719C210.521 227.365 197.054 227.849 194.161 227.869H194.163Z" fill="#2C2C2C"/>
<path d="M163.644 233.741C151.121 234.134 138.916 237.362 126.823 240.376C116.489 242.529 139.25 240.467 142.586 240.204C151.606 239.444 195.045 233.04 163.642 233.741H163.644ZM146.518 235.874C146.518 235.874 146.499 235.878 146.489 235.88L146.518 235.874Z" fill="#2C2C2C"/>
<path d="M138.154 241.88C114.939 243.546 109.337 243.055 136.729 245.487C147.346 246.847 158 246.821 168.516 244.688C163.131 243.36 157.561 242.778 152.026 242.376C152.04 242.376 152.055 242.376 152.069 242.378C147.452 241.838 142.796 241.71 138.152 241.878L138.154 241.88Z" fill="#2C2C2C"/>
<path d="M176.915 204.801C169.08 204.631 161.875 207.865 154.814 210.875C147.712 213.445 162.461 211.211 165.221 210.623C168.762 210.17 187.884 203.628 176.915 204.801Z" fill="#2C2C2C"/>
<path d="M138.974 214.169C127.312 215.018 116.034 218.09 105.439 223.019C114.746 222.315 124.102 220.882 133.104 218.361C136.429 217.361 139.381 215.499 142.589 214.211C141.402 214.116 140.173 214.076 138.974 214.169Z" fill="#2C2C2C"/>
<path d="M165.5 193.514C154.921 193.795 144.83 197.242 134.704 199.969C124.07 202.844 113.564 206.099 103.23 209.929C100.883 210.778 98.4033 211.569 96.3809 213.051C98.3419 212.287 100.42 211.791 102.484 211.389C119.518 207.675 136.426 203.311 153.371 199.221C159.013 197.699 164.378 195.235 170.091 194.01C168.589 193.737 167.041 193.484 165.5 193.514Z" fill="#2C2C2C"/>
<path d="M340.446 78.3379C338.485 78.3854 336.496 78.4784 334.564 78.7376C348.484 80.5345 362.216 83.5622 376.103 85.6282C391.947 88.3551 407.673 91.7588 423.536 94.3689C446.572 97.2937 441.684 95.1882 423.15 90.047C423.326 90.0866 423.5 90.1262 423.676 90.1677C409.99 87.3419 395.979 86.3247 382.224 83.8155C368.336 81.8287 354.536 78.3696 340.448 78.3399L340.446 78.3379Z" fill="#2C2C2C"/>
<path d="M340.002 69.7455C354.064 76.3115 370.069 75.7396 385.119 78.2409C401.037 79.9467 417.753 82.9566 433.212 84.5398C433.117 84.5576 433.028 84.5378 432.935 84.514H432.949C418.162 79.7548 402.632 77.5839 387.313 75.229C371.646 72.4151 355.96 69.7198 340.002 69.7436V69.7455Z" fill="#2C2C2C"/>
<path d="M431.799 84.5398C433.164 88.9171 436.427 92.2634 440.031 94.9389C438.486 90.6922 435.545 87.051 431.799 84.5398Z" fill="#2C2C2C"/>
<path d="M382.424 30.7713C381.63 34.8458 381.319 38.9975 381.054 43.1334C381.054 43.1136 381.056 43.0938 381.058 43.0741C381.054 43.1592 381.048 43.2423 381.044 43.3274C381.044 43.2937 381.048 43.2581 381.05 43.2245C380.251 53.9145 380.823 64.5926 382.275 75.1658C386.969 60.8287 382.042 45.4626 382.426 30.7693L382.424 30.7713ZM381.048 43.2264C381.048 43.1968 381.052 43.1651 381.054 43.1354L381.048 43.2264ZM381.05 43.171C381.052 43.1216 381.056 43.0721 381.058 43.0246C381.056 43.0741 381.052 43.1235 381.05 43.171ZM381.058 43.0246C381.058 42.9909 381.062 42.9553 381.064 42.9217C381.062 42.9553 381.06 42.9909 381.058 43.0246Z" fill="#2C2C2C"/>
<path d="M389.265 29.2356C384.795 45.0252 386.578 61.9072 387.668 78.0728C388.135 75.5398 387.935 72.9197 388.141 70.3491C388.139 70.4006 388.135 70.45 388.133 70.5015C389.352 56.7917 391.313 42.9731 389.267 29.2356H389.265Z" fill="#2C2C2C"/>
<path d="M381.777 86.0913C380.299 90.061 382.844 93.8466 385.325 96.7694C384.913 93.0036 382.861 89.6672 381.777 86.0913Z" fill="#2C2C2C"/>
<path d="M387.379 87.7397C387.973 90.8486 385.616 93.6467 385.572 96.9159C387.644 94.7331 390.203 90.1105 387.379 87.7397Z" fill="#2C2C2C"/>
<path d="M320.079 86.3445C316.734 98.9916 317.864 112.147 317.672 125.083C317.789 133.771 317.114 142.44 317.045 151.124C316.727 158.833 318.785 166.377 318.868 174.025C323.083 162.738 320.34 150.12 320.87 138.32C320.874 120.995 321.203 103.624 320.077 86.3425L320.079 86.3445Z" fill="#2C2C2C"/>
<path d="M327.285 84.1954C326.029 84.0727 319.716 85.3787 322.435 85.5232H322.429C327.153 86.0318 331.664 87.6545 336.224 88.9111C345.711 91.0641 355.504 92.295 365.197 92.9441C353.181 87.9968 340.336 84.5259 327.283 84.1954H327.285ZM358.54 90.4962C358.562 90.5041 358.583 90.512 358.603 90.5179C358.581 90.51 358.56 90.5021 358.54 90.4962ZM361.75 91.5984C361.795 91.6143 361.841 91.6301 361.886 91.6459C361.841 91.6301 361.795 91.6143 361.75 91.5984ZM364.73 92.8728H364.75C364.75 92.8728 364.736 92.8728 364.73 92.8728Z" fill="#2C2C2C"/>
<path d="M366.742 95.4517C366.758 95.513 366.772 95.5743 366.782 95.6357V95.6278C363.57 115.844 365.068 136.328 364.589 156.706V156.702C364.449 164.584 366.408 172.294 366.823 180.125V180.107C370.714 169.262 368.048 153.146 368.543 140.499C368.048 125.517 368.935 110.262 366.744 95.4536L366.742 95.4517ZM368.691 154.033C368.691 154.076 368.691 154.122 368.691 154.165C368.691 154.122 368.691 154.076 368.691 154.033Z" fill="#2C2C2C"/>
<path d="M324.637 175.686C311.561 175.011 334.69 180.35 338.3 180.277C343.801 180.625 349.322 180.123 354.83 180.212C358.168 179.733 365.795 181.423 367.301 177.9C364.944 180.016 357.111 176.859 353.634 176.982C344.007 176.018 334.295 176.113 324.637 175.688V175.686ZM366.234 178.704L366.214 178.71C366.214 178.71 366.228 178.706 366.234 178.704Z" fill="#2C2C2C"/>
<path d="M361.012 164.64C360.325 166.48 360.464 169.462 359.229 170.723C354.876 170.58 350.587 169.739 346.291 169.092C340.22 168.227 334.083 168.148 327.965 168.196C322.344 167.414 329.225 170.046 331.519 170.669C337.97 172.375 344.631 173.301 351.292 173.596C360.624 173.141 363.642 176.208 361.01 164.64H361.012ZM359.393 171.016C359.378 171.033 359.362 171.049 359.344 171.065C359.36 171.049 359.376 171.031 359.393 171.016Z" fill="#2C2C2C"/>
<path d="M329.411 93.0173C327.721 93.0371 326.023 93.3359 324.383 93.6803C328.006 94.2522 331.442 95.5266 334.974 96.4685C343.109 98.9837 351.684 98.8966 359.971 100.395H359.963C361.313 105.912 360.992 112.826 361.932 118.767C362.795 114.55 363.678 110.331 364.382 106.084C366.037 97.8181 365.841 94.549 356.336 94.8617C347.326 94.9349 338.405 93.2311 329.411 93.0213V93.0173ZM327.183 94.2304C327.219 94.2403 327.256 94.2482 327.292 94.2581C327.256 94.2482 327.219 94.2403 327.183 94.2304Z" fill="#2C2C2C"/>
<path d="M351.708 102.71C346.464 122.337 351.649 142.769 352.599 162.613C352.599 162.609 352.599 162.607 352.599 162.603C352.599 162.718 352.601 162.833 352.603 162.948V162.938C354.404 155.958 353.679 145.923 353.905 137.895C353.913 126.132 353.345 114.354 351.71 102.708L351.708 102.71ZM352.579 160.591C352.579 160.614 352.579 160.638 352.579 160.662C352.579 160.638 352.579 160.614 352.579 160.591Z" fill="#2C2C2C"/>
<path d="M324.721 91.0542C322.687 108.104 324.605 125.303 324.189 142.409C323.647 150.73 325.252 158.92 326.174 167.101C327.991 162.199 327.755 156.785 328.097 151.628C328.578 131.398 326.443 111.172 324.721 91.0542Z" fill="#2C2C2C"/>
<path d="M386.232 96.0825C383.809 107.758 385.213 119.736 384.837 131.54C384.658 142.533 383.944 153.524 384.085 164.515C384.106 170.404 385.321 176.257 384.961 182.141C389.988 170.174 387.482 156.492 387.985 143.815C388.547 127.862 388.313 111.926 386.23 96.0806L386.232 96.0825Z" fill="#2C2C2C"/>
<path d="M392.035 96.0254C381.04 96.0808 404.631 100.937 407.712 101.44C414.1 102.855 420.634 102.516 427.095 103.242C424.228 101.604 421.036 100.674 417.824 99.9396C417.939 99.9673 418.053 99.997 418.168 100.025C409.679 97.4482 400.96 95.5979 392.035 96.0254Z" fill="#2C2C2C"/>
<path d="M428.394 101.551C425.491 118.112 425.808 134.861 426.772 151.579C426.849 162.374 426.136 173.262 427.993 183.954C430.045 167.185 430.179 150.273 429.76 133.393C430.037 122.792 431.279 111.91 428.392 101.553L428.394 101.551Z" fill="#2C2C2C"/>
<path d="M400.283 182.55C395.892 182.566 391.508 182.948 387.271 184.147C394.773 185.936 402.465 186.775 410.181 186.898C415.54 187.029 420.927 187.806 426.272 187.601C417.988 184.369 409.239 182.095 400.281 182.55H400.283Z" fill="#2C2C2C"/>
<path d="M423.968 162.435C421.49 187.177 424.467 173.141 396.262 176.101C388.975 177.19 394.585 177.239 398.502 178.096C405.653 179.396 412.803 180.698 420.034 181.494C431.197 184.852 424.39 167.913 423.966 162.435H423.968Z" fill="#2C2C2C"/>
<path d="M396.151 103.054C386.066 102.68 400.526 106.404 404.033 107.287C410.955 108.842 418.162 109.818 425.25 109.749C415.833 106.608 406.229 103.007 396.151 103.054Z" fill="#2C2C2C"/>
<path d="M424.016 108.655C420.359 118.701 422.914 129.506 424.333 139.745C426.5 132.86 425.961 118.056 424.016 108.655Z" fill="#2C2C2C"/>
<path d="M396.678 111.649C388.707 112.664 394.4 113.22 398.484 114.101C403.467 115.139 408.533 114.429 413.546 114.587C409.364 112.131 402.088 111.239 396.678 111.649Z" fill="#2C2C2C"/>
<path d="M414.397 114.443C412.244 133.854 410.993 153.342 412.919 172.799V172.795C412.919 172.795 412.919 172.813 412.915 172.823C412.915 172.817 412.915 172.811 412.917 172.805C416.147 167.375 415.228 154.712 415.513 146.743C415.197 135.977 415.531 125.153 414.397 114.443Z" fill="#2C2C2C"/>
<path d="M392.22 102.944C389.467 113.719 390.698 125.216 390.33 136.266C389.732 148.86 390.549 161.446 391.713 173.958C395.004 164.469 393.953 154.102 393.413 144.251C393.458 130.925 391.65 117.623 392.03 104.313C392.028 104.327 392.026 104.339 392.024 104.353C392.093 103.89 392.17 103.399 392.22 102.944Z" fill="#2C2C2C"/>
<path d="M411.975 247.715C408.803 264.789 409.715 282.217 409.549 299.491C409.2 312.497 409.006 325.435 411.217 338.288V338.282C411.217 338.295 411.217 338.307 411.217 338.321V338.311C414.322 332.958 413.099 317.788 413.322 309.085C413.322 309.071 413.322 309.055 413.322 309.039C413.322 309.067 413.322 309.093 413.322 309.121C413.314 308.697 413.307 308.276 413.299 307.852L413.309 308.343C413.305 308.127 413.301 307.912 413.297 307.696C413.297 307.747 413.297 307.797 413.299 307.848C413.289 307.34 413.281 306.829 413.271 306.32C413.271 306.352 413.271 306.386 413.271 306.417C412.602 286.864 414.284 267.166 411.971 247.714L411.975 247.715ZM413.267 305.962C413.267 306.043 413.271 306.127 413.271 306.208C413.271 306.127 413.267 306.043 413.267 305.962ZM413.305 308.024V308.054C413.305 308.054 413.305 308.034 413.305 308.024ZM413.318 308.788C413.32 308.905 413.322 309.024 413.324 309.142V309.125C413.324 309.166 413.324 309.21 413.324 309.251C413.322 309.097 413.318 308.943 413.316 308.788H413.318ZM411.219 338.309C411.219 338.309 411.219 338.293 411.219 338.284C411.219 338.291 411.219 338.299 411.219 338.309ZM409.277 318.972C409.277 318.932 409.277 318.894 409.276 318.855V318.972H409.277ZM409.276 318.855L409.268 318.441C409.27 318.578 409.272 318.716 409.276 318.855ZM413.324 309.123C413.324 309.071 413.324 309.018 413.322 308.966C413.322 309.018 413.322 309.071 413.324 309.123ZM413.299 307.694C413.299 307.65 413.299 307.605 413.297 307.561C413.297 307.605 413.297 307.65 413.299 307.694Z" fill="#2C2C2C"/>
<path d="M422.267 247.268C419.212 247.425 416.168 247.781 413.133 248.155C417.568 249.406 422.141 250.256 426.718 250.854C436.434 252.134 446.218 252.483 456.006 252.72C460.793 253.001 479.273 251.939 465.069 250.824C450.948 248.574 436.585 247.126 422.267 247.268Z" fill="#2C2C2C"/>
<path d="M473.886 251.131C472.986 251.339 470.455 251.379 472.559 251.711C476.657 251.472 473.228 257.85 473.576 260.6C473.105 265.005 473.036 269.454 473.431 273.869C475.46 293.244 472.137 312.851 475.123 332.133V332.108C479.425 317.763 476.914 296.675 476.748 280.021C476.33 273.572 475.79 267.129 475.99 260.66C475.341 258.063 478.159 250.684 473.89 251.133L473.886 251.131ZM474.447 252.206C474.464 252.22 474.48 252.233 474.498 252.247C474.48 252.233 474.464 252.22 474.447 252.206ZM474.642 252.495C474.646 252.526 474.65 252.556 474.652 252.588C474.648 252.556 474.646 252.526 474.642 252.495Z" fill="#2C2C2C"/>
<path d="M470.563 257.62C469.593 268.338 470.092 279.135 469.659 289.88C468.998 303.865 469.164 317.903 471.691 331.698C474.21 322.088 473.219 311.992 472.74 302.181C472.304 289.385 472.762 276.54 471.281 263.8C471.287 263.85 471.291 263.901 471.297 263.952C471.038 261.851 471.018 259.68 470.563 257.622V257.62Z" fill="#2C2C2C"/>
<path d="M418.514 254.343C413.958 254.679 415.573 261.651 417.085 264.364C417.324 255.291 418.816 257.335 426.382 255.32C423.803 254.826 421.159 254.256 418.514 254.343Z" fill="#2C2C2C"/>
<path d="M426.814 254.652C404.375 256.472 446.725 258.52 451.843 257.707C456.418 257.507 460.977 256.969 465.56 256.925C463.512 256.443 461.347 256.369 459.24 256.225C448.433 255.683 437.656 254.137 426.814 254.652Z" fill="#2C2C2C"/>
<path d="M422.542 330.095C418.953 330.135 416.905 330.404 421.852 331.336C424.555 331.094 426.676 329.903 422.542 330.095Z" fill="#2C2C2C"/>
<path d="M416.41 264.372C414.853 279.586 414.864 294.853 415.054 310.128C415.312 312.287 415.231 332.125 417.787 330.182C416.21 330.055 418.052 326.46 417.849 325.136C418.377 319.694 418.557 314.218 418.426 308.753C417.775 293.966 417.122 279.14 416.408 264.372H416.41Z" fill="#2C2C2C"/>
<path d="M459.847 332.806C444.938 333.631 429.863 332.011 415.062 334.312C425.149 336.91 435.633 336.455 445.941 335.84C456.758 335.525 467.695 335.553 478.314 333.259C478.308 333.259 478.302 333.259 478.296 333.261C478.405 333.243 478.512 333.224 478.621 333.204H478.607C478.682 333.194 478.755 333.18 478.828 333.166C478.828 333.166 478.825 333.166 478.823 333.166C473.299 332.844 465.97 332.99 459.849 332.804L459.847 332.806ZM473.503 334.168C473.481 334.171 473.46 334.175 473.438 334.179C473.46 334.175 473.481 334.171 473.503 334.168Z" fill="#2C2C2C"/>
<path d="M479.194 332.044C479.19 332.102 479.186 332.157 479.182 332.214C479.182 332.21 479.182 332.206 479.182 332.201C477.007 343.296 481.731 339.422 479.192 332.044H479.194Z" fill="#2C2C2C"/>
<path d="M465.059 338.774C450.292 339.843 435.474 338.759 420.736 340.326C407.408 340.862 432.263 342.443 436.284 342.362C444.904 342.602 453.579 343.025 462.186 342.327C467.916 341.45 473.901 340.856 479.325 338.767C474.589 338.697 469.812 338.262 465.061 338.774H465.059Z" fill="#2C2C2C"/>
<path d="M415.898 333.934C414.672 337.249 418.192 345.562 416.979 337.421C416.983 337.441 416.985 337.46 416.989 337.48C416.712 336.289 416.522 334.989 415.897 333.934H415.898Z" fill="#2C2C2C"/>
<path d="M411.777 339.285C413.038 340.623 414.756 341.584 416.641 341.303C415.165 340.365 413.527 339.546 411.777 339.285Z" fill="#2C2C2C"/>
<path d="M413.705 333.78C414.107 334.075 414.576 334.354 415.057 334.524C415.035 334.516 415.013 334.508 414.991 334.5C417.457 335.351 414.934 333.485 413.705 333.78Z" fill="#2C2C2C"/>
<path d="M394.607 23.5721C401.727 36.3854 411.246 47.6493 420.177 59.214C433.588 76.4818 446.735 93.9555 460.202 111.178C478.736 134.94 497.075 158.857 515.193 182.936C525.49 196.201 534.454 210.524 545.571 223.13C552.436 230.408 554.538 232.421 547.97 221.806C538.851 207.849 527.429 195.572 517.402 182.274C498.885 158.499 480.61 134.533 462.497 110.448C448.483 91.5847 433.908 73.1395 419.898 54.2707C411.844 43.7529 404.179 32.7739 394.607 23.5681V23.5721Z" fill="#2C2C2C"/>
<path d="M402.572 12.4607C403.338 13.9904 404.165 15.4904 405.014 16.9765C404.985 16.9251 404.955 16.8717 404.925 16.8202C411.384 28.65 420.115 38.97 427.88 49.9311C444.418 72.065 461.08 94.1099 477.64 116.228C502.78 149.533 525.798 184.435 551.142 217.561C557.071 224.143 562.627 230.634 554.686 217.365C529.067 180.279 500.201 145.458 474.272 108.556C459.155 87.5162 444.173 66.3816 428.951 45.4192C420.539 34.1375 412.779 22.2384 402.57 12.4607H402.572Z" fill="#2C2C2C"/>
<path d="M390.744 49.167C396.908 62.3346 406.997 73.1314 417.135 83.3524C409.848 70.9626 401.901 58.45 390.744 49.167Z" fill="#2C2C2C"/>
<path d="M427.504 96.7852C436.272 114.154 450.34 128.083 461.761 143.679C475.918 160.834 487.49 180.324 503.782 195.591C495.94 180.316 483.873 167.786 473.697 154.078C457.977 135.292 445.555 113.457 427.504 96.7852ZM502.122 192.485C502.134 192.506 502.146 192.528 502.158 192.55C502.146 192.528 502.134 192.506 502.122 192.485Z" fill="#2C2C2C"/>
<path d="M505.245 194.721C500.62 206.919 502.752 208.114 514.989 205.844C504.113 202.466 506.709 206.222 505.245 194.721ZM506.048 203.956L506.068 203.996C506.06 203.982 506.054 203.97 506.048 203.956Z" fill="#2C2C2C"/>
<path d="M558.993 223.599C557.423 225.797 556.331 228.295 555.268 230.766C555.29 230.717 555.31 230.669 555.332 230.62C555.132 231.051 554.98 231.506 554.744 231.92C554.762 231.898 554.78 231.877 554.795 231.855C554.746 231.95 554.659 231.991 554.554 231.985L554.609 231.977C553.774 231.726 553.941 232.023 554.548 232.403C557.853 231.441 559.161 226.795 558.991 223.597L558.993 223.599Z" fill="#2C2C2C"/>
<path d="M540.842 231.787C532.01 232.104 523.472 234.744 514.859 236.517C515.922 237.176 523.844 236.935 527.22 236.85C536.127 236.222 545.174 235.361 553.632 232.409C549.427 231.746 545.097 231.776 540.844 231.787H540.842Z" fill="#2C2C2C"/>
<path d="M401.832 12.3535C402.026 13.3331 402.56 14.2117 403.352 14.8232C403.172 13.8595 402.62 12.9412 401.832 12.3535Z" fill="#2C2C2C"/>
<path d="M395.938 0.175575C392.928 1.21054 391.078 4.4223 391.709 7.53313C396.328 -1.60146 397.858 5.9975 402.182 9.93748C405.955 13.1453 404.218 10.8339 403.017 8.04962C401.299 5.34248 400.205 -1.14633 395.938 0.175575ZM396.92 3.00738C396.943 3.02321 396.965 3.03904 396.987 3.05685L396.918 3.00738H396.92Z" fill="#2C2C2C"/>
<path d="M-52.623 357.164C-40.5439 362.125 -27.8433 364.957 -15.2002 368.02C0.674545 371.792 16.4523 377.082 32.8633 377.678C18.1818 370.864 2.00634 368.424 -13.6111 364.629C-26.5194 361.619 -39.3704 358.207 -52.623 357.164Z" fill="#2C2C2C"/>
<path d="M-48.6836 381.432C-30.5589 389.741 -10.6928 394.413 9.00715 397.015C-9.34711 389.369 -28.8471 383.353 -48.6836 381.432Z" fill="#2C2C2C"/>
<path d="M218.234 227.822C213.16 228.19 208.072 228.659 203 228.906C213.377 232.565 224.617 232.231 235.478 232.834C241.592 233.016 247.687 232.252 253.798 232.462C256.571 232.559 258.255 232.694 254.36 231.766C254.39 231.774 254.42 231.78 254.449 231.787C242.578 229.423 230.358 227.713 218.232 227.822H218.234Z" fill="#2C2C2C"/>
<path d="M202.464 181.917C201.154 196.626 199.905 211.613 201.904 226.304C202.696 229.83 202.785 229.613 202.832 226.112C205.068 211.268 208.12 196.474 202.462 181.917H202.464Z" fill="#2C2C2C"/>
<path d="M229.266 161.608C228.914 164.79 227.497 167.713 226.97 170.863C220.276 170.335 214.533 175.06 209.291 178.599C214.737 177.514 220.054 175.755 225.569 175.045C227.843 175.292 230.905 175.052 230.337 171.942C230.337 171.952 230.337 171.961 230.337 171.971C230.255 168.512 230.697 164.847 229.266 161.606V161.608ZM230.329 171.52C230.329 171.577 230.331 171.633 230.333 171.69C230.333 171.633 230.331 171.576 230.329 171.52Z" fill="#2C2C2C"/>
<path d="M205.543 237.19C202.138 255.429 205.296 274.09 205.035 292.504C205.808 320.262 204.514 348.026 204.95 375.778C205.082 378.465 205.147 381.194 205.573 383.84C205.86 381.906 205.988 379.951 206.097 378C206.794 352.326 205.367 326.628 205.953 300.944C205.415 279.728 209.161 258.204 205.543 237.19Z" fill="#2C2C2C"/>
<path d="M220.524 233.256C217.104 257.559 220.09 282.19 219.776 306.629C219.73 321.548 219.643 336.469 219.259 351.384C218.952 362.836 218.208 374.436 220.549 385.736C222.461 376.5 222.344 366.974 222.002 357.582C221.511 341.757 221.359 325.924 221.305 310.092C220.809 284.505 224.058 258.687 220.522 233.256H220.524Z" fill="#2C2C2C"/>
<path d="M199.472 227.879C195.774 256.892 200.028 286.278 198.772 315.441C199.017 334.933 197.3 354.443 198.166 373.914C199.874 395.494 201.416 368.685 201.145 362.032C201.145 362.058 201.145 362.084 201.145 362.11C200.294 333.673 199.745 305.208 200.43 276.76C200.697 260.479 202.102 244.023 199.47 227.877L199.472 227.879ZM198.714 285.156V285.218C198.714 285.198 198.714 285.178 198.714 285.156Z" fill="#2C2C2C"/>
<path d="M208.395 387.004C207.006 387.145 205.777 387.95 204.415 388.092C202.298 388.023 200.054 387.342 198.014 388.166C199.68 388.462 201.083 389.555 202.68 390.097C207.295 391.67 214.628 389.001 219.382 387.794C215.749 387.467 212.062 386.523 208.395 387.004Z" fill="#2C2C2C"/>
<path d="M229.558 242.628C226.76 242.879 224.158 244.106 221.92 245.745C226.59 246 243.818 242.218 229.558 242.628Z" fill="#2C2C2C"/>
<path d="M238.84 240.564C235.046 255.406 235.05 270.645 235.764 285.837C235.523 311.933 236.524 338.011 236.051 364.108C236.051 364.005 236.055 363.901 236.055 363.798C235.8 371.313 236.884 378.78 237.165 386.276C237.308 391.649 237.83 386.098 238.109 384.067C239.091 357.463 237.985 330.796 238.333 304.177C238.723 292.914 239.14 281.652 239.326 270.384C240.057 260.454 240.878 250.397 238.838 240.564H238.84Z" fill="#2C2C2C"/>
<path d="M219.633 382.32C224.867 386.79 231.955 388.449 238.715 387.641C232.626 384.998 226.333 382.674 219.633 382.32Z" fill="#2C2C2C"/>
<path d="M234.341 362.846C229.43 373.872 236.405 373.197 223.143 373.3C236.609 380.408 235.625 374.579 234.341 362.846ZM231.891 373.326C231.873 373.336 231.858 373.35 231.838 373.356L231.891 373.326Z" fill="#2C2C2C"/>
<path d="M231.425 255.56C228.637 256.464 225.793 257.27 222.932 257.861C225.756 258.702 228.712 258.805 231.637 258.661C230.833 267.714 231.484 276.776 233.137 285.706C233.41 281.022 240.439 252.936 231.423 255.558L231.425 255.56ZM232.076 258.686C232.096 258.698 232.116 258.708 232.133 258.72C232.114 258.708 232.096 258.696 232.076 258.686Z" fill="#2C2C2C"/>
<path d="M192.894 245.466C189.078 271.86 191.326 298.623 190.701 325.201C190.879 337.033 190.2 348.871 190.572 360.699C190.804 366.479 191.653 372.24 192.676 377.915C193.327 374.901 193.869 371.871 194.229 368.808C196.141 348.249 193.202 327.556 193.776 306.934C193.05 286.987 195.058 266.915 193.107 247.043C193.109 247.063 193.111 247.08 193.115 247.1C193.042 246.56 192.979 245.994 192.896 245.468L192.894 245.466Z" fill="#2C2C2C"/>
<path d="M196.168 246.728C196.223 246.72 196.281 246.714 196.336 246.706C191.99 247.239 192.414 248.343 196.55 248.001C200.575 247.049 199.981 246.231 196.168 246.728Z" fill="#2C2C2C"/>
<path d="M168.5 374.705C176.232 380.935 186.393 381.321 195.866 381.762C197.74 381.984 199.614 382.213 201.488 382.435C198.666 380.701 195.615 379.308 192.445 378.315C184.725 375.734 176.457 375.954 168.498 374.705H168.5Z" fill="#2C2C2C"/>
<path d="M236.736 385.843C242.667 390.071 250.211 390.574 257.259 390.103C250.939 386.737 243.819 385.708 236.736 385.843Z" fill="#2C2C2C"/>
<path d="M352.064 380.79C335.135 381.228 318.185 381.465 301.309 382.991C301.444 382.979 301.58 382.967 301.717 382.955H301.693C301.737 382.955 301.78 382.949 301.824 382.945C285.522 383.897 269.417 386.017 253.41 389.084C261.913 391.502 270.88 390.859 279.538 389.676C289.808 388.344 300.092 387.115 310.396 386.072C310.359 386.076 310.323 386.078 310.286 386.082C324.1 384.788 337.976 384.331 351.834 383.701C360.304 383.102 369.318 383.676 377.471 381.433C369.116 381.845 360.514 380.434 352.064 380.79ZM294.545 383.583C294.421 383.592 294.298 383.604 294.175 383.614C294.298 383.604 294.423 383.592 294.545 383.583ZM310.567 386.058C310.476 386.066 310.385 386.074 310.293 386.082C310.385 386.074 310.476 386.066 310.567 386.058ZM310.329 386.08C310.197 386.092 310.062 386.104 309.929 386.115C310.062 386.104 310.197 386.092 310.329 386.08ZM301.715 382.955C301.764 382.951 301.812 382.947 301.861 382.943C301.812 382.947 301.764 382.951 301.715 382.955Z" fill="#2C2C2C"/>
<path d="M375.442 364.567C374.146 369.805 374.747 375.281 376.156 380.418C377.512 375.186 377.716 369.57 375.442 364.567Z" fill="#2C2C2C"/>
<path d="M370.752 361.949C376.457 365.391 383.553 365.08 389.892 366.615C403.845 368.501 418.198 368.535 432.207 367.326C418.368 365.331 404.364 364.593 390.507 362.695C383.969 361.346 377.268 362.763 370.75 361.947L370.752 361.949Z" fill="#2C2C2C"/>
<path d="M371.404 357.536C370.492 358.559 371.75 365.917 372.316 360.479C372.461 359.062 371.467 357.821 373.492 357.841C372.851 357.606 372.083 357.174 371.404 357.536ZM372.055 358.181C372.063 358.217 372.069 358.251 372.077 358.286C372.067 358.253 372.061 358.217 372.055 358.181Z" fill="#2C2C2C"/>
<path d="M382.405 357.117C379.175 357.224 375.968 357.786 372.762 358.033C379.142 359.927 385.85 360.465 392.442 361.201C404.204 362.343 417.412 363.245 428.567 362.038H428.569C413.284 360.02 397.925 356.555 382.405 357.117Z" fill="#2C2C2C"/>
<path d="M430.262 361.575C430.6 363.113 430.743 364.757 431.576 366.121C431.813 364.492 431.659 362.642 430.262 361.575ZM430.481 362.632C430.483 362.646 430.487 362.66 430.489 362.674C430.487 362.66 430.483 362.646 430.481 362.632Z" fill="#2C2C2C"/>
<path d="M438.589 365.622C425.817 368.357 434.639 369.253 441.551 367.821C441.444 367.842 441.339 367.866 441.234 367.888C443.399 367.441 445.527 366.827 447.688 366.362H447.682C447.759 366.348 447.836 366.331 447.913 366.315H447.901C445.837 365.408 441.434 365.1 438.589 365.622Z" fill="#2C2C2C"/>
<path d="M432.783 371.179C430.525 375.709 431.085 380.873 433.37 385.274C433.693 380.588 433.782 375.794 432.783 371.179Z" fill="#2C2C2C"/>
<path d="M373.502 379.664C382.284 384.418 392.786 383.729 402.457 384.841C414.418 386.208 426.321 388.168 438.382 388.526C423.677 385.023 408.782 381.55 393.691 380.09C386.964 379.399 380.197 380.515 373.502 379.664Z" fill="#2C2C2C"/>
<path d="M447.202 366.73C444.9 369.358 445.057 373.534 447.051 376.276C447.059 373.1 447.174 369.902 447.202 366.73Z" fill="#2C2C2C"/>
<path d="M489.627 373.354C478.397 373.571 466.999 373.696 456.109 376.749C456.129 376.744 456.148 376.74 456.168 376.734C453.566 377.915 443.986 378.368 451.122 379.178C462.01 379.805 472.886 377.66 483.736 376.937C492.404 376.243 501.081 375.311 509.772 375.291C503.214 373.601 496.369 373.364 489.625 373.352L489.627 373.354Z" fill="#2C2C2C"/>
<path d="M435.736 387.879C447.903 392.019 460.896 392.759 473.551 394.554C491.482 396.572 509.138 401.288 527.256 401.169C515.096 397.494 502.471 396.075 489.901 394.627C471.833 392.612 454 387.495 435.736 387.879Z" fill="#2C2C2C"/>
<path d="M492.444 388.981C486.401 389.561 480.286 390.036 474.367 391.429C483.949 392.559 493.756 392.46 503.358 391.437C521.386 388.882 498.492 388.312 492.444 388.981Z" fill="#2C2C2C"/>
<path d="M512.667 212.895C509.496 240.873 512.423 269.149 511.816 297.241C512.34 326.185 508.893 355.209 510.701 384.089C510.901 385.694 511.178 387.281 511.479 388.868C512.065 386.165 512.469 383.398 512.724 380.634C513.923 354.716 511.847 328.714 512.342 302.762C511.913 272.828 515.554 242.733 512.669 212.895H512.667Z" fill="#2C2C2C"/>
<path d="M509.418 398.622C419.487 405.713 329.519 413.788 239.352 417.445C231.494 418.075 223.656 419.298 216.051 421.35C220.08 421.753 224.119 422.201 228.172 422.191C242.224 422.521 256.068 419.733 270.057 418.88C309.963 415.506 349.925 412.815 389.865 409.852C431.566 406.296 473.594 405.958 515.179 401.612C518.228 401.06 521.234 400.318 524.224 399.511C519.33 398.852 514.363 398.569 509.416 398.624L509.418 398.622Z" fill="#2C2C2C"/>
<path d="M536.731 410.28C433.15 421.979 329.193 430.13 225.307 438.721C219.724 439.451 214.078 440.118 208.666 441.683C212.962 442.114 217.282 442.045 221.588 441.831C282.726 436.908 343.694 429.768 404.83 424.67C449.905 420.121 495.277 418.443 540.317 413.98C544.411 413.248 548.452 412.146 552.436 411.006C547.217 410.478 541.975 410.072 536.727 410.278L536.731 410.28Z" fill="#2C2C2C"/>
<path d="M32.4883 378.548C65.3498 389.606 100.052 394.326 133.485 403.484C148.452 407.211 163.446 410.836 178.361 414.768C189.043 417.714 199.893 420.455 211.026 420.74C197.861 414.529 183.296 412.482 169.204 409.334C149.087 404.881 128.975 400.395 108.919 395.668C83.3934 390.285 58.4316 381.616 32.4883 378.548Z" fill="#2C2C2C"/>
<path d="M23.9805 390.091C51.6791 399.962 80.7174 405.513 108.964 413.586C129.845 419.256 150.697 425.034 171.466 431.104C180.509 433.862 189.59 436.722 199.028 437.765C200.884 437.982 202.772 438.121 204.624 438.234C203.401 437.636 202.174 437.052 200.937 436.482C174.675 426.43 146.383 422.586 119.425 414.621C87.499 406.951 56.2721 396.063 23.9805 390.093V390.091Z" fill="#2C2C2C"/>
</svg>
