<?xml version="1.0" encoding="utf-8"?>
<!-- Generator: Adobe Illustrator 16.0.0, SVG Export Plug-In . SVG Version: 6.00 Build 0)  -->
<!DOCTYPE svg PUBLIC "-//W3C//DTD SVG 1.1//EN" "http://www.w3.org/Graphics/SVG/1.1/DTD/svg11.dtd">
<svg version="1.1" id="Layer_1" xmlns="http://www.w3.org/2000/svg" xmlns:xlink="http://www.w3.org/1999/xlink" x="0px" y="0px"
	 width="150px" height="150px" viewBox="0 0 150 150" enable-background="new 0 0 150 150" xml:space="preserve">
<path fill="none" stroke="#010101" stroke-width="4" stroke-linecap="round" stroke-linejoin="round" stroke-miterlimit="10" d="
	M57.531,52.825c4.058-4.058,4.058-10.636,0-14.694l-7.426-7.424c-4.057-4.058-10.636-4.058-14.692,0l-6.552,6.551
	c-5.037,5.037-6.123,12.816-2.635,19.027c16.156,28.772,39.932,52.547,68.708,68.707c6.211,3.488,13.99,2.403,19.027-2.634
	l6.551-6.551c4.058-4.058,4.058-10.636,0-14.694l-7.432-7.431c-4.058-4.058-10.637-4.058-14.693,0l-2.646,2.644
	C78.334,87.119,64.093,72.878,54.886,55.47L57.531,52.825z"/>
<path fill="none" stroke="#010101" stroke-width="4" stroke-linecap="round" stroke-linejoin="round" stroke-miterlimit="10" d="
	M75.889,40.646L75.889,40.646c13.871,6.281,24.982,17.393,31.265,31.264"/>
<path fill="none" stroke="#010101" stroke-width="4" stroke-linecap="round" stroke-linejoin="round" stroke-miterlimit="10" d="
	M76.814,22.977L76.814,22.977c21.299,9.645,38.363,26.708,48.007,48.007"/>
</svg>
